<svg width="80" height="80" viewBox="0 0 80 80" fill="none" xmlns="http://www.w3.org/2000/svg">
<g clip-path="url(#clip0_1398_1352)">
<path d="M24.0097 37.6602C24.127 37.9874 24.1579 37.9997 24.164 37.6602C24.2134 35.2462 25.0222 29.77 28.3005 27.4672C32.3875 24.6026 31.9554 25.6151 32.9617 22.5282C32.9712 22.4903 32.9906 22.4557 33.0178 22.4277C33.045 22.3997 33.0791 22.3794 33.1166 22.3687C33.1541 22.3581 33.1938 22.3575 33.2317 22.3671C33.2695 22.3767 33.3041 22.396 33.3321 22.4232C35.0327 24.1284 37.0683 25.4624 39.3104 26.3412C41.5525 27.22 43.9525 27.6244 46.3588 27.529C54.7552 27.1647 53.3105 28.0723 54.2983 32.1284C54.5638 33.1723 54.9043 34.1957 55.317 35.1906C55.601 35.913 55.5084 35.8883 55.8665 35.1906C58.3669 30.8545 59.549 25.8835 59.2682 20.886C58.7249 10.0509 46.7354 4.27228 40.4073 4.27228C34.0791 4.27228 31.1466 7.64317 31.1466 7.64317C29.2444 9.8002 26.6952 11.2838 23.88 11.8722C19.0954 12.965 18.0026 19.0956 19.756 25.578C21.7439 33.1533 23.417 36.0303 24.0097 37.6602Z" stroke="white" stroke-miterlimit="10"/>
<path d="M54.8665 41.2224C56.7187 40.9878 57.6756 39.0801 58.4041 36.0611C59.077 33.2953 55.5703 35.629 55.5703 35.629C55.4345 37.1786 55.3234 38.4627 54.953 40.568C53.8293 47.5999 50.9091 56.2556 40.7471 56.342C27.5784 56.4532 23.9605 37.3082 23.9605 37.3082C23.9605 37.3082 21.9293 33.1841 21.1329 35.9747C19.9475 40.1235 25.1335 41.6361 25.1335 41.6361" stroke="white" stroke-miterlimit="10"/>
<path d="M50.2959 58.4214C50.0477 57.06 49.794 55.3166 49.5137 53.0452C48.1184 54.3788 45.5378 56.2741 40.8704 56.3235C37.7963 56.2955 34.8139 55.2732 32.3691 53.4095C32.3691 53.4095 31.4862 63.0406 26.9917 65.4422C31.0813 67.7845 35.6953 69.0585 40.4073 69.1465C42.2229 69.1849 43.9316 69.1276 45.5 68.9659" stroke="white" stroke-miterlimit="10"/>
<path d="M75.6042 79.574L3.56836 79.5617L5.55632 76.4439L26.9917 65.4422C31.0539 67.8497 35.6854 69.1286 40.4074 69.1465C42.4797 69.1085 44.1172 69.0507 45.5 68.9203" stroke="white" stroke-miterlimit="10"/>
<path d="M79.6543 0.308685H0.3396V79.6234H79.6543V0.308685Z" stroke="white" stroke-miterlimit="10"/>
<path d="M66.1893 78.8393L66.0525 79.3203L66.0599 79.3224L66.0674 79.3242L66.1893 78.8393ZM72.61 79.6419L72.6088 80.1419H72.61V79.6419ZM79.642 79.6419V80.1419H80.142V79.6419H79.642ZM79.642 67.9735H80.142V67.8847L80.1114 67.8013L79.642 67.9735ZM73.0052 57.478L72.6987 57.8731L72.7002 57.8743L73.0052 57.478ZM56.2063 56.3852L56.4318 56.8315L56.4912 56.8015L56.5408 56.7569L56.2063 56.3852ZM54.0659 74.7481C55.1787 76.6956 57.4209 77.5699 59.6703 78.0963C60.8084 78.3626 61.9918 78.5486 63.0894 78.7276C64.198 78.9084 65.2114 79.081 66.0525 79.3203L66.3261 78.3584C65.42 78.1007 64.3487 77.9198 63.2504 77.7407C62.1411 77.5598 60.9957 77.3794 59.8982 77.1226C57.6766 76.6027 55.8213 75.8044 54.9341 74.2519L54.0659 74.7481ZM66.0674 79.3242C68.2065 79.8619 70.4032 80.1365 72.6088 80.1419L72.6113 79.1419C70.487 79.1367 68.3714 78.8722 66.3112 78.3544L66.0674 79.3242ZM72.61 80.1419H79.642V79.1419H72.61V80.1419ZM80.142 79.6419V67.9735H79.142V79.6419H80.142ZM79.642 67.9735C80.1114 67.8013 80.1114 67.8012 80.1113 67.801C80.1113 67.801 80.1112 67.8008 80.1112 67.8006C80.1111 67.8003 80.1109 67.7999 80.1107 67.7993C80.1103 67.7982 80.1097 67.7966 80.109 67.7946C80.1075 67.7906 80.1053 67.7848 80.1025 67.7772C80.0968 67.7621 80.0886 67.74 80.0777 67.7112C80.0559 67.6538 80.0237 67.5698 79.9815 67.4623C79.8971 67.2474 79.7727 66.9382 79.6113 66.5583C79.2887 65.7988 78.8176 64.7546 78.2231 63.615C77.0442 61.3548 75.3436 58.6465 73.3101 57.0817L72.7002 57.8743C74.55 59.2976 76.1679 61.837 77.3365 64.0775C77.9159 65.1883 78.3758 66.2077 78.6909 66.9492C78.8483 67.3198 78.9693 67.6205 79.0507 67.8277C79.0914 67.9314 79.1221 68.0116 79.1426 68.0656C79.1528 68.0926 79.1604 68.113 79.1655 68.1265C79.168 68.1332 79.1698 68.1382 79.171 68.1414C79.1716 68.143 79.172 68.1442 79.1723 68.1449C79.1724 68.1452 79.1725 68.1455 79.1726 68.1456C79.1726 68.1457 79.1726 68.1457 79.1726 68.1457C79.1726 68.1457 79.1726 68.1456 79.642 67.9735ZM73.3116 57.0829C72.3707 56.3533 70.8229 55.9213 69.1213 55.6618C67.3953 55.3985 65.4186 55.3003 63.5439 55.2972C61.6673 55.2941 59.8797 55.3862 58.5268 55.5076C57.8512 55.5682 57.2781 55.6366 56.8537 55.7051C56.6425 55.7393 56.4597 55.7748 56.316 55.8115C56.2446 55.8297 56.1739 55.8505 56.1103 55.8748C56.0614 55.8934 55.9598 55.9344 55.8718 56.0136L56.5408 56.7569C56.4836 56.8083 56.4373 56.8203 56.4667 56.8091C56.4813 56.8035 56.5119 56.7936 56.5636 56.7803C56.6659 56.7542 56.8157 56.7242 57.0132 56.6923C57.406 56.6289 57.9538 56.563 58.6162 56.5036C59.9395 56.3849 61.6968 56.2941 63.5422 56.2972C65.3896 56.3003 67.312 56.3973 68.9705 56.6503C70.6535 56.9071 71.9758 57.3124 72.6988 57.8731L73.3116 57.0829ZM55.9808 55.939C55.5832 56.1399 55.0115 56.5072 54.6389 56.9672C54.4516 57.1984 54.2798 57.4956 54.2495 57.8406C54.217 58.212 54.355 58.562 54.6465 58.8536L55.3536 58.1464C55.2451 58.038 55.242 57.9701 55.2457 57.928C55.2517 57.8596 55.2935 57.7478 55.4159 57.5967C55.6625 57.2922 56.094 57.0022 56.4318 56.8315L55.9808 55.939Z" fill="white"/>
<path d="M69.2637 58.4102H46.6368C45.9821 58.4102 45.4514 58.941 45.4514 59.5956V73.3076C45.4514 73.9623 45.9821 74.493 46.6368 74.493H69.2637C69.9184 74.493 70.4491 73.9623 70.4491 73.3076V59.5956C70.4491 58.941 69.9184 58.4102 69.2637 58.4102Z" stroke="white" stroke-miterlimit="10"/>
<path d="M55.521 60.7625H47.7173V68.7266H55.521V60.7625Z" stroke="white" stroke-miterlimit="10"/>
<path d="M48 68.5C51 68 50.909 66.146 50.909 66.146C51.1405 66.3502 51.44 66.4604 51.7486 66.4547C52.0598 66.4306 52.3555 66.3097 52.5944 66.1089C52.7303 67.1832 54.5 68.5 55.5 68.5" stroke="white" stroke-width="0.5" stroke-miterlimit="10"/>
<path d="M57.5891 62.1392H67.782" stroke="white" stroke-miterlimit="10"/>
<path d="M57.5891 65H67.782" stroke="white" stroke-miterlimit="10"/>
<path d="M57.5891 68H67.782" stroke="white" stroke-miterlimit="10"/>
<path d="M53.4623 64.1867C53.4623 64.6828 53.273 65.2578 52.9543 65.7061C52.634 66.1566 52.2162 66.4367 51.7754 66.4367C51.3322 66.4367 50.8979 66.154 50.5618 65.7018C50.2275 65.2521 50.0254 64.6783 50.0254 64.1867C50.0254 63.2202 50.8089 62.4367 51.7754 62.4367C52.7315 62.4367 53.4623 63.2096 53.4623 64.1867Z" stroke="white" stroke-width="0.5"/>
</g>
<defs>
<clipPath id="clip0_1398_1352">
<rect width="80" height="80" fill="white"/>
</clipPath>
</defs>
</svg>
