<svg width="231" height="238" viewBox="0 0 231 238" fill="none" xmlns="http://www.w3.org/2000/svg">
<g clip-path="url(#clip0_1604_1164)">
<path d="M100.328 146.035L95.5967 177.216C95.3292 179.126 94.6068 180.944 93.4904 182.516C92.374 184.088 90.8964 185.369 89.182 186.25L48.7168 206.516L193.656 207.671L163.808 190.826C161.149 189.298 158.855 187.208 157.086 184.702C155.316 182.196 154.113 179.335 153.561 176.316L148.04 147.123L100.328 146.035Z" fill="#E3DDD6"/>
<path d="M99.083 154.241C99.083 154.241 104.474 167.716 123.978 167.374C143.482 167.033 149.493 154.294 149.493 154.294L99.083 154.241Z" fill="#B0AAA6"/>
<path d="M168.064 97.5428C168.064 97.5428 176.681 97.1578 177.071 104.179C177.46 111.201 167.453 119.691 167.453 119.691L168.064 97.5428Z" fill="#E3DDD6"/>
<path d="M80.911 98.1781C80.911 98.1781 72.366 97.0182 71.3465 103.953C70.3271 110.888 80.7571 119.128 80.7571 119.128L80.911 98.1781Z" fill="#E3DDD6"/>
<path d="M79.8677 101.547V113.954C79.8677 113.954 81.9931 137.642 97.8714 153.1C113.75 168.558 134.672 162.008 140.972 158.919C147.271 155.829 156.98 152.234 164.419 133.893C171.858 115.552 166.929 83.0279 166.929 83.0279C166.929 83.0279 165.159 54.6332 151.748 51.0189C138.337 47.4046 108.951 43.7999 96.0345 54.1183C83.1184 64.4366 79.8677 101.547 79.8677 101.547Z" fill="#E1DCD4"/>
<path d="M123.872 102.702L119.256 128.729L124.199 131.539L123.872 102.702Z" fill="#B0AAA6"/>
<path d="M26.2026 232.109H231L220.575 218.836L165.833 188.762C165.833 188.762 152.69 204.105 125.988 204.85C99.2851 205.596 81.7478 187.669 81.7478 187.669L75.6841 192.583V220.232C75.6841 220.232 75.6841 224.347 71.5438 225.107H32.3145C31.7929 225.468 31.2519 225.801 30.694 226.103C29.588 228.37 28.0642 230.408 26.2026 232.109Z" fill="#FF5A28"/>
<path d="M101.771 108.617C103.941 108.617 105.7 106.856 105.7 104.685C105.7 102.513 103.941 100.753 101.771 100.753C99.6015 100.753 97.8425 102.513 97.8425 104.685C97.8425 106.856 99.6015 108.617 101.771 108.617Z" fill="#333333"/>
<path d="M141.924 108.617C144.094 108.617 145.853 106.856 145.853 104.685C145.853 102.513 144.094 100.753 141.924 100.753C139.754 100.753 137.995 102.513 137.995 104.685C137.995 106.856 139.754 108.617 141.924 108.617Z" fill="#333333"/>
<path d="M115.12 144.201C115.12 144.201 126.536 143.605 132.21 140.919C132.21 140.919 129.941 145.496 123.665 145.972C117.39 146.449 115.12 144.201 115.12 144.201Z" fill="#F2F2F2"/>
<path d="M64.5663 72.9598C62.5081 56.6208 64.1575 52.4049 69.7741 44.2283C75.3906 36.0516 80.156 34.6511 85.7149 33.8377C91.2737 33.0244 96.1738 26.9508 96.1738 26.9508C96.1738 26.9508 102.064 21.4259 105.955 19.7319C133.316 6.54039 143.02 17.263 157.033 24.3905C171.045 31.518 184.231 54.1616 181.826 73.9127C179.422 93.6638 172.06 103.924 167.823 108.184C162.221 104.435 161.457 94.121 161.457 94.121L155.773 81.3338L143.208 82.407C116.442 85.7759 105.955 68.4022 105.955 68.4022C105.955 68.4022 105.185 79.8178 92.8462 82.614C90.1533 83.6679 84.7003 84.2454 83.6039 92.3596C82.9348 96.9972 82.8057 101.697 83.2192 106.364L81.6323 115.658C81.6323 115.658 67.413 95.5119 64.5663 72.9598Z" fill="#333333"/>
<path d="M70.7695 225.107H28.8906C27.6033 225.099 26.3712 224.582 25.4631 223.669C24.555 222.756 24.0447 221.52 24.0435 220.232V137.801C24.0435 136.507 24.5565 135.267 25.4699 134.352C26.3833 133.437 27.6223 132.922 28.9147 132.921H70.7936C72.0868 132.921 73.327 133.435 74.2414 134.35C75.1559 135.265 75.6696 136.506 75.6696 137.801V220.232C75.669 220.874 75.5416 221.51 75.2948 222.103C75.0479 222.696 74.6865 223.235 74.2313 223.688C73.776 224.141 73.2358 224.499 72.6418 224.743C72.0477 224.986 71.4115 225.11 70.7695 225.107Z" fill="#6E6E6E"/>
<path d="M69.5144 224.043H27.6355C26.3423 224.043 25.1021 223.529 24.1877 222.614C23.2732 221.699 22.7595 220.458 22.7595 219.163V136.732C22.7633 135.44 23.2787 134.203 24.1928 133.291C25.1068 132.379 26.3448 131.867 27.6355 131.867H69.5144C70.806 131.868 72.0442 132.382 72.9575 133.296C73.8708 134.21 74.3844 135.449 74.3857 136.742V219.163C74.3857 220.457 73.8726 221.697 72.9592 222.612C72.0458 223.527 70.8068 224.042 69.5144 224.043Z" fill="#AEABAB"/>
<path d="M41.8117 139.442H34.8679C32.1298 139.442 29.9102 141.663 29.9102 144.404C29.9102 147.144 32.1298 149.365 34.8679 149.365H41.8117C44.5498 149.365 46.7694 147.144 46.7694 144.404C46.7694 141.663 44.5498 139.442 41.8117 139.442Z" fill="#CCCCCC"/>
<path d="M51.8858 203.95C44.0091 206.241 37.7434 209.1 37.8059 209.283C37.8348 209.374 39.3207 208.96 41.7298 208.287C45.2882 207.29 48.2312 206.391 50.3855 205.712C54.6171 204.98 57.8197 204.355 60.0028 203.912C61.6667 203.57 63.4555 203.195 64.2297 204.105C65.0039 205.014 64.3884 206.612 64.1864 207.165C62.4649 211.978 53.6602 213.99 51.2414 214.5L39.9458 220.419L30.6939 226.098C30.6939 226.098 24.7215 239.877 7.21301 237.783C-1.13489 236.782 0.057671 230.252 0.057671 230.252C5.15489 220.145 12.4689 210.284 18.1095 203.363C23.5355 196.716 30.7336 191.745 38.8686 189.026C40.6936 188.372 42.5645 187.854 44.466 187.477C48.135 186.914 63.2199 185.643 64.0085 188.54C64.3756 189.901 64.1995 191.351 63.5175 192.585C62.8355 193.818 61.701 194.737 60.3539 195.148C60.5895 195.1 63.1525 194.609 64.3499 196.111C64.8156 196.723 65.0213 197.494 64.9221 198.257C64.5038 201.053 58.3967 202.059 51.8858 203.95Z" fill="#E1DCD4"/>
<path d="M64.1864 190.287C64.1864 190.287 62.5659 193.363 60.2818 193.993C58.493 194.474 51.7416 195.158 45.8557 196.539C44.0909 196.948 35.3776 200.197 33.834 201.14L47.4474 197.097L60.1904 195.201C61.2935 194.917 62.2766 194.286 62.9957 193.402C63.7148 192.518 64.1321 191.426 64.1864 190.287Z" fill="#AEABAB"/>
<path d="M41.7586 148.504C44.0213 148.504 45.8556 146.668 45.8556 144.404C45.8556 142.139 44.0213 140.303 41.7586 140.303C39.4959 140.303 37.6616 142.139 37.6616 144.404C37.6616 146.668 39.4959 148.504 41.7586 148.504Z" fill="#545454"/>
<path d="M231 232.133L216.444 232.36L213.506 224.135C213.506 224.135 208.394 217.257 203.586 216.728C201.907 216.477 200.242 216.138 198.599 215.713C192.92 214.341 184.524 211.968 180.389 210.698C179.042 210.284 178.21 209.783 177.725 209.124C177.235 208.384 177.006 207.502 177.075 206.617C177.075 205.173 178.744 204.547 180.139 204.571L196.32 204.783C196.32 204.783 196.488 204.706 196.772 204.542C198.397 203.604 203.898 199.913 204.591 192.419C204.966 188.41 206.081 182.255 204.038 178.463C201.595 173.9 195.724 171.961 193.497 171.095L187.294 170.902L180.408 170.685C180.167 170.678 179.931 170.622 179.712 170.522C179.493 170.422 179.297 170.28 179.134 170.103C178.794 169.743 178.606 169.265 178.609 168.77C178.609 166.484 180.47 162.932 182.678 162.995L198.489 163.476C198.489 163.476 215.362 168.443 219.277 177.794C223.734 188.507 230.914 211.915 231.015 212.353L231 232.133Z" fill="#E9E4DF"/>
<path d="M198.359 170.204H146.333C144.99 170.204 143.9 171.294 143.9 172.639V205.447C143.9 206.792 144.99 207.882 146.333 207.882H198.359C199.702 207.882 200.792 206.792 200.792 205.447V172.639C200.792 171.294 199.702 170.204 198.359 170.204Z" fill="#F0EFEF"/>
<path opacity="0.52" d="M200.792 202.29V205.818C200.821 206.631 199.527 207.882 198.637 207.882H146.064C145.256 207.882 143.9 206.8 143.9 205.808V202.29H200.792Z" fill="#AAAAAA"/>
<path d="M164.327 174.56H146.699V192.463H164.327V174.56Z" fill="white"/>
<path d="M154.003 185.932L153.642 188.3C153.623 188.444 153.569 188.581 153.486 188.7C153.402 188.819 153.291 188.916 153.162 188.983L150.089 190.518L161.091 190.61L158.826 189.33C158.623 189.215 158.449 189.056 158.314 188.866C158.179 188.675 158.088 188.457 158.047 188.228L157.629 186.014L154.003 185.932Z" fill="#E3DDD6"/>
<path d="M153.907 186.553C153.907 186.553 154.316 187.577 155.797 187.548C157.278 187.519 157.72 186.558 157.72 186.558L153.907 186.553Z" fill="#B0AAA6"/>
<path d="M159.168 182.25C159.168 182.25 159.822 182.221 159.851 182.756C159.879 183.29 159.12 183.93 159.12 183.93L159.168 182.25Z" fill="#E3DDD6"/>
<path d="M152.527 182.298C152.527 182.298 151.878 182.212 151.801 182.736C151.724 183.261 152.517 183.891 152.517 183.891L152.527 182.298Z" fill="#E3DDD6"/>
<path d="M152.436 182.553V183.516C152.563 184.626 153.042 185.666 153.801 186.485C155.003 187.66 156.595 187.164 157.071 186.928C157.49 186.764 157.867 186.509 158.174 186.181C158.482 185.853 158.713 185.46 158.85 185.032C159.418 183.636 159.043 181.182 159.043 181.182C159.043 181.182 158.908 179.031 157.889 178.776C156.869 178.52 154.638 178.227 153.662 179.007C152.686 179.786 152.436 182.553 152.436 182.553Z" fill="#E1DCD4"/>
<path d="M155.787 182.64L155.436 184.618L155.811 184.83L155.787 182.64Z" fill="#B0AAA6"/>
<path d="M154.696 179.632C154.696 179.632 155.152 180.97 157.225 181.047C157.706 181.086 158.047 181.105 158.047 181.105C158.047 181.105 158.98 181.201 158.927 181.909C158.913 182.467 158.956 183.025 159.057 183.574C159.538 182.799 160.144 182.337 160.471 180.508C160.621 179.71 160.541 178.886 160.239 178.133C159.938 177.379 159.428 176.727 158.769 176.254C157.557 175.363 156.605 175.238 155.797 175.546C155.273 175.707 154.776 175.947 154.325 176.259C154.038 176.448 153.707 176.56 153.364 176.586C152.864 176.621 152.385 176.8 151.984 177.1C151.584 177.4 151.278 177.81 151.103 178.28C150.575 179.68 152.176 182.308 152.445 183.203C152.714 182.27 152.354 181.807 153.219 180.893C153.902 180.224 154.518 180.08 154.696 179.632Z" fill="#333333"/>
<path d="M147.252 192.463L147.925 191.568L152.835 188.959C153.731 189.595 154.822 189.896 155.917 189.811C157.941 189.753 158.735 189.041 158.735 189.041L163.13 191.447L163.919 192.458L147.252 192.463Z" fill="#FF5A28"/>
<path d="M154.109 183.092C154.274 183.092 154.407 182.959 154.407 182.794C154.407 182.629 154.274 182.496 154.109 182.496C153.944 182.496 153.811 182.629 153.811 182.794C153.811 182.959 153.944 183.092 154.109 183.092Z" fill="#333333"/>
<path d="M157.158 183.092C157.322 183.092 157.456 182.959 157.456 182.794C157.456 182.629 157.322 182.496 157.158 182.496C156.993 182.496 156.859 182.629 156.859 182.794C156.859 182.959 156.993 183.092 157.158 183.092Z" fill="#333333"/>
<path d="M155.321 185.792C155.763 185.771 156.2 185.686 156.619 185.542C156.551 185.655 156.456 185.749 156.343 185.816C156.23 185.883 156.102 185.921 155.97 185.927C155.858 185.948 155.743 185.947 155.632 185.924C155.521 185.901 155.415 185.856 155.321 185.792Z" fill="#F2F2F2"/>
<path d="M196.426 193.199H186.64C185.702 193.199 184.942 193.96 184.942 194.898V203.811C184.942 204.749 185.702 205.51 186.64 205.51H196.426C197.363 205.51 198.123 204.749 198.123 203.811V194.898C198.123 193.96 197.363 193.199 196.426 193.199Z" fill="white"/>
<path d="M186.871 195.326H188.265V203.094H186.871V195.326Z" fill="#FF5A28"/>
<path d="M189.991 195.326H192.718C195.276 195.326 197.075 196.929 197.075 199.176C197.075 201.424 195.276 203.055 192.718 203.055H189.991V195.326ZM192.877 201.799C194.512 201.799 195.661 200.716 195.661 199.196C195.661 197.675 194.512 196.602 192.877 196.602H191.434V201.799H192.877Z" fill="#FF5A28"/>
<path d="M192.857 184.397H168.689V185.691H192.857V184.397Z" fill="#B7B8BA"/>
<path d="M192.857 181.076H168.689V182.371H192.857V181.076Z" fill="#B7B8BA"/>
<path d="M192.857 187.823H168.689V189.118H192.857V187.823Z" fill="#B7B8BA"/>
<path d="M179.686 191.255H168.689V192.549H179.686V191.255Z" fill="#B7B8BA"/>
<path d="M151.257 203.575C150.881 203.574 150.515 203.452 150.214 203.225C149.913 202.999 149.694 202.681 149.589 202.319H146.665V203.941C146.664 204.05 146.686 204.159 146.727 204.26C146.769 204.362 146.83 204.454 146.907 204.531C146.985 204.608 147.077 204.67 147.178 204.711C147.279 204.753 147.388 204.774 147.497 204.773H154.989C155.21 204.773 155.421 204.686 155.577 204.53C155.733 204.373 155.821 204.162 155.821 203.941V202.319H152.916C152.813 202.68 152.596 202.998 152.296 203.224C151.997 203.451 151.633 203.574 151.257 203.575Z" fill="#FF5A28"/>
<path d="M155.003 198.892H147.511C147.401 198.89 147.291 198.911 147.189 198.952C147.086 198.993 146.993 199.054 146.914 199.131C146.835 199.209 146.772 199.301 146.73 199.403C146.687 199.505 146.665 199.614 146.665 199.725V201.347H149.574C149.68 200.986 149.899 200.669 150.199 200.444C150.5 200.219 150.865 200.097 151.241 200.097C151.616 200.097 151.981 200.219 152.282 200.444C152.582 200.669 152.801 200.986 152.907 201.347H155.821V199.725C155.82 199.507 155.734 199.298 155.581 199.143C155.428 198.987 155.221 198.897 155.003 198.892Z" fill="#FF5A28"/>
<path d="M151.257 202.868C151.828 202.868 152.291 202.404 152.291 201.833C152.291 201.261 151.828 200.798 151.257 200.798C150.686 200.798 150.223 201.261 150.223 201.833C150.223 202.404 150.686 202.868 151.257 202.868Z" fill="#FF5A28"/>
</g>
<defs>
<clipPath id="clip0_1604_1164">
<rect width="231" height="238" fill="white"/>
</clipPath>
</defs>
</svg>
