<svg width="109" height="80" viewBox="0 0 109 80" fill="none" xmlns="http://www.w3.org/2000/svg">
<g clip-path="url(#clip0_1398_1175)">
<path d="M68.436 75.827H6.7078C5.06731 75.8253 3.49449 75.1713 2.33449 74.0085C1.17449 72.8457 0.522066 71.2691 0.520386 69.6247V15.8588C0.520386 14.2138 1.17227 12.6363 2.33264 11.4731C3.493 10.31 5.06679 9.6565 6.7078 9.6565H93.0968C93.9095 9.65566 94.7145 9.81552 95.4656 10.1269C96.2166 10.4383 96.8991 10.8951 97.4738 11.4712C98.0485 12.0473 98.5042 12.7314 98.8149 13.4843C99.1255 14.2372 99.285 15.0441 99.2842 15.8588V49.0649" stroke="#2B2B2B" stroke-miterlimit="10"/>
<path d="M38.3048 18.187H7.49469V49.7074H38.3048V18.187Z" stroke="#2B2B2B" stroke-miterlimit="10"/>
<path d="M16.8995 33.3652C16.963 33.4797 17.0264 33.5115 17.0264 33.3652C17.0264 32.4237 17.2232 30.2481 18.5051 29.3448C20.0979 28.2252 19.9266 28.6133 20.32 27.4364C20.3235 27.422 20.3307 27.4088 20.341 27.3981C20.3513 27.3875 20.3643 27.3798 20.3786 27.3759C20.3928 27.372 20.4079 27.372 20.4222 27.376C20.4364 27.3799 20.4494 27.3876 20.4597 27.3983C21.1245 28.0613 21.9183 28.5801 22.7917 28.9226C23.665 29.2652 24.5993 29.424 25.5365 29.3894C28.8111 29.2494 28.2463 29.5993 28.6334 31.1896C28.7217 31.5835 28.8384 31.9704 28.9824 32.3474C29.0903 32.6336 29.1094 32.7036 29.2426 32.4301C30.2158 30.7135 30.6761 28.7527 30.5689 26.7812C30.3595 22.5509 25.6825 20.2927 23.2202 20.2927C22.5612 20.2567 21.9018 20.3567 21.2829 20.5865C20.6639 20.8163 20.0986 21.1709 19.622 21.6286C18.8811 22.4713 17.8883 23.0515 16.7916 23.2825C14.8878 23.696 14.488 26.1006 15.1607 28.6324C15.5451 30.2753 16.129 31.8648 16.8995 33.3652V33.3652Z" stroke="#2B2B2B" stroke-miterlimit="10"/>
<path d="M28.8555 34.7329C29.579 34.6375 29.9471 33.8932 30.2326 32.7163C30.5182 31.5395 29.1538 32.2838 29.1538 32.2838C29.0967 32.9199 29.0332 33.6515 28.9 34.4657C28.4494 37.2202 27.2563 40.5917 23.2964 40.6235C18.1624 40.668 16.817 33.1998 16.817 33.1998C16.817 33.1998 16.0238 31.5904 15.7128 32.6782C15.2496 34.3003 17.2676 34.8919 17.2676 34.8919" stroke="#2B2B2B" stroke-miterlimit="10"/>
<path d="M20.0853 39.4911C20.0853 39.4911 19.7363 43.2506 17.9911 44.1794C19.5848 45.0958 21.3833 45.5947 23.2202 45.6298C25.7206 45.687 27.7069 45.2672 28.589 44.2367C27.5863 43.0853 27.3198 43.6005 26.755 39.2557C25.8172 40.0623 24.6437 40.5422 23.4106 40.6234C21.6845 40.8715 20.0853 39.4911 20.0853 39.4911Z" stroke="#2B2B2B" stroke-miterlimit="10"/>
<path d="M8.88446 49.7011L9.65233 48.4861L18.0101 44.1794C19.5926 45.1224 21.3983 45.6232 23.2393 45.6298C26.1394 45.5789 26.8565 45.4263 28.608 44.2367C29.9915 44.9682 36.3693 48.6896 36.3693 48.6896L36.9531 49.6947L8.88446 49.7011Z" stroke="#2B2B2B" stroke-miterlimit="10"/>
<path d="M46.7007 17.8562H47.9699C48.2184 17.8225 48.4712 17.8425 48.7113 17.9148C48.9515 17.9872 49.1734 18.1102 49.3622 18.2755C49.551 18.4409 49.7024 18.6449 49.8061 18.8738C49.9098 19.1026 49.9634 19.3511 49.9634 19.6024C49.9634 19.8538 49.9098 20.1022 49.8061 20.3311C49.7024 20.5599 49.551 20.7639 49.3622 20.9293C49.1734 21.0947 48.9515 21.2177 48.7113 21.29C48.4712 21.3623 48.2184 21.3823 47.9699 21.3486H46.7007V17.8562ZM48.0461 20.6679C48.1925 20.6793 48.3398 20.6602 48.4786 20.6118C48.6174 20.5634 48.7447 20.4867 48.8525 20.3867C48.9603 20.2866 49.0463 20.1653 49.1052 20.0304C49.164 19.8954 49.1944 19.7497 49.1944 19.6024C49.1944 19.4551 49.164 19.3094 49.1052 19.1745C49.0463 19.0395 48.9603 18.9182 48.8525 18.8181C48.7447 18.7181 48.6174 18.6415 48.4786 18.5931C48.3398 18.5447 48.1925 18.5255 48.0461 18.5369H47.4432V20.6679H48.0461Z" fill="#2B2B2B"/>
<path d="M52.6279 21.3486L51.8346 20.2163H51.2762V21.3486H50.5337V17.8562H52.1012C52.266 17.8423 52.432 17.8623 52.5888 17.9151C52.7457 17.9679 52.8901 18.0523 53.0131 18.1632C53.1362 18.274 53.2353 18.409 53.3044 18.5597C53.3735 18.7103 53.4111 18.8736 53.4148 19.0394C53.4173 19.2822 53.3414 19.5194 53.1984 19.7154C53.0555 19.9114 52.8531 20.0559 52.6215 20.1272L53.4783 21.3486H52.6279ZM51.2762 19.5293H52.0377C52.4058 19.5293 52.6723 19.3384 52.6723 19.0394C52.6723 18.7404 52.4121 18.5432 52.0377 18.5432H51.2762V19.5293Z" fill="#2B2B2B"/>
<path d="M53.986 17.8562H54.7348V21.3486H53.986V17.8562Z" fill="#2B2B2B"/>
<path d="M58.8343 17.8562L57.4128 21.3486H56.5751L55.1536 17.8562H55.9976L56.994 20.318L57.9967 17.8562H58.8343Z" fill="#2B2B2B"/>
<path d="M59.2532 17.8562H60.0084V21.3486H59.2532V17.8562Z" fill="#2B2B2B"/>
<path d="M60.7318 17.8562H61.4806L63.156 20.1145V17.8562H63.9112V21.3486H63.156L61.4806 19.0839V21.3422H60.7318V17.8562Z" fill="#2B2B2B"/>
<path d="M66.2275 19.3893H67.7696V20.827C67.3948 21.1998 66.8888 21.41 66.3608 21.4122C66.1147 21.4268 65.8682 21.3909 65.6365 21.3065C65.4047 21.2222 65.1927 21.0913 65.0132 20.9218C64.8338 20.7523 64.6909 20.5478 64.5932 20.3209C64.4955 20.094 64.4451 19.8495 64.4451 19.6024C64.4451 19.3553 64.4955 19.1108 64.5932 18.8839C64.6909 18.657 64.8338 18.4525 65.0132 18.283C65.1927 18.1135 65.4047 17.9826 65.6365 17.8983C65.8682 17.8139 66.1147 17.778 66.3608 17.7926C66.8888 17.7948 67.3948 18.005 67.7696 18.3779L67.2302 18.8677C67.1187 18.7478 66.9842 18.6517 66.8348 18.585C66.6855 18.5184 66.5243 18.4825 66.3608 18.4796C66.0629 18.4796 65.7772 18.5983 65.5665 18.8094C65.3559 19.0206 65.2375 19.307 65.2375 19.6056C65.2375 19.9042 65.3559 20.1906 65.5665 20.4018C65.7772 20.6129 66.0629 20.7315 66.3608 20.7315C66.6046 20.729 66.8417 20.6513 67.0398 20.5089V19.9745H66.2275V19.3893Z" fill="#2B2B2B"/>
<path d="M72.2817 20.6743V21.3486H69.8067V17.8562H70.5555V20.6743H72.2817Z" fill="#2B2B2B"/>
<path d="M72.7767 17.8562H73.5255V21.3486H72.7767V17.8562Z" fill="#2B2B2B"/>
<path d="M74.084 19.5993C74.1021 19.1189 74.3052 18.6642 74.6508 18.3309C74.9964 17.9975 75.4574 17.8114 75.937 17.8118C76.1898 17.8145 76.4395 17.8676 76.6716 17.9681C76.9037 18.0686 77.1135 18.2144 77.2888 18.397L76.7493 18.8868C76.6495 18.7677 76.5253 18.6714 76.3852 18.6044C76.2451 18.5375 76.0923 18.5015 75.937 18.4988C75.6391 18.4988 75.3534 18.6174 75.1428 18.8286C74.9321 19.0397 74.8138 19.3261 74.8138 19.6247C74.8138 19.9234 74.9321 20.2098 75.1428 20.4209C75.3534 20.6321 75.6391 20.7507 75.937 20.7507C76.0927 20.7468 76.2457 20.7096 76.3858 20.6416C76.5259 20.5736 76.6498 20.4763 76.7493 20.3563L77.2888 20.8461C77.1135 21.0287 76.9037 21.1745 76.6716 21.275C76.4395 21.3755 76.1898 21.4287 75.937 21.4314C75.4499 21.4314 74.9824 21.2392 74.6356 20.8963C74.2888 20.5535 74.0907 20.0875 74.084 19.5993Z" fill="#2B2B2B"/>
<path d="M78.5071 18.5305V19.2302H80.2586V19.9045H78.5071V20.6743H80.4109V21.3486H77.7266V17.8562H80.4109V18.5305H78.5071Z" fill="#2B2B2B"/>
<path d="M81.0392 17.8562H81.7881L83.4634 20.1145V17.8562H84.2186V21.3486H83.4634L81.7881 19.0839V21.3422H81.0392V17.8562Z" fill="#2B2B2B"/>
<path d="M84.7073 20.8334L85.1388 20.3181C85.4515 20.6087 85.8611 20.772 86.2874 20.7761C86.6619 20.7761 86.8586 20.6044 86.8586 20.3817C86.8586 20.1591 86.6555 20.0573 86.1225 19.9364C85.3863 19.771 84.8532 19.5611 84.8532 18.8804C84.861 18.7239 84.9005 18.5706 84.9695 18.43C85.0384 18.2893 85.1352 18.1642 85.254 18.0624C85.3728 17.9606 85.5111 17.8841 85.6605 17.8377C85.8098 17.7913 85.967 17.776 86.1225 17.7926C86.6212 17.7792 87.1073 17.9514 87.4869 18.2761L87.0934 18.8168C86.8142 18.579 86.4632 18.4423 86.0971 18.4288C85.7798 18.4288 85.5894 18.6005 85.5894 18.8041C85.5894 19.0077 85.7924 19.1412 86.3319 19.2621C87.0807 19.4339 87.6011 19.6565 87.6011 20.3054C87.6011 20.9542 87.0997 21.4122 86.243 21.4122C85.6766 21.4203 85.1281 21.2135 84.7073 20.8334Z" fill="#2B2B2B"/>
<path d="M88.902 18.5305V19.2302H90.6535V19.9045H88.902V20.6743H90.8058V21.3486H88.1215V17.8562H90.8058V18.5305H88.902Z" fill="#2B2B2B"/>
<path d="M90.8376 26.8829H46.7007V29.0203H90.8376V26.8829Z" stroke="#2B2B2B" stroke-miterlimit="10"/>
<path d="M90.8376 33.7786H46.7007V35.916H90.8376V33.7786Z" stroke="#2B2B2B" stroke-miterlimit="10"/>
<path d="M90.8376 40.6743H46.7007V42.8117H90.8376V40.6743Z" stroke="#2B2B2B" stroke-miterlimit="10"/>
<path d="M68.3788 47.5699H46.7007V49.7074H68.3788V47.5699Z" stroke="#2B2B2B" stroke-miterlimit="10"/>
<path d="M40.71 1.27229V2.61453H43.7878V3.81682H40.71V6.22776H39.39V0.101807H44.0925V1.27229H40.71Z" fill="#2B2B2B"/>
<path d="M48.6934 6.22783L47.2972 4.23674H46.3263V6.22783H45.0571V0.101879H47.8049C48.0934 0.077523 48.3838 0.112487 48.6583 0.204628C48.9329 0.296769 49.1857 0.444145 49.4014 0.63772C49.6171 0.831295 49.7911 1.06699 49.9127 1.33036C50.0343 1.59372 50.1009 1.87921 50.1085 2.16931C50.1105 2.59447 49.9766 3.00909 49.7266 3.35249C49.4765 3.69589 49.1233 3.95003 48.7187 4.07771L50.2228 6.22147L48.6934 6.22783ZM46.3263 3.03445H47.5955C48.2301 3.03445 48.6934 2.6973 48.6934 2.16931C48.6934 1.64132 48.2491 1.30417 47.5955 1.30417H46.3263V3.03445Z" fill="#2B2B2B"/>
<path d="M50.8066 3.18072C50.8436 2.34264 51.2017 1.55119 51.8064 0.971251C52.4111 0.391315 53.2157 0.067627 54.0526 0.067627C54.8895 0.067627 55.6941 0.391315 56.2988 0.971251C56.9035 1.55119 57.2616 2.34264 57.2986 3.18072C57.2616 4.01879 56.9035 4.81025 56.2988 5.39019C55.6941 5.97012 54.8895 6.29381 54.0526 6.29381C53.2157 6.29381 52.4111 5.97012 51.8064 5.39019C51.2017 4.81025 50.8436 4.01879 50.8066 3.18072ZM55.9532 3.18072C55.9395 2.80656 55.8164 2.44471 55.599 2.14021C55.3817 1.83571 55.0798 1.60203 54.7309 1.46826C54.3821 1.33449 54.0016 1.30654 53.6371 1.38789C53.2725 1.46924 52.9398 1.65629 52.6805 1.92576C52.4212 2.19523 52.2467 2.53521 52.1787 2.90337C52.1107 3.27153 52.1523 3.6516 52.2982 3.99625C52.4441 4.34091 52.6879 4.63493 52.9993 4.84169C53.3107 5.04846 53.6759 5.15884 54.0494 5.15909C54.5617 5.14414 55.0478 4.92872 55.4037 4.55895C55.7595 4.18919 55.9568 3.69447 55.9532 3.18072Z" fill="#2B2B2B"/>
<path d="M58.314 0.101807H59.653L62.5976 4.05855V0.101807H63.9112V6.22776H62.5658L59.653 2.27102V6.22776H58.314V0.101807Z" fill="#2B2B2B"/>
<path d="M66.7225 1.27229H64.8187V0.101807H69.9399V1.27229H68.0361V6.22776H66.7225V1.27229Z" fill="#2B2B2B"/>
<path d="M0.317322 65.986H68.1631" stroke="#2B2B2B" stroke-miterlimit="10"/>
<path d="M89.5 54.0011L97.5 54.1284C97.5 54.1284 98.9698 54.1284 99.6996 55.7123C100.429 57.2963 101.5 60.0011 101.5 60.0011H77C77 60.0011 78.2702 57.0978 79 55.5011C79.7298 53.9044 81 54.0011 81 54.0011H89.0811H89.5Z" stroke="#2B2B2B" stroke-miterlimit="10"/>
<path d="M89.9428 76.2914H103.644C104.422 76.3118 105.182 76.0549 105.789 75.5662C106.234 75.1871 106.562 74.6883 106.735 74.1285C106.735 74.1285 107.21 71.7176 107.477 69.2685C107.67 67.9447 107.512 66.5934 107.02 65.3499C107.02 65.3499 102.273 55.5026 101.087 53.4352C99.8998 51.3677 98.1356 51.4759 98.1356 51.4759H80.4745C80.4745 51.4759 78.6912 51.3486 77.5299 53.4352C76.3686 55.5217 71.59 65.3563 71.59 65.3563C71.1017 66.6008 70.9463 67.9516 71.1394 69.2749C71.406 71.724 71.8756 74.1349 71.8756 74.1349C72.0516 74.6944 72.3815 75.1927 72.8275 75.5726C73.4332 76.0632 74.194 76.3204 74.9725 76.2978H89.9428V76.2914Z" stroke="#2B2B2B" stroke-miterlimit="10"/>
<path d="M80.8351 67.7303L80.1737 66.2941C80.1737 66.2941 79.9157 65.5587 78.7704 65.1909L75.0926 64.0323C74.9038 63.9722 74.7049 63.9965 74.5281 64.101C74.3514 64.2056 74.2073 64.3844 74.1194 64.6081C73.8774 65.2603 73.8989 66.4606 75.1948 68.556C75.2605 68.6587 75.3425 68.7422 75.4352 68.8008C75.5279 68.8594 75.6293 68.8919 75.7325 68.8959C79.0984 69 80.2168 69 80.2168 69C80.2168 69 81.4319 69.0069 80.8351 67.7303Z" stroke="#2B2B2B" stroke-miterlimit="10"/>
<path d="M97.1649 67.7303L97.8263 66.2941C97.8263 66.2941 98.0843 65.5587 99.2296 65.1909L102.907 64.0323C103.096 63.9722 103.295 63.9965 103.472 64.101C103.649 64.2056 103.793 64.3844 103.881 64.6081C104.123 65.2603 104.101 66.4606 102.805 68.556C102.739 68.6587 102.658 68.7422 102.565 68.8008C102.472 68.8594 102.371 68.8919 102.268 68.8959C98.9016 69 97.7832 69 97.7832 69C97.7832 69 96.5681 69.0069 97.1649 67.7303Z" stroke="#2B2B2B" stroke-miterlimit="10"/>
<path d="M89.0804 69C90.7218 68.9357 92.3588 68.7758 93.9845 68.5212C95.0456 68.4092 94.9997 67.6692 94.9997 67.6692L94.8334 66.7986C94.8072 66.665 94.7564 66.5385 94.6838 66.4269C94.6112 66.3153 94.5184 66.2208 94.4111 66.1493C94.3038 66.0778 94.1842 66.0306 94.0596 66.0107C93.935 65.9909 93.808 65.9987 93.6862 66.0337C92.174 66.3441 90.6363 66.4837 89.0976 66.4503H88.9025C87.3638 66.4837 85.8261 66.3441 84.3139 66.0337C84.1921 65.9987 84.0651 65.9909 83.9405 66.0107C83.8159 66.0306 83.6963 66.0778 83.589 66.1493C83.4817 66.2208 83.3889 66.3153 83.3163 66.4269C83.2438 66.5385 83.1929 66.665 83.1667 66.7986L83.0004 67.6692C83.0004 67.6692 82.9488 68.4092 84.0156 68.5212C85.6413 68.7758 87.2783 68.9357 88.9198 69H89.0804Z" stroke="#2B2B2B" stroke-miterlimit="10"/>
<path d="M74.3569 59.6311C74.1786 59.6123 74.0119 59.5336 73.884 59.4076C73.756 59.2817 73.6744 59.1161 73.6525 58.9377C73.66 58.7462 73.5948 58.5589 73.4699 58.4136C73.3451 58.2684 73.1699 58.1761 72.9798 58.1553C72.7259 58.1553 70.7015 57.8181 70.2637 59.0141C70.1866 59.1488 70.1434 59.3003 70.138 59.4556C70.1326 59.6108 70.1651 59.765 70.2326 59.9048C70.3002 60.0446 70.4007 60.1657 70.5256 60.2577C70.6504 60.3497 70.7958 60.4097 70.949 60.4326L73.7032 61.0688L74.3569 59.6311Z" stroke="#2B2B2B" stroke-miterlimit="10"/>
<path d="M77.5172 76.2978V78.3907C77.5172 78.7281 77.3835 79.0517 77.1455 79.2903C76.9075 79.5289 76.5846 79.6629 76.248 79.6629H73.9698C73.6332 79.6629 73.3103 79.5289 73.0723 79.2903C72.8343 79.0517 72.7006 78.7281 72.7006 78.3907V75.4772" stroke="#2B2B2B" stroke-miterlimit="10"/>
<path d="M90.1525 71H95.3726C95.539 71 95.6986 71.0696 95.8162 71.1935C95.9339 71.3175 96 71.4855 96 71.6608V73.3392C96 73.5145 95.9339 73.6825 95.8162 73.8065C95.6986 73.9304 95.539 74 95.3726 74H83.6274C83.461 74 83.3014 73.9304 83.1838 73.8065C83.0661 73.6825 83 73.5145 83 73.3392V71.6608C83 71.4855 83.0661 71.3175 83.1838 71.1935C83.3014 71.0696 83.461 71 83.6274 71H90.1525Z" stroke="#2B2B2B" stroke-miterlimit="10"/>
<path d="M104.253 59.6311C104.432 59.6115 104.599 59.5326 104.728 59.407C104.856 59.2814 104.94 59.1162 104.964 58.9377C104.955 58.7407 105.024 58.5482 105.156 58.4017C105.288 58.2553 105.472 58.1668 105.668 58.1553C105.916 58.1553 107.94 57.8181 108.378 59.0141C108.456 59.1506 108.498 59.3041 108.502 59.4611C108.506 59.618 108.472 59.7736 108.401 59.9139C108.331 60.0542 108.227 60.175 108.099 60.2655C107.971 60.3559 107.823 60.4134 107.667 60.4326L104.913 61.0688L104.253 59.6311Z" stroke="#2B2B2B" stroke-miterlimit="10"/>
<path d="M101.093 76.2978V78.3907C101.093 78.7281 101.227 79.0517 101.465 79.2903C101.703 79.5289 102.025 79.6629 102.362 79.6629H104.64C104.971 79.6546 105.286 79.5169 105.517 79.2792C105.749 79.0415 105.878 78.7226 105.878 78.3907V75.4772" stroke="#2B2B2B" stroke-miterlimit="10"/>
</g>
<defs>
<clipPath id="clip0_1398_1175">
<rect width="109" height="80" fill="white"/>
</clipPath>
</defs>
</svg>
