<svg width="109" height="80" viewBox="0 0 109 80" fill="none" xmlns="http://www.w3.org/2000/svg">
<g clip-path="url(#clip0_1398_1372)">
<path d="M68.1694 75.827H6.44126C4.80026 75.827 3.22646 75.1735 2.0661 74.0104C0.905735 72.8472 0.253848 71.2696 0.253848 69.6247V15.8588C0.253014 15.0441 0.412486 14.2372 0.723137 13.4843C1.03379 12.7314 1.48952 12.0473 2.06424 11.4712C2.63896 10.8951 3.32139 10.4383 4.07245 10.1269C4.82352 9.81552 5.62848 9.65566 6.44126 9.6565H92.8302C94.4679 9.66155 96.0368 10.3172 97.1931 11.4798C98.3493 12.6424 98.9986 14.2171 98.9986 15.8588V49.0649" stroke="#2B2B2B" stroke-miterlimit="10"/>
<path d="M89.5 54.0011L97.5 54.1284C97.5 54.1284 98.9698 54.1284 99.6996 55.7123C100.429 57.2963 101.5 60.0011 101.5 60.0011H77C77 60.0011 78.2702 57.0978 79 55.5011C79.7298 53.9044 81 54.0011 81 54.0011H89.0811H89.5Z" stroke="#2B2B2B" stroke-miterlimit="10"/>
<path d="M89.9428 76.2914H103.644C104.422 76.3118 105.182 76.0549 105.789 75.5662C106.234 75.1871 106.562 74.6883 106.735 74.1285C106.735 74.1285 107.21 71.7176 107.477 69.2685C107.67 67.9447 107.512 66.5934 107.02 65.3499C107.02 65.3499 102.273 55.5026 101.087 53.4352C99.8998 51.3677 98.1356 51.4759 98.1356 51.4759H80.4745C80.4745 51.4759 78.6912 51.3486 77.5299 53.4352C76.3686 55.5217 71.59 65.3563 71.59 65.3563C71.1017 66.6008 70.9463 67.9516 71.1394 69.2749C71.406 71.724 71.8756 74.1349 71.8756 74.1349C72.0516 74.6944 72.3815 75.1927 72.8275 75.5726C73.4332 76.0632 74.194 76.3204 74.9725 76.2978H89.9428V76.2914Z" stroke="#2B2B2B" stroke-miterlimit="10"/>
<path d="M80.8351 67.7303L80.1737 66.2941C80.1737 66.2941 79.9157 65.5587 78.7704 65.1909L75.0926 64.0323C74.9038 63.9722 74.7049 63.9965 74.5281 64.101C74.3514 64.2056 74.2073 64.3844 74.1194 64.6081C73.8774 65.2603 73.8989 66.4606 75.1948 68.556C75.2605 68.6587 75.3425 68.7422 75.4352 68.8008C75.5279 68.8594 75.6293 68.8919 75.7325 68.8959C79.0984 69 80.2168 69 80.2168 69C80.2168 69 81.4319 69.0069 80.8351 67.7303Z" stroke="#2B2B2B" stroke-miterlimit="10"/>
<path d="M97.1649 67.7303L97.8263 66.2941C97.8263 66.2941 98.0843 65.5587 99.2296 65.1909L102.907 64.0323C103.096 63.9722 103.295 63.9965 103.472 64.101C103.649 64.2056 103.793 64.3844 103.881 64.6081C104.123 65.2603 104.101 66.4606 102.805 68.556C102.739 68.6587 102.658 68.7422 102.565 68.8008C102.472 68.8594 102.371 68.8919 102.268 68.8959C98.9016 69 97.7832 69 97.7832 69C97.7832 69 96.5681 69.0069 97.1649 67.7303Z" stroke="#2B2B2B" stroke-miterlimit="10"/>
<path d="M89.0804 69C90.7218 68.9357 92.3588 68.7758 93.9845 68.5212C95.0456 68.4092 94.9997 67.6692 94.9997 67.6692L94.8334 66.7986C94.8072 66.665 94.7564 66.5385 94.6838 66.4269C94.6112 66.3153 94.5184 66.2208 94.4111 66.1493C94.3038 66.0778 94.1842 66.0306 94.0596 66.0107C93.935 65.9909 93.808 65.9987 93.6862 66.0337C92.174 66.3441 90.6363 66.4837 89.0976 66.4503H88.9025C87.3638 66.4837 85.8261 66.3441 84.3139 66.0337C84.1921 65.9987 84.0651 65.9909 83.9405 66.0107C83.8159 66.0306 83.6963 66.0778 83.589 66.1493C83.4817 66.2208 83.3889 66.3153 83.3163 66.4269C83.2438 66.5385 83.1929 66.665 83.1667 66.7986L83.0004 67.6692C83.0004 67.6692 82.9488 68.4092 84.0156 68.5212C85.6413 68.7758 87.2783 68.9357 88.9198 69H89.0804Z" stroke="#2B2B2B" stroke-miterlimit="10"/>
<path d="M74.3569 59.6311C74.1786 59.6123 74.0119 59.5336 73.884 59.4076C73.756 59.2817 73.6744 59.1161 73.6525 58.9377C73.66 58.7462 73.5948 58.5589 73.4699 58.4136C73.3451 58.2684 73.1699 58.1761 72.9798 58.1553C72.7259 58.1553 70.7015 57.8181 70.2637 59.0141C70.1866 59.1488 70.1434 59.3003 70.138 59.4556C70.1326 59.6108 70.1651 59.765 70.2326 59.9048C70.3002 60.0446 70.4007 60.1657 70.5256 60.2577C70.6504 60.3497 70.7958 60.4097 70.949 60.4326L73.7032 61.0688L74.3569 59.6311Z" stroke="#2B2B2B" stroke-miterlimit="10"/>
<path d="M77.5172 76.2978V78.3907C77.5172 78.7281 77.3835 79.0517 77.1455 79.2903C76.9075 79.5289 76.5846 79.6629 76.248 79.6629H73.9698C73.6332 79.6629 73.3103 79.5289 73.0723 79.2903C72.8343 79.0517 72.7006 78.7281 72.7006 78.3907V75.4772" stroke="#2B2B2B" stroke-miterlimit="10"/>
<path d="M90.1525 71H95.3726C95.539 71 95.6986 71.0696 95.8162 71.1935C95.9339 71.3175 96 71.4855 96 71.6608V73.3392C96 73.5145 95.9339 73.6825 95.8162 73.8065C95.6986 73.9304 95.539 74 95.3726 74H83.6274C83.461 74 83.3014 73.9304 83.1838 73.8065C83.0661 73.6825 83 73.5145 83 73.3392V71.6608C83 71.4855 83.0661 71.3175 83.1838 71.1935C83.3014 71.0696 83.461 71 83.6274 71H90.1525Z" stroke="#2B2B2B" stroke-miterlimit="10"/>
<path d="M104.253 59.6311C104.432 59.6115 104.599 59.5326 104.728 59.407C104.856 59.2814 104.94 59.1162 104.964 58.9377C104.955 58.7407 105.024 58.5482 105.156 58.4017C105.288 58.2553 105.472 58.1668 105.668 58.1553C105.916 58.1553 107.94 57.8181 108.378 59.0141C108.456 59.1506 108.498 59.3041 108.502 59.4611C108.506 59.618 108.472 59.7736 108.401 59.9139C108.331 60.0542 108.227 60.175 108.099 60.2655C107.971 60.3559 107.823 60.4134 107.667 60.4326L104.913 61.0688L104.253 59.6311Z" stroke="#2B2B2B" stroke-miterlimit="10"/>
<path d="M101.093 76.2978V78.3907C101.093 78.7281 101.227 79.0517 101.465 79.2903C101.703 79.5289 102.025 79.6629 102.362 79.6629H104.64C104.971 79.6546 105.286 79.5169 105.517 79.2792C105.749 79.0415 105.878 78.7226 105.878 78.3907V75.4772" stroke="#2B2B2B" stroke-miterlimit="10"/>
<path d="M10.9406 17.8562H12.2098C12.4583 17.8225 12.7111 17.8425 12.9513 17.9148C13.1914 17.9872 13.4133 18.1102 13.6022 18.2755C13.791 18.4409 13.9423 18.6449 14.046 18.8738C14.1497 19.1026 14.2033 19.3511 14.2033 19.6024C14.2033 19.8538 14.1497 20.1022 14.046 20.3311C13.9423 20.5599 13.791 20.7639 13.6022 20.9293C13.4133 21.0947 13.1914 21.2177 12.9513 21.29C12.7111 21.3623 12.4583 21.3823 12.2098 21.3486H10.9406V17.8562ZM12.286 20.6679C12.4325 20.6793 12.5797 20.6602 12.7185 20.6118C12.8573 20.5634 12.9846 20.4867 13.0924 20.3867C13.2002 20.2866 13.2863 20.1653 13.3451 20.0304C13.4039 19.8954 13.4343 19.7497 13.4343 19.6024C13.4343 19.4551 13.4039 19.3094 13.3451 19.1745C13.2863 19.0395 13.2002 18.9182 13.0924 18.8181C12.9846 18.7181 12.8573 18.6415 12.7185 18.5931C12.5797 18.5447 12.4325 18.5255 12.286 18.5369H11.6831V20.6679H12.286Z" fill="#2B2B2B"/>
<path d="M16.8679 21.3486L16.0746 20.2163H15.5162V21.3486H14.7737V17.8562H16.3412C16.506 17.8423 16.672 17.8623 16.8288 17.9151C16.9857 17.9679 17.1301 18.0523 17.2531 18.1632C17.3762 18.274 17.4753 18.409 17.5444 18.5597C17.6135 18.7103 17.651 18.8736 17.6548 19.0394C17.6573 19.2822 17.5814 19.5194 17.4384 19.7154C17.2954 19.9114 17.0931 20.0559 16.8615 20.1272L17.7183 21.3486H16.8679ZM15.5162 19.5293H16.2587C16.6331 19.5293 16.8933 19.3384 16.8933 19.0394C16.8933 18.7404 16.6394 18.5432 16.2587 18.5432H15.5162V19.5293Z" fill="#2B2B2B"/>
<path d="M18.226 17.8562H18.9748V21.3486H18.226V17.8562Z" fill="#2B2B2B"/>
<path d="M23.0743 17.8562L21.6528 21.3486H20.8151L19.3936 17.8562H20.2376L21.2339 20.318L22.2112 17.8562H23.0743Z" fill="#2B2B2B"/>
<path d="M23.4805 17.8562H24.2356V21.3486H23.4805V17.8562Z" fill="#2B2B2B"/>
<path d="M24.9718 17.8562H25.7206L27.396 20.1145V17.8562H28.1512V21.3486H27.396L25.7206 19.0839V21.3422H24.9718V17.8562Z" fill="#2B2B2B"/>
<path d="M30.4612 19.3893H32.0033V20.827C31.6289 21.2004 31.1226 21.4107 30.5944 21.4122C30.3483 21.4268 30.1018 21.3909 29.8701 21.3065C29.6384 21.2222 29.4263 21.0913 29.2469 20.9218C29.0675 20.7523 28.9245 20.5478 28.8268 20.3209C28.7291 20.094 28.6787 19.8495 28.6787 19.6024C28.6787 19.3553 28.7291 19.1108 28.8268 18.8839C28.9245 18.657 29.0675 18.4525 29.2469 18.283C29.4263 18.1135 29.6384 17.9826 29.8701 17.8983C30.1018 17.8139 30.3483 17.778 30.5944 17.7926C31.1226 17.7941 31.6289 18.0044 32.0033 18.3779L31.4638 18.8677C31.3523 18.7478 31.2179 18.6517 31.0685 18.585C30.9191 18.5184 30.7579 18.4825 30.5944 18.4796C30.2965 18.4796 30.0108 18.5983 29.8002 18.8094C29.5895 19.0206 29.4712 19.307 29.4712 19.6056C29.4712 19.9042 29.5895 20.1906 29.8002 20.4018C30.0108 20.6129 30.2965 20.7315 30.5944 20.7315C30.8382 20.729 31.0753 20.6513 31.2735 20.5089V19.9745H30.4612V19.3893Z" fill="#2B2B2B"/>
<path d="M36.5216 20.6743V21.3486H34.0339V17.8562H34.7828V20.6743H36.5216Z" fill="#2B2B2B"/>
<path d="M37.0166 17.8562H37.7654V21.3486H37.0166V17.8562Z" fill="#2B2B2B"/>
<path d="M38.3239 19.5992C38.3419 19.1188 38.5451 18.6641 38.8907 18.3307C39.2363 17.9974 39.6973 17.8113 40.1769 17.8116C40.4297 17.8144 40.6794 17.8675 40.9115 17.968C41.1436 18.0685 41.3534 18.2143 41.5286 18.3969L40.9892 18.8867C40.8894 18.7676 40.7652 18.6713 40.6251 18.6043C40.4849 18.5374 40.3321 18.5013 40.1769 18.4987C39.879 18.4987 39.5933 18.6173 39.3826 18.8285C39.172 19.0396 39.0537 19.326 39.0537 19.6246C39.0537 19.9232 39.172 20.2096 39.3826 20.4208C39.5933 20.6319 39.879 20.7506 40.1769 20.7506C40.3325 20.7467 40.4855 20.7095 40.6256 20.6415C40.7657 20.5735 40.8897 20.4762 40.9892 20.3562L41.5286 20.846C41.3534 21.0286 41.1436 21.1744 40.9115 21.2749C40.6794 21.3754 40.4297 21.4285 40.1769 21.4312C39.6898 21.4313 39.2223 21.2391 38.8755 20.8962C38.5287 20.5533 38.3305 20.0874 38.3239 19.5992Z" fill="#2B2B2B"/>
<path d="M42.7471 18.5305V19.2302H44.4986V19.9045H42.7471V20.6743H44.6509V21.3486H41.9919V17.8562H44.6763V18.5305H42.7471Z" fill="#2B2B2B"/>
<path d="M45.2792 17.8562H46.028L47.7034 20.1145V17.8562H48.4586V21.3486H47.7034L46.028 19.0839V21.3422H45.2792V17.8562Z" fill="#2B2B2B"/>
<path d="M48.9471 20.8334L49.3787 20.3181C49.6914 20.6087 50.1009 20.772 50.5273 20.7761C50.9017 20.7761 51.0985 20.6044 51.0985 20.3817C51.0985 20.1591 50.8954 20.0573 50.3623 19.9364C49.6262 19.771 49.0931 19.5611 49.0931 18.8804C49.1009 18.7239 49.1404 18.5706 49.2093 18.43C49.2782 18.2893 49.3751 18.1642 49.4939 18.0624C49.6127 17.9606 49.751 17.8841 49.9003 17.8377C50.0497 17.7913 50.2069 17.776 50.3623 17.7926C50.8611 17.7792 51.3472 17.9514 51.7267 18.2761L51.3333 18.8168C51.0601 18.5924 50.7216 18.4629 50.3687 18.4479C50.0514 18.4479 49.861 18.6196 49.861 18.8232C49.861 19.0267 50.064 19.1603 50.6035 19.2812C51.3523 19.453 51.8727 19.6756 51.8727 20.3245C51.8727 20.9733 51.3713 21.4313 50.5146 21.4313C49.9347 21.4423 49.373 21.228 48.9471 20.8334Z" fill="#2B2B2B"/>
<path d="M53.1419 18.5305V19.2302H54.8934V19.9045H53.1419V20.6743H55.0774V21.3486H52.3931V17.8562H55.0774V18.5305H53.1419Z" fill="#2B2B2B"/>
<path d="M68.2519 26.8829H10.9406V29.0203H68.2519V26.8829Z" stroke="#2B2B2B" stroke-miterlimit="10"/>
<path d="M68.2519 33.7786H10.9406V35.916H68.2519V33.7786Z" stroke="#2B2B2B" stroke-miterlimit="10"/>
<path d="M68.2519 40.6743H10.9406V42.8117H68.2519V40.6743Z" stroke="#2B2B2B" stroke-miterlimit="10"/>
<path d="M43.2738 47.5699H10.9406V49.7074H43.2738V47.5699Z" stroke="#2B2B2B" stroke-miterlimit="10"/>
<path d="M42.5187 0.101807H45.6092C46.7071 0.101807 47.4623 0.737939 47.4623 1.63489C47.4675 1.92165 47.3892 2.20372 47.2371 2.44661C47.0849 2.68951 46.8655 2.8827 46.6055 3.00257C46.9275 3.12082 47.2066 3.33316 47.4069 3.61214C47.6071 3.89112 47.7192 4.2239 47.7288 4.56746C47.7288 5.5471 46.8911 6.22776 45.7298 6.22776H42.5187V0.101807ZM45.2856 2.54455C45.7742 2.54455 46.1169 2.26466 46.1169 1.87025C46.1169 1.47585 45.7742 1.23412 45.2856 1.23412H43.826V2.54455H45.2856ZM45.4886 5.08908C45.5968 5.10326 45.7068 5.09489 45.8117 5.06452C45.9165 5.03414 46.014 4.98241 46.0979 4.91255C46.1819 4.84269 46.2506 4.75621 46.2998 4.65852C46.3489 4.56083 46.3774 4.45404 46.3834 4.34481C46.3773 4.23536 46.3488 4.12834 46.2998 4.03036C46.2507 3.93238 46.1821 3.84553 46.0983 3.77517C46.0144 3.70482 45.917 3.65245 45.8122 3.62132C45.7073 3.59019 45.5972 3.58095 45.4886 3.59417H43.826V5.08908H45.4886Z" fill="#2B2B2B"/>
<path d="M52.7612 5.26084H50.0451L49.6516 6.22776H48.1857L50.6733 0.101807H52.1393L54.6333 6.22776H53.1546L52.7612 5.26084ZM52.3106 4.14761L51.4031 1.90842L50.4956 4.14761H52.3106Z" fill="#2B2B2B"/>
<path d="M55.1093 3.18065C55.1275 2.53591 55.3363 1.91111 55.7092 1.38547C56.0821 0.85982 56.6023 0.456996 57.2039 0.228059C57.8054 -0.000878267 58.4612 -0.0456198 59.0882 0.0995064C59.7152 0.244633 60.285 0.573091 60.7255 1.04324L59.7736 1.90838C59.6059 1.69676 59.3953 1.52324 59.1557 1.39932C58.9162 1.2754 58.653 1.2039 58.3838 1.18955C57.8806 1.2182 57.4073 1.43877 57.0611 1.80605C56.7149 2.17333 56.5221 2.65946 56.5221 3.16475C56.5221 3.67003 56.7149 4.15616 57.0611 4.52344C57.4073 4.89072 57.8806 5.1113 58.3838 5.13994C58.6506 5.1295 58.9122 5.06294 59.1516 4.94458C59.391 4.82622 59.603 4.6587 59.7736 4.45291L60.7255 5.30533C60.4254 5.62927 60.0635 5.88962 59.6613 6.07099C59.2591 6.25237 58.8247 6.35108 58.3838 6.36131C57.5307 6.36823 56.7092 6.03854 56.0965 5.44344C55.4838 4.84834 55.1292 4.03558 55.1093 3.18065Z" fill="#2B2B2B"/>
<path d="M61.5569 0.101807H62.8642V2.91351L65.3645 0.101807H66.9574L64.5776 2.76084L67.116 6.22776H65.5232L63.6194 3.68323L62.8832 4.51656V6.22776H61.5569V0.101807Z" fill="#2B2B2B"/>
<path d="M0.317322 65.986H68.1631" stroke="#2B2B2B" stroke-miterlimit="10"/>
</g>
<defs>
<clipPath id="clip0_1398_1372">
<rect width="109" height="80" fill="white"/>
</clipPath>
</defs>
</svg>
