<svg id="Layer_1" data-name="Layer 1" xmlns="http://www.w3.org/2000/svg" viewBox="0 0 171.76 125.76">
  <defs>
    <style>
      .cls-1 {
        fill: none;
        stroke: #f7f7f7;
        stroke-miterlimit: 10;
      }

      .cls-2 {
        fill: #f7f7f7;
      }
    </style>
  </defs>
  <path class="cls-1" d="M107.42,119.2H10.15A9.76,9.76,0,0,1,.4,109.45V24.93a9.74,9.74,0,0,1,9.73-9.75H146.28A9.76,9.76,0,0,1,156,24.93v52.2"/>
  <g>
    <path class="cls-1" d="M141.07,83.17l13.57.2s1.74,0,2.89,2.49S161,93.49,161,93.49H120.5s2.3-5.12,3.45-7.63,2.88-2.49,2.88-2.49l13.58-.2Z"/>
    <path class="cls-1" d="M141.73,119.93h21.59a5.18,5.18,0,0,0,3.38-1.14,4.86,4.86,0,0,0,1.49-2.26s.75-3.79,1.17-7.64a12,12,0,0,0-.72-6.16S161.16,87.25,159.29,84s-4.65-3.08-4.65-3.08H126.81s-2.81-.2-4.64,3.08-9.36,18.74-9.36,18.74a12.11,12.11,0,0,0-.71,6.16c.42,3.85,1.16,7.64,1.16,7.64a5,5,0,0,0,1.5,2.26,5.11,5.11,0,0,0,3.38,1.14h23.59Z"/>
    <path class="cls-1" d="M127.62,106.16l-1.23-2.07s-.48-1.06-2.61-1.59l-6.84-1.67a1.61,1.61,0,0,0-1.81.83c-.45.94-.41,2.67,2,5.69a1.34,1.34,0,0,0,1,.49c6.26.15,8.34.15,8.34.15S128.73,108,127.62,106.16Z"/>
    <path class="cls-1" d="M140.73,109.67a78.93,78.93,0,0,0,8.55-.77c1.85-.18,1.77-1.37,1.77-1.37l-.29-1.4a1.63,1.63,0,0,0-1.92-1.25l-.08,0a39.06,39.06,0,0,1-8,.67h-.34a39.06,39.06,0,0,1-8-.67,1.62,1.62,0,0,0-2,1.15s0,0,0,.08l-.29,1.4s-.09,1.19,1.77,1.37a78.93,78.93,0,0,0,8.55.77Z"/>
    <path class="cls-1" d="M117.17,93.74a1.24,1.24,0,0,1-1.11-1.09A1.2,1.2,0,0,0,115,91.42c-.4,0-3.59-.53-4.28,1.35a1.51,1.51,0,0,0,.55,2,1.75,1.75,0,0,0,.53.18l4.34,1Z"/>
    <path class="cls-1" d="M122.15,119.94v3.29a2,2,0,0,1-2,2h-3.59a2,2,0,0,1-2-2v-4.58"/>
    <path class="cls-1" d="M141.77,113.32h8.32a1,1,0,0,1,1,1v2.54a1,1,0,0,1-1,1H131.37a1,1,0,0,1-1-1v-2.54a1,1,0,0,1,1-1Z"/>
    <path class="cls-1" d="M153.83,106.16l1.23-2.07s.49-1.06,2.61-1.59c1.67-.42,5.38-1.32,6.91-1.69a1.52,1.52,0,0,1,1.61.61c.57.87.76,2.61-1.86,5.87a1.54,1.54,0,0,1-1.15.56c-6.2.14-8.26.11-8.26.11S152.67,108,153.83,106.16Z"/>
    <path class="cls-1" d="M164.28,93.74a1.26,1.26,0,0,0,1.12-1.09,1.19,1.19,0,0,1,1.11-1.23c.39,0,3.58-.53,4.27,1.35a1.5,1.5,0,0,1-.56,2,1.54,1.54,0,0,1-.56.18l-4.34,1Z"/>
    <path class="cls-1" d="M159.3,119.94v3.29a2,2,0,0,0,2,2h3.59a2,2,0,0,0,2-2v-4.58"/>
  </g>
  <g>
    <path class="cls-2" d="M17.24,28.07h2A2.77,2.77,0,1,1,20,33.56a3.05,3.05,0,0,1-.74,0h-2Zm2.12,4.42a1.68,1.68,0,0,0,.26-3.35,1.13,1.13,0,0,0-.26,0h-.95v3.35Z"/>
    <path class="cls-2" d="M26.58,33.56l-1.25-1.78h-.88v1.78H23.28V28.07h2.47a1.9,1.9,0,0,1,2.06,1.74.49.49,0,0,1,0,.12,1.77,1.77,0,0,1-1.25,1.71l1.35,1.92ZM24.45,30.7h1.17c.59,0,1-.3,1-.77s-.4-.78-1-.78H24.45Z"/>
    <path class="cls-2" d="M28.72,28.07H29.9v5.49H28.72Z"/>
    <path class="cls-2" d="M36.36,28.07l-2.24,5.49H32.8l-2.24-5.49h1.33l1.57,3.87L35,28.07Z"/>
    <path class="cls-2" d="M37,28.07h1.19v5.49H37Z"/>
    <path class="cls-2" d="M39.35,28.07h1.18l2.64,3.55V28.07h1.19v5.49H43.17L40.53,30v3.55H39.35Z"/>
    <path class="cls-2" d="M48,30.48h2.43v2.26a3.14,3.14,0,0,1-2.22.92A2.85,2.85,0,0,1,47.87,28h.34a3.14,3.14,0,0,1,2.22.92l-.85.77a1.94,1.94,0,0,0-1.37-.61,1.77,1.77,0,1,0,0,3.54,1.87,1.87,0,0,0,1.07-.35V31.4H48Z"/>
    <path class="cls-2" d="M57.55,32.5v1.06H53.63V28.07h1.18V32.5Z"/>
    <path class="cls-2" d="M58.33,28.07h1.18v5.49H58.33Z"/>
    <path class="cls-2" d="M60.39,30.81A2.92,2.92,0,0,1,63.31,28a3,3,0,0,1,2.13.92l-.85.77a1.72,1.72,0,0,0-1.28-.61,1.77,1.77,0,0,0,0,3.54A1.72,1.72,0,0,0,64.59,32l.85.77a3,3,0,0,1-2.13.92A2.92,2.92,0,0,1,60.39,30.81Z"/>
    <path class="cls-2" d="M67.36,29.13v1.1h2.76v1.06H67.36V32.5h3v1.06H66.17V28.07H70.4v1.06Z"/>
    <path class="cls-2" d="M71.35,28.07h1.18l2.64,3.55V28.07h1.19v5.49H75.17L72.53,30v3.55H71.35Z"/>
    <path class="cls-2" d="M77.13,32.75l.68-.81a2.7,2.7,0,0,0,1.81.72c.59,0,.9-.27.9-.62s-.32-.51-1.16-.7c-1.16-.26-2-.59-2-1.66A1.81,1.81,0,0,1,79.26,28h.1a3.18,3.18,0,0,1,2.15.76l-.62.85A2.55,2.55,0,0,0,79.37,29c-.5,0-.8.27-.8.59s.32.53,1.17.72c1.18.27,2,.62,2,1.64S81,33.69,79.6,33.69A3.53,3.53,0,0,1,77.13,32.75Z"/>
    <path class="cls-2" d="M83.74,29.13v1.1H86.5v1.06H83.74V32.5h3.05v1.06H82.56V28.07h4.23v1.06Z"/>
  </g>
  <rect class="cls-1" x="17.24" y="42.26" width="90.31" height="3.36"/>
  <rect class="cls-1" x="17.24" y="53.1" width="90.31" height="3.36"/>
  <rect class="cls-1" x="17.24" y="63.94" width="90.31" height="3.36"/>
  <rect class="cls-1" x="17.24" y="74.78" width="50.95" height="3.36"/>
  <g>
    <path class="cls-2" d="M67,.16h4.87c1.73,0,2.92,1,2.92,2.41a2.32,2.32,0,0,1-1.35,2.15,2.69,2.69,0,0,1,1.77,2.46c0,1.54-1.32,2.61-3.15,2.61H67ZM71.36,4c.77,0,1.31-.44,1.31-1.06s-.54-1-1.31-1h-2.3V4Zm.32,4a1.25,1.25,0,0,0,1.4-1.08.28.28,0,0,0,0-.09,1.26,1.26,0,0,0-1.33-1.19h-2.7V8Z"/>
    <path class="cls-2" d="M83.14,8.27H78.86l-.62,1.52H75.93L79.85.16h2.31l3.93,9.63H83.76Zm-.71-1.75L81,3,79.57,6.52Z"/>
    <path class="cls-2" d="M86.84,5a5.12,5.12,0,0,1,8.85-3.36L94.19,3A3,3,0,0,0,92,1.87a3.11,3.11,0,0,0,0,6.21A3,3,0,0,0,94.19,7l1.5,1.34A5.2,5.2,0,0,1,92,10,5.12,5.12,0,0,1,86.84,5Z"/>
    <path class="cls-2" d="M97,.16h2.06V4.58L103,.16h2.51l-3.75,4.18,4,5.45h-2.51l-3-4L99.09,7.1V9.79H97Z"/>
  </g>
  <line class="cls-1" x1="0.5" y1="103.73" x2="107.41" y2="103.73"/>
</svg>
