<svg id="Layer_1" data-name="Layer 1" xmlns="http://www.w3.org/2000/svg" viewBox="0 0 171.76 125.76">
  <defs>
    <style>
      .cls-1 {
        fill: none;
        stroke: #f7f7f7;
        stroke-miterlimit: 10;
      }

      .cls-2 {
        fill: #f7f7f7;
      }
    </style>
  </defs>
  <path class="cls-1" d="M107.84,119.2H10.57a9.77,9.77,0,0,1-9.75-9.75V24.93a9.76,9.76,0,0,1,9.75-9.75H146.7a9.74,9.74,0,0,1,9.75,9.73V77.13"/>
  <rect class="cls-1" x="11.81" y="28.59" width="48.55" height="49.55"/>
  <g>
    <path class="cls-1" d="M26.63,52.45c.1.18.2.23.2,0,0-1.48.31-4.9,2.33-6.32,2.51-1.76,2.24-1.15,2.86-3a.14.14,0,0,1,.16-.1l.06,0a10.76,10.76,0,0,0,8,3.13c5.16-.22,4.27.33,4.88,2.83a12.72,12.72,0,0,0,.55,1.82c.17.45.2.56.41.13a16.21,16.21,0,0,0,2.09-8.88c-.33-6.65-7.7-10.2-11.58-10.2A7.63,7.63,0,0,0,30.92,34a8.2,8.2,0,0,1-4.46,2.6c-3,.65-3.63,4.43-2.57,8.41A32.91,32.91,0,0,0,26.63,52.45Z"/>
    <path class="cls-1" d="M45.47,54.6c1.14-.15,1.72-1.32,2.17-3.17s-1.7-.68-1.7-.68c-.09,1-.19,2.15-.4,3.43-.71,4.33-2.59,9.63-8.83,9.68-8.09.07-10.21-11.67-10.21-11.67s-1.25-2.53-1.74-.82c-.73,2.55,2.45,3.48,2.45,3.48"/>
    <path class="cls-1" d="M31.65,62.08s-.55,5.91-3.3,7.37a17.29,17.29,0,0,0,8.24,2.28c3.94.09,7.07-.57,8.46-2.19-1.58-1.81-2-1-2.89-7.83a9,9,0,0,1-5.27,2.15C34.17,64.25,31.65,62.08,31.65,62.08Z"/>
    <path class="cls-1" d="M14,78.13l1.21-1.91,13.17-6.77a16.25,16.25,0,0,0,8.24,2.28c4.57-.08,5.7-.32,8.46-2.19,2.18,1.15,12.23,7,12.23,7l.92,1.58Z"/>
  </g>
  <g>
    <path class="cls-2" d="M73.59,28.07h2a2.77,2.77,0,1,1,.74,5.49,3.05,3.05,0,0,1-.74,0h-2Zm2.12,4.42A1.68,1.68,0,0,0,76,29.14a1.13,1.13,0,0,0-.26,0h-.95v3.35Z"/>
    <path class="cls-2" d="M82.93,33.56l-1.25-1.78H80.8v1.78H79.63V28.07H82.1a1.9,1.9,0,0,1,2.06,1.74.49.49,0,0,1,0,.12,1.77,1.77,0,0,1-1.25,1.71l1.35,1.92ZM80.8,30.7H82c.58,0,1-.3,1-.77s-.41-.78-1-.78H80.8Z"/>
    <path class="cls-2" d="M85.07,28.07h1.18v5.49H85.07Z"/>
    <path class="cls-2" d="M92.71,28.07l-2.24,5.49H89.15l-2.24-5.49h1.33l1.57,3.87,1.58-3.87Z"/>
    <path class="cls-2" d="M93.37,28.07h1.19v5.49H93.37Z"/>
    <path class="cls-2" d="M95.7,28.07h1.18l2.64,3.55V28.07h1.19v5.49H99.52L96.88,30v3.55H95.7Z"/>
    <path class="cls-2" d="M104.36,30.48h2.43v2.26a3.14,3.14,0,0,1-2.22.92,2.85,2.85,0,0,1-.34-5.69h.34a3.14,3.14,0,0,1,2.22.92l-.85.77a1.94,1.94,0,0,0-1.37-.61,1.77,1.77,0,1,0,0,3.54,1.87,1.87,0,0,0,1.07-.35V31.4h-1.28Z"/>
    <path class="cls-2" d="M113.9,32.5v1.06H110V28.07h1.18V32.5Z"/>
    <path class="cls-2" d="M114.68,28.07h1.18v5.49h-1.18Z"/>
    <path class="cls-2" d="M116.74,30.81A2.92,2.92,0,0,1,119.66,28a3,3,0,0,1,2.13.92l-.85.77a1.72,1.72,0,0,0-1.28-.61,1.77,1.77,0,1,0,0,3.54,1.72,1.72,0,0,0,1.28-.62l.85.77a3,3,0,0,1-2.13.92A2.92,2.92,0,0,1,116.74,30.81Z"/>
    <path class="cls-2" d="M123.71,29.13v1.1h2.76v1.06h-2.76V32.5h3v1.06h-4.23V28.07h4.23v1.06Z"/>
    <path class="cls-2" d="M127.7,28.07h1.18l2.64,3.55V28.07h1.19v5.49h-1.19L128.88,30v3.55H127.7Z"/>
    <path class="cls-2" d="M133.48,32.75l.68-.81a2.7,2.7,0,0,0,1.81.72c.59,0,.9-.27.9-.62s-.32-.51-1.16-.7c-1.16-.26-2-.59-2-1.66a1.81,1.81,0,0,1,1.9-1.72h.1a3.18,3.18,0,0,1,2.15.76l-.62.85a2.58,2.58,0,0,0-1.57-.61c-.5,0-.8.27-.8.59s.32.53,1.17.72c1.18.27,2,.62,2,1.64s-.79,1.74-2.14,1.74A3.54,3.54,0,0,1,133.48,32.75Z"/>
    <path class="cls-2" d="M140.09,29.13v1.1h2.76v1.06h-2.76V32.5h3v1.06h-4.23V28.07h4.23v1.06Z"/>
  </g>
  <rect class="cls-1" x="73.59" y="42.26" width="69.55" height="3.36"/>
  <rect class="cls-1" x="73.59" y="53.1" width="69.55" height="3.36"/>
  <rect class="cls-1" x="73.59" y="63.94" width="69.55" height="3.36"/>
  <rect class="cls-1" x="73.59" y="74.78" width="34.16" height="3.36"/>
  <g>
    <path class="cls-2" d="M64.15,2V4.11H69V6H64.15V9.79H62.07V.16h7.41V2Z"/>
    <path class="cls-2" d="M76.73,9.79l-2.2-3.13H73V9.79H71V.16h4.33A3.35,3.35,0,0,1,79,3.22c0,.06,0,.13,0,.19a3.12,3.12,0,0,1-2.19,3l2.37,3.37ZM73,4.77h2c1,0,1.73-.53,1.73-1.36S76,2.05,75,2.05H73Z"/>
    <path class="cls-2" d="M80.06,5A5.12,5.12,0,0,1,90.29,5,5.12,5.12,0,0,1,80.06,5Zm8.11,0a3,3,0,1,0-3,3.11A3.09,3.09,0,0,0,88.17,5Z"/>
    <path class="cls-2" d="M91.89.16H94l4.64,6.22V.16h2.07V9.79H98.59L94,3.57V9.79H91.89Z"/>
    <path class="cls-2" d="M105.14,2h-3V.16h8.07V2h-3V9.79h-2.07Z"/>
  </g>
  <line class="cls-1" x1="0.5" y1="103.73" x2="107.41" y2="103.73"/>
  <g>
    <path class="cls-1" d="M140.55,83.67l12,.17A3.57,3.57,0,0,1,155.9,86c1.11,2.38,3.29,7.45,3.29,7.45H120.93s2.18-4.83,3.3-7.21a4.14,4.14,0,0,1,3.45-2.43l12.22-.18Z"/>
    <path class="cls-1" d="M141.31,119.93H162.9a5.11,5.11,0,0,0,3.38-1.14,4.75,4.75,0,0,0,1.5-2.26s.74-3.79,1.16-7.64a12.11,12.11,0,0,0-.71-6.16S160.75,87.25,158.87,84s-4.64-3.08-4.64-3.08H126.4s-2.78-.19-4.65,3.08-9.35,18.74-9.35,18.74a12,12,0,0,0-.72,6.16c.42,3.85,1.17,7.64,1.17,7.64a4.75,4.75,0,0,0,1.5,2.26,5.15,5.15,0,0,0,3.37,1.14h23.59Z"/>
    <path class="cls-1" d="M140.29,108.22a76.39,76.39,0,0,0,8-.69c1.73-.17,1.66-1.25,1.66-1.25s-.18-.84-.28-1.27a1.51,1.51,0,0,0-1.82-1.14l-.08,0a37.13,37.13,0,0,1-7.44.61H140a37.13,37.13,0,0,1-7.44-.61,1.52,1.52,0,0,0-1.88,1s0,0,0,.08c-.1.43-.28,1.27-.28,1.27s-.07,1.08,1.66,1.25a76.39,76.39,0,0,0,8,.69Z"/>
    <path class="cls-1" d="M116.76,93.74a1.26,1.26,0,0,1-1.12-1.09,1.19,1.19,0,0,0-1.11-1.23c-.39,0-3.58-.53-4.27,1.35a1.5,1.5,0,0,0,.56,2,1.54,1.54,0,0,0,.56.18l4.34,1Z"/>
    <path class="cls-1" d="M121.74,119.94v3.29a2,2,0,0,1-2,2h-3.59a2,2,0,0,1-2-2v-4.58"/>
    <path class="cls-1" d="M141.35,112.32h8.32a1,1,0,0,1,1,1v2.54a1,1,0,0,1-1,1H131a1,1,0,0,1-1-1v-2.54a1,1,0,0,1,1-1h10.35Z"/>
    <path class="cls-1" d="M153.38,106.16l1.09-2.07a3.31,3.31,0,0,1,2.32-1.59c1.48-.42,4.77-1.32,6.13-1.69a1.24,1.24,0,0,1,1.42.61c.51.87.68,2.61-1.64,5.87a1.33,1.33,0,0,1-1,.56c-5.5.14-7.34.11-7.34.11S152.35,108,153.38,106.16Z"/>
    <path class="cls-1" d="M163.87,93.74A1.25,1.25,0,0,0,165,92.65a1.19,1.19,0,0,1,1.11-1.23c.4,0,3.59-.53,4.28,1.35a1.49,1.49,0,0,1-.57,2,1.37,1.37,0,0,1-.58.19l-4.34,1Z"/>
    <path class="cls-1" d="M158.89,119.94v3.29a2,2,0,0,0,2,2h3.59a2,2,0,0,0,2-2v-4.58"/>
    <path class="cls-1" d="M126.71,106.16l-1.1-2.07a3.36,3.36,0,0,0-2.31-1.59c-1.48-.42-4.77-1.32-6.13-1.69a1.26,1.26,0,0,0-1.43.61c-.5.87-.67,2.61,1.65,5.87a1.33,1.33,0,0,0,1,.56c5.5.14,7.33.11,7.33.11S127.74,108,126.71,106.16Z"/>
  </g>
</svg>
