<svg width="72" height="72" viewBox="0 0 72 72" fill="none" xmlns="http://www.w3.org/2000/svg">
<path fill-rule="evenodd" clip-rule="evenodd" d="M36 7C19.9837 7 7 19.9837 7 36C7 52.0163 19.9837 65 36 65C52.0163 65 65 52.0163 65 36C65 19.9837 52.0163 7 36 7ZM36 -3.14722e-06C16.1178 -4.88538e-06 4.88538e-06 16.1177 3.14722e-06 36C1.40906e-06 55.8822 16.1177 72 36 72C55.8823 72 72 55.8823 72 36C72 16.1177 55.8823 -1.40906e-06 36 -3.14722e-06Z" fill="#FF5A28"/>
<path d="M27 27L45 45" stroke="#FF5A28" stroke-width="6" stroke-linecap="round" stroke-linejoin="round"/>
<path d="M45 27L27 45" stroke="#FF5A28" stroke-width="6" stroke-linecap="round" stroke-linejoin="round"/>
</svg>
