<svg width="109" height="83" viewBox="0 0 109 83" fill="none" xmlns="http://www.w3.org/2000/svg">
<g clip-path="url(#clip0_1398_1553)">
<path d="M75.3899 81.7394H7.07297C5.30127 81.7376 3.60266 81.0326 2.34989 79.7792C1.09711 78.5257 0.3925 76.8262 0.390686 75.0535V17.0953C0.390686 15.3221 1.09471 13.6215 2.34788 12.3677C3.60105 11.1138 5.30072 10.4094 7.07297 10.4094H100.371C101.249 10.4085 102.118 10.5808 102.93 10.9165C103.741 11.2522 104.478 11.7446 105.098 12.3657C105.719 12.9867 106.211 13.7241 106.547 14.5357C106.882 15.3473 107.055 16.2171 107.054 17.0953V57.5536" stroke="#2B2B2B" stroke-miterlimit="10"/>
<path d="M11.0001 19.2485H11.8088V23.0132H11.0001V19.2485Z" fill="#2B2B2B"/>
<path d="M12.5902 19.2485H13.9609C15.2289 19.2485 16.1267 20.0302 16.1267 21.1274C16.1178 21.3968 16.0535 21.6615 15.9379 21.905C15.8222 22.1484 15.6576 22.3654 15.4544 22.5423C15.2512 22.7193 15.0136 22.8524 14.7567 22.9334C14.4997 23.0145 14.2288 23.0416 13.9609 23.0132H12.5902V19.2485ZM14.0432 22.2794C14.2014 22.2917 14.3604 22.2711 14.5103 22.2189C14.6602 22.1667 14.7976 22.0841 14.9141 21.9763C15.0306 21.8684 15.1235 21.7376 15.187 21.5922C15.2506 21.4467 15.2834 21.2896 15.2834 21.1308C15.2834 20.9721 15.2506 20.815 15.187 20.6695C15.1235 20.524 15.0306 20.3933 14.9141 20.2854C14.7976 20.1776 14.6602 20.095 14.5103 20.0428C14.3604 19.9906 14.2014 19.97 14.0432 19.9822H13.3989V22.2794H14.0432Z" fill="#2B2B2B"/>
<path d="M17.5453 19.9754V20.7297H19.4369V21.4566H17.5453V22.2863H19.6014V23.0132H16.7297V19.2485H19.6288V19.9754H17.5453Z" fill="#2B2B2B"/>
<path d="M20.2799 19.2485H21.0818L22.898 21.6829V19.2485H23.7067V23.0132H22.898L21.0818 20.572V23.0063H20.2799V19.2485Z" fill="#2B2B2B"/>
<path d="M25.4681 19.9754H24.2961V19.2485H27.4488V19.9754H26.2768V23.0132H25.4681V19.9754Z" fill="#2B2B2B"/>
<path d="M28.0039 19.2485H28.7852V23.0132H28.0039V19.2485Z" fill="#2B2B2B"/>
<path d="M30.5398 19.9754H29.3678V19.2485H32.5273V19.9754H31.3553V23.0132H30.5398V19.9754Z" fill="#2B2B2B"/>
<path d="M34.1928 21.6554L32.7192 19.2485H33.665L34.5971 20.9011L35.5772 19.2485H36.4819L35.0083 21.6554V23.0269H34.1928V21.6554Z" fill="#2B2B2B"/>
<path d="M38.257 21.1274C38.2765 20.6096 38.4959 20.1194 38.8691 19.7601C39.2423 19.4007 39.7403 19.2002 40.2582 19.2005C40.5312 19.2034 40.8009 19.2607 41.0515 19.369C41.3022 19.4774 41.5288 19.6345 41.718 19.8314L41.1355 20.3594C41.0277 20.231 40.8936 20.1272 40.7422 20.055C40.5909 19.9828 40.4258 19.944 40.2582 19.9411C39.9365 19.9411 39.6279 20.069 39.4004 20.2966C39.1729 20.5242 39.0451 20.833 39.0451 21.1549C39.0451 21.4768 39.1729 21.7855 39.4004 22.0131C39.6279 22.2407 39.9365 22.3686 40.2582 22.3686C40.4239 22.3625 40.5865 22.3215 40.7353 22.2482C40.8841 22.175 41.0158 22.0711 41.1218 21.9435L41.7043 22.4715C41.515 22.6683 41.2885 22.8255 41.0378 22.9338C40.7872 23.0422 40.5175 23.0994 40.2445 23.1024C39.7208 23.0988 39.2194 22.89 38.8478 22.5208C38.4763 22.1516 38.2641 21.6514 38.257 21.1274Z" fill="#2B2B2B"/>
<path d="M44.7406 22.4235H43.0683L42.8215 23.0132H41.9169L43.4521 19.2485H44.3568L45.9194 23.0132H44.9804L44.7406 22.4235ZM44.4596 21.7377L43.9044 20.3663L43.3424 21.7377H44.4596Z" fill="#2B2B2B"/>
<path d="M48.5991 23.0132L47.7424 21.7926H47.1461V23.0132H46.3374V19.2485H48.0302C48.2085 19.2325 48.3882 19.2533 48.558 19.3099C48.7278 19.3664 48.8842 19.4573 49.0173 19.577C49.1504 19.6967 49.2575 19.8426 49.3317 20.0055C49.406 20.1684 49.4459 20.3449 49.4489 20.524C49.4521 20.7848 49.3711 21.0398 49.218 21.251C49.0649 21.4622 48.8479 21.6185 48.5991 21.6966L49.5243 23.0132H48.5991ZM47.1461 21.052H47.9754C48.3729 21.052 48.6608 20.8463 48.6608 20.524C48.6608 20.2017 48.3866 19.9891 47.9754 19.9891H47.1461V21.052Z" fill="#2B2B2B"/>
<path d="M50.0863 19.2485H51.457C52.7249 19.2485 53.6228 20.0302 53.6228 21.1274C53.6139 21.3968 53.5496 21.6615 53.434 21.905C53.3183 22.1484 53.1537 22.3654 52.9505 22.5423C52.7472 22.7193 52.5097 22.8524 52.2528 22.9334C51.9958 23.0145 51.7249 23.0416 51.457 23.0132H50.0863V19.2485ZM51.5393 22.2794C51.6975 22.2917 51.8565 22.2711 52.0064 22.2189C52.1563 22.1667 52.2937 22.0841 52.4102 21.9763C52.5266 21.8684 52.6196 21.7376 52.6831 21.5922C52.7466 21.4467 52.7794 21.2896 52.7794 21.1308C52.7794 20.9721 52.7466 20.815 52.6831 20.6695C52.6196 20.524 52.5266 20.3933 52.4102 20.2854C52.2937 20.1776 52.1563 20.095 52.0064 20.0428C51.8565 19.9906 51.6975 19.97 51.5393 19.9822H50.895V22.2794H51.5393Z" fill="#2B2B2B"/>
<path d="M74.2316 28.9791H11.0206V31.2832H74.2316V28.9791Z" stroke="#2B2B2B" stroke-miterlimit="10"/>
<path d="M74.2316 36.4124H11.0206V38.7165H74.2316V36.4124Z" stroke="#2B2B2B" stroke-miterlimit="10"/>
<path d="M74.2316 43.8458H11.0206V46.1499H74.2316V43.8458Z" stroke="#2B2B2B" stroke-miterlimit="10"/>
<path d="M48.2289 51.2791H11.0206V53.5832H48.2289V51.2791Z" stroke="#2B2B2B" stroke-miterlimit="10"/>
<path d="M45.7479 0.10965H49.0856C50.2713 0.10965 51.0869 0.795383 51.0869 1.76227C51.0925 2.07139 51.008 2.37545 50.8437 2.63729C50.6794 2.89912 50.4424 3.10738 50.1617 3.23659C50.5145 3.35961 50.8218 3.58659 51.0432 3.88769C51.2646 4.18879 51.3898 4.54989 51.4022 4.9235C51.4022 5.97953 50.4975 6.71326 49.2433 6.71326H45.7479V0.10965ZM48.7361 2.74287C49.2638 2.74287 49.6339 2.43429 49.6339 2.01599C49.6339 1.59769 49.2638 1.33026 48.7361 1.33026H47.1598V2.74287H48.7361ZM48.9554 5.4858C49.0727 5.50005 49.1916 5.49009 49.3048 5.45653C49.4181 5.42298 49.5232 5.36653 49.6138 5.29069C49.7044 5.21485 49.7784 5.12122 49.8314 5.01561C49.8844 4.90999 49.9151 4.79462 49.9218 4.67663C49.9152 4.55889 49.8845 4.44376 49.8314 4.33846C49.7784 4.23315 49.7042 4.13993 49.6135 4.06463C49.5228 3.98932 49.4175 3.93355 49.3043 3.90081C49.1911 3.86806 49.0723 3.85905 48.9554 3.87433H47.1598V5.4858H48.9554Z" fill="#2B2B2B"/>
<path d="M56.8165 5.67095H53.8763L53.4582 6.71326H51.8682L54.5548 0.10965H56.138L58.8314 6.71326H57.2345L56.8165 5.67095ZM56.323 4.47091L55.3429 2.05713L54.3629 4.47091H56.323Z" fill="#2B2B2B"/>
<path d="M59.3455 3.42866C59.3652 2.73364 59.5907 2.06013 59.9934 1.4935C60.3961 0.926867 60.9579 0.492634 61.6076 0.245846C62.2573 -0.000942411 62.9655 -0.0491725 63.6426 0.10727C64.3197 0.263712 64.9352 0.617781 65.4109 1.12459L64.3829 2.05719C64.1981 1.82481 63.9651 1.63523 63.7001 1.50147C63.4351 1.36771 63.1443 1.29294 62.8477 1.28231C62.3041 1.31319 61.793 1.55096 61.4192 1.94688C61.0453 2.34279 60.837 2.86683 60.837 3.41151C60.837 3.9562 61.0453 4.48024 61.4192 4.87615C61.793 5.27206 62.3041 5.50984 62.8477 5.54072C63.1416 5.53427 63.4307 5.46483 63.6956 5.33707C63.9604 5.20931 64.1948 5.02622 64.3829 4.80012L65.4109 5.71901C65.0828 6.07232 64.6865 6.35537 64.2459 6.55103C63.8053 6.74669 63.3296 6.85089 62.8477 6.85733C61.9323 6.85579 61.0537 6.49641 60.3994 5.85586C59.7451 5.21531 59.3669 4.3443 59.3455 3.42866Z" fill="#2B2B2B"/>
<path d="M66.3293 0.10965H67.7412V3.13373L70.4073 0.10965H72.1275L69.5574 2.97602L72.2989 6.71326H70.5923L68.5362 3.97033L67.7412 4.86864V6.71326H66.3293V0.10965Z" fill="#2B2B2B"/>
<path d="M0.171326 71.1311H75.3556" stroke="#2B2B2B" stroke-miterlimit="10"/>
<path d="M78.5425 59.3845H83.4154V82.0137H78.5425V59.3845Z" stroke="#2B2B2B"/>
<path d="M87.3905 59.3845H95.4778C103.078 59.3845 108.5 64.0612 108.5 70.6786C108.5 77.2959 103.099 82 95.4778 82H87.3905V59.3845ZM96.1083 77.5907C100.419 77.5907 103.476 74.7244 103.476 70.6786C103.476 66.6327 100.419 63.8212 96.1083 63.8212H92.2223V77.6113L96.1083 77.5907Z" stroke="#2B2B2B"/>
</g>
<defs>
<clipPath id="clip0_1398_1553">
<rect width="109" height="83" fill="white"/>
</clipPath>
</defs>
</svg>
