<svg id="Layer_1" data-name="Layer 1" xmlns="http://www.w3.org/2000/svg" viewBox="0 0 159.04 119.58">
  <defs>
    <style>
      .cls-1, .cls-3 {
        fill: none;
        stroke: #f7f7f7;
      }

      .cls-1 {
        stroke-miterlimit: 10;
      }

      .cls-2 {
        fill: #f7f7f7;
      }
    </style>
  </defs>
  <path class="cls-1" d="M110,119H10.35A9.76,9.76,0,0,1,.6,109.22V24.7A9.74,9.74,0,0,1,10.35,15H146.48a9.74,9.74,0,0,1,9.75,9.73v59"/>
  <g>
    <path class="cls-2" d="M16.05,28.07h1.18v5.49H16.05Z"/>
    <path class="cls-2" d="M18.37,28.07h2c1.85,0,3.16,1.14,3.16,2.74a2.85,2.85,0,0,1-3,2.76H18.37Zm2.12,4.42a1.68,1.68,0,0,0,.26-3.35,1.13,1.13,0,0,0-.26,0h-.94v3.35Z"/>
    <path class="cls-2" d="M25.6,29.13v1.1h2.76v1.06H25.6V32.5h3v1.06H24.41V28.07h4.23v1.06Z"/>
    <path class="cls-2" d="M29.59,28.07h1.17l2.65,3.55V28.07h1.18v5.49H33.41L30.76,30v3.55H29.59Z"/>
    <path class="cls-2" d="M37.16,29.13H35.45V28.07h4.6v1.06H38.34v4.43H37.16Z"/>
    <path class="cls-2" d="M40.86,28.07H42v5.49H40.86Z"/>
    <path class="cls-2" d="M44.56,29.13H42.85V28.07h4.61v1.06H45.75v4.43H44.56Z"/>
    <path class="cls-2" d="M49.89,31.58l-2.15-3.51h1.38l1.36,2.41,1.43-2.41h1.32l-2.15,3.51v2H49.89Z"/>
    <path class="cls-2" d="M55.82,30.81A2.92,2.92,0,0,1,58.74,28a3,3,0,0,1,2.13.92l-.85.77a1.72,1.72,0,0,0-1.28-.61,1.77,1.77,0,0,0,0,3.54A1.71,1.71,0,0,0,60,32l.85.77a3,3,0,0,1-2.13.92A2.92,2.92,0,0,1,55.82,30.81Z"/>
    <path class="cls-2" d="M65.28,32.7H62.84l-.36.86H61.16l2.24-5.49h1.32L67,33.56H65.63Zm-.41-1-.81-2-.82,2Z"/>
    <path class="cls-2" d="M70.91,33.56l-1.25-1.78h-.87v1.78H67.61V28.07h2.47a1.9,1.9,0,0,1,2.06,1.72.66.66,0,0,1,0,.14,1.76,1.76,0,0,1-1.24,1.71l1.35,1.92ZM68.79,30.7H70c.58,0,1-.3,1-.77s-.4-.78-1-.78H68.79Z"/>
    <path class="cls-2" d="M73.08,28.07h2c1.85,0,3.16,1.14,3.16,2.74a2.85,2.85,0,0,1-2.95,2.76H73.08Zm2.12,4.42a1.68,1.68,0,0,0,.26-3.35,1.13,1.13,0,0,0-.26,0h-.94v3.35Z"/>
  </g>
  <rect class="cls-1" x="16.08" y="42.26" width="92.23" height="3.36"/>
  <rect class="cls-1" x="16.08" y="53.1" width="92.23" height="3.36"/>
  <rect class="cls-1" x="16.08" y="63.94" width="92.23" height="3.36"/>
  <rect class="cls-1" x="16.08" y="74.78" width="54.29" height="3.36"/>
  <g>
    <path class="cls-2" d="M60.15.16H65c1.73,0,2.92,1,2.92,2.41a2.32,2.32,0,0,1-1.35,2.15A2.71,2.71,0,0,1,68.4,7.18c0,1.54-1.32,2.61-3.15,2.61h-5.1ZM64.51,4c.77,0,1.31-.45,1.31-1.06s-.54-1-1.31-1h-2.3V4Zm.32,4a1.26,1.26,0,0,0,1.4-1.1.22.22,0,0,0,0-.08,1.25,1.25,0,0,0-1.32-1.18H62.21V8Z"/>
    <path class="cls-2" d="M76.3,8.27H72L71.4,9.79H69.08L73,.16h2.31l3.93,9.63H76.91Zm-.72-1.75L74.15,3,72.72,6.52Z"/>
    <path class="cls-2" d="M80,5a5.12,5.12,0,0,1,8.85-3.36L87.34,3A3,3,0,0,0,85.1,1.87a3.11,3.11,0,0,0,0,6.21A3,3,0,0,0,87.34,7l1.5,1.34A5.22,5.22,0,0,1,85.1,10,5.12,5.12,0,0,1,80,5Z"/>
    <path class="cls-2" d="M90.18.16h2.06V4.57L96.13.16h2.51L94.89,4.34l4,5.45H96.4l-3-4L92.24,7.1V9.79H90.18Z"/>
  </g>
  <line class="cls-1" x1="0.25" y1="103.73" x2="109.95" y2="103.73"/>
  <g>
    <path class="cls-3" d="M114.6,86h7.11v33H114.6Z"/>
    <path class="cls-3" d="M127.51,86h11.8c11.09,0,19,6.82,19,16.47s-7.88,16.51-19,16.51h-11.8Zm12.72,26.55c6.29,0,10.75-4.18,10.75-10.08s-4.46-10-10.75-10h-5.67v20.11Z"/>
  </g>
</svg>
