<svg id="Layer_1" data-name="Layer 1" xmlns="http://www.w3.org/2000/svg" viewBox="0 0 158.84 119.76">
  <defs>
    <style>
      .cls-1, .cls-3 {
        fill: none;
        stroke: #f7f7f7;
      }

      .cls-1 {
        stroke-miterlimit: 10;
      }

      .cls-2 {
        fill: #f7f7f7;
      }
    </style>
  </defs>
  <path class="cls-1" d="M109.93,119.2H10.29a9.77,9.77,0,0,1-9.75-9.75V24.93a9.76,9.76,0,0,1,9.75-9.75H146.42a9.74,9.74,0,0,1,9.75,9.73v59"/>
  <rect class="cls-1" x="11.53" y="28.59" width="48.55" height="49.55"/>
  <g>
    <path class="cls-1" d="M26.35,52.45c.1.18.2.23.2,0,0-1.48.32-4.9,2.33-6.32,2.51-1.76,2.24-1.15,2.86-3a.14.14,0,0,1,.18-.09s0,0,0,0a10.73,10.73,0,0,0,8,3.13c5.15-.22,4.26.33,4.87,2.83a14.15,14.15,0,0,0,.55,1.82c.17.45.2.56.42.13a16.29,16.29,0,0,0,2.08-8.88c-.33-6.65-7.69-10.2-11.58-10.2A7.63,7.63,0,0,0,30.64,34a8.2,8.2,0,0,1-4.46,2.6c-2.95.65-3.62,4.43-2.56,8.41A32.41,32.41,0,0,0,26.35,52.45Z"/>
    <path class="cls-1" d="M45.19,54.6c1.14-.15,1.72-1.32,2.17-3.17s-1.7-.68-1.7-.68c-.09,1-.19,2.15-.4,3.43-.71,4.33-2.59,9.63-8.83,9.68-8.08.07-10.21-11.67-10.21-11.67s-1.25-2.53-1.74-.82c-.73,2.55,2.46,3.48,2.46,3.48"/>
    <path class="cls-1" d="M31.38,62.08s-.56,5.91-3.3,7.37a17.25,17.25,0,0,0,8.23,2.28c3.95.09,7.07-.57,8.46-2.19-1.57-1.81-2-1-2.88-7.83a9.11,9.11,0,0,1-5.28,2.15C33.9,64.25,31.38,62.08,31.38,62.08Z"/>
    <path class="cls-1" d="M13.69,78.13l1.21-1.91,13.18-6.77a16.22,16.22,0,0,0,8.23,2.28c4.57-.08,5.7-.32,8.46-2.19,2.18,1.15,12.24,7,12.24,7l.91,1.58Z"/>
  </g>
  <g>
    <path class="cls-2" d="M73.28,28.07h1.18v5.49H73.28Z"/>
    <path class="cls-2" d="M75.61,28.07h2c1.85,0,3.16,1.14,3.16,2.74a2.85,2.85,0,0,1-3,2.76H75.61Zm2.12,4.42A1.68,1.68,0,0,0,78,29.14a1.13,1.13,0,0,0-.26,0h-1v3.35Z"/>
    <path class="cls-2" d="M82.83,29.13v1.1h2.76v1.06H82.83V32.5h3v1.06H81.65V28.07h4.23v1.06Z"/>
    <path class="cls-2" d="M86.82,28.07H88l2.65,3.55V28.07h1.18v5.49H90.65L88,30v3.55H86.82Z"/>
    <path class="cls-2" d="M94.39,29.13H92.68V28.07h4.61v1.06H95.57v4.43H94.39Z"/>
    <path class="cls-2" d="M98.1,28.07h1.18v5.49H98.1Z"/>
    <path class="cls-2" d="M101.8,29.13h-1.71V28.07h4.6v1.06H103v4.43h-1.2Z"/>
    <path class="cls-2" d="M107.13,31.58,105,28.07h1.37l1.37,2.41,1.42-2.41h1.32l-2.14,3.51v2h-1.19Z"/>
    <path class="cls-2" d="M113.06,30.81A2.92,2.92,0,0,1,116,28a3,3,0,0,1,2.14.92l-.86.77a1.71,1.71,0,0,0-1.28-.61,1.77,1.77,0,1,0,0,3.54,1.72,1.72,0,0,0,1.28-.62l.86.77a3,3,0,0,1-2.14.92A2.93,2.93,0,0,1,113.06,30.81Z"/>
    <path class="cls-2" d="M122.52,32.7h-2.45l-.35.86H118.4l2.24-5.49H122l2.24,5.49h-1.33Zm-.41-1-.82-2-.81,2Z"/>
    <path class="cls-2" d="M128.15,33.56l-1.26-1.78H126v1.78h-1.17V28.07h2.47a1.9,1.9,0,0,1,2.06,1.74.49.49,0,0,1,0,.12,1.78,1.78,0,0,1-1.25,1.71l1.35,1.92ZM126,30.7h1.17c.58,0,1-.3,1-.77s-.4-.78-1-.78H126Z"/>
    <path class="cls-2" d="M130.32,28.07h2a2.77,2.77,0,1,1,.74,5.49,3.05,3.05,0,0,1-.74,0h-2Zm2.12,4.42a1.68,1.68,0,0,0,.26-3.35,1.13,1.13,0,0,0-.26,0h-.95v3.35Z"/>
  </g>
  <rect class="cls-1" x="73.31" y="42.26" width="69.55" height="3.36"/>
  <rect class="cls-1" x="73.31" y="53.1" width="69.55" height="3.36"/>
  <rect class="cls-1" x="73.31" y="63.94" width="69.55" height="3.36"/>
  <rect class="cls-1" x="73.31" y="74.78" width="34.16" height="3.36"/>
  <g>
    <path class="cls-2" d="M57.69,2V4.11h4.83V6H57.69V9.79H55.62V.16H63V2Z"/>
    <path class="cls-2" d="M70.28,9.79l-2.2-3.13H66.55V9.79H64.49V.16h4.33a3.34,3.34,0,0,1,3.62,3c0,.07,0,.14,0,.21a3.12,3.12,0,0,1-2.19,3l2.37,3.37Zm-3.73-5h2c1,0,1.72-.53,1.72-1.36s-.7-1.36-1.72-1.36h-2Z"/>
    <path class="cls-2" d="M73.61,5a5.11,5.11,0,1,1,5.11,5.11A5.11,5.11,0,0,1,73.61,5Zm8.11,0a3,3,0,1,0-3,3.11A3.09,3.09,0,0,0,81.72,5Z"/>
    <path class="cls-2" d="M85.43.16h2.06l4.64,6.22V.16H94.2V9.79H92.13L87.49,3.57V9.79H85.43Z"/>
    <path class="cls-2" d="M98.68,2h-3V.16h8.07V2h-3V9.79H98.68Z"/>
  </g>
  <line class="cls-1" x1="0.22" y1="103.73" x2="109.93" y2="103.73"/>
  <g>
    <path class="cls-3" d="M114.58,86.6h7.1v33h-7.1Z"/>
    <path class="cls-3" d="M127.48,86.6h11.81c11.09,0,19,6.82,19,16.47s-7.87,16.51-19,16.51H127.48Zm12.72,26.55c6.29,0,10.75-4.18,10.75-10.08s-4.46-10-10.75-10h-5.66v20.11Z"/>
  </g>
</svg>
