<svg width="109" height="82" viewBox="0 0 109 82" fill="none" xmlns="http://www.w3.org/2000/svg">
<g clip-path="url(#clip0_1398_1490)">
<path d="M75.4367 81.6166H7.06124C5.28731 81.6148 3.58657 80.9108 2.33221 79.6593C1.07785 78.4077 0.372361 76.7107 0.370544 74.9407V17.0697C0.370544 15.2991 1.07545 13.6011 2.3302 12.3491C3.58495 11.0971 5.28676 10.3938 7.06124 10.3938H100.477C101.356 10.3929 102.226 10.565 103.039 10.9001C103.851 11.2353 104.589 11.727 105.21 12.3471C105.832 12.9672 106.324 13.7035 106.66 14.5139C106.996 15.3242 107.169 16.1927 107.168 17.0697V57.4671" stroke="#2B2B2B" stroke-miterlimit="10"/>
<path d="M41.2284 19.5757H7.91217V53.5027H41.2284V19.5757Z" stroke="#2B2B2B" stroke-miterlimit="10"/>
<path d="M18.082 35.9127C18.1506 36.0359 18.2192 36.0701 18.2192 35.9127C18.2192 34.8993 18.4388 32.5576 19.8181 31.5853C21.5406 30.3803 21.3553 30.7979 21.7807 29.5312C21.7856 29.5157 21.7943 29.5016 21.8061 29.4904C21.818 29.4791 21.8324 29.4711 21.8482 29.467C21.864 29.4629 21.8806 29.4628 21.8964 29.4669C21.9122 29.4709 21.9267 29.479 21.9386 29.4902C22.6566 30.2051 23.5147 30.7645 24.4594 31.1332C25.404 31.502 26.4148 31.6722 27.4284 31.6333C30.9624 31.4826 30.3517 31.8592 30.7703 33.571C30.8691 33.994 30.9952 34.4103 31.1477 34.8171C31.2644 35.1253 31.285 35.2006 31.4359 34.9062C32.4819 33.0562 32.977 30.9469 32.8633 28.826C32.6368 24.2727 27.5862 21.842 24.9168 21.842C24.2043 21.8045 23.4916 21.9127 22.8225 22.16C22.1534 22.4073 21.542 22.7884 21.0259 23.2799C20.2247 24.187 19.1512 24.8114 17.9653 25.0601C15.941 25.5052 15.4812 28.0934 16.2086 30.8185C16.62 32.5872 17.2493 34.2982 18.082 35.9127V35.9127Z" stroke="#2B2B2B" stroke-miterlimit="10"/>
<path d="M31.0105 37.3848C31.7928 37.2821 32.1908 36.481 32.4996 35.2143C32.8084 33.9476 31.333 34.7487 31.333 34.7487C31.2712 35.4334 31.2026 36.2208 31.0585 37.0972C30.5713 40.062 29.2812 43.6909 24.9991 43.7251C19.4544 43.773 17.9928 35.7346 17.9928 35.7346C17.9928 35.7346 17.135 34.0023 16.7988 35.1732C16.2978 36.9192 18.4869 37.5559 18.4869 37.5559" stroke="#2B2B2B" stroke-miterlimit="10"/>
<path d="M21.5337 42.5064C21.5337 42.5064 21.1494 46.553 19.2692 47.5526C20.9904 48.5382 22.9327 49.0751 24.9168 49.1137C27.6274 49.1754 29.7684 48.7235 30.7223 47.6142C29.6449 46.3749 29.3498 46.9295 28.7459 42.253C27.7274 43.1183 26.4573 43.6343 25.1227 43.7251C23.263 43.9922 21.5337 42.5064 21.5337 42.5064Z" stroke="#2B2B2B" stroke-miterlimit="10"/>
<path d="M9.39441 53.4958L10.2247 52.1881L19.2692 47.5526C20.9776 48.5683 22.9281 49.1074 24.9168 49.1137C28.0529 49.059 28.8283 48.8946 30.7223 47.6142C32.2183 48.4016 39.1217 52.4072 39.1217 52.4072L39.7461 53.489L9.39441 53.4958Z" stroke="#2B2B2B" stroke-miterlimit="10"/>
<path d="M50.2866 19.2196H51.0963V22.9786H50.2866V19.2196Z" fill="#2B2B2B"/>
<path d="M51.8854 19.2196H53.2579C54.5274 19.2196 55.4264 20.0002 55.4264 21.0957C55.4175 21.3647 55.3531 21.629 55.2373 21.8721C55.1215 22.1152 54.9567 22.3318 54.7532 22.5085C54.5497 22.6852 54.3119 22.8181 54.0546 22.899C53.7974 22.9799 53.5261 23.007 53.2579 22.9786H51.8854V19.2196ZM53.3402 22.246C53.4986 22.2582 53.6579 22.2376 53.8079 22.1855C53.958 22.1334 54.0957 22.051 54.2123 21.9433C54.3289 21.8356 54.4219 21.705 54.4855 21.5597C54.5491 21.4145 54.582 21.2576 54.582 21.0991C54.582 20.9406 54.5491 20.7838 54.4855 20.6385C54.4219 20.4932 54.3289 20.3626 54.2123 20.255C54.0957 20.1473 53.958 20.0648 53.8079 20.0127C53.6579 19.9606 53.4986 19.94 53.3402 19.9522H52.654V22.246H53.3402Z" fill="#2B2B2B"/>
<path d="M56.84 19.9454V20.6986H58.734V21.4243H56.84V22.2528H58.8987V22.9786H56.0303V19.2196H58.933V19.9454H56.84Z" fill="#2B2B2B"/>
<path d="M59.5781 19.2196H60.3878L62.2063 21.6503V19.2196H63.0161V22.9786H62.2063L60.3878 20.5411V22.9718H59.5781V19.2196Z" fill="#2B2B2B"/>
<path d="M64.7727 19.9454H63.5993V19.2196H66.7628V19.9454H65.5825V22.9786H64.7727V19.9454Z" fill="#2B2B2B"/>
<path d="M67.3187 19.2196H68.1284V22.9786H67.3187V19.2196Z" fill="#2B2B2B"/>
<path d="M69.8577 19.9454H68.6843V19.2196H71.8409V19.9454H70.6812V22.9786H69.8577V19.9454Z" fill="#2B2B2B"/>
<path d="M73.5153 21.6229L72.0536 19.2196H72.9938L73.9339 20.8697L74.9084 19.2196H75.8142L74.3456 21.6229V22.9923H73.529L73.5153 21.6229Z" fill="#2B2B2B"/>
<path d="M77.5846 21.0957C77.6042 20.5762 77.8258 20.0848 78.2025 19.7256C78.5791 19.3664 79.0811 19.1678 79.6021 19.1717C79.8766 19.1737 80.1479 19.2305 80.4001 19.3386C80.6523 19.4468 80.8803 19.6042 81.0706 19.8016L80.4805 20.3288C80.3731 20.1999 80.239 20.0958 80.0873 20.0236C79.9356 19.9515 79.7701 19.9131 79.6021 19.9112C79.28 19.9112 78.971 20.0389 78.7432 20.2661C78.5154 20.4934 78.3875 20.8017 78.3875 21.1231C78.3875 21.4445 78.5154 21.7528 78.7432 21.9801C78.971 22.2073 79.28 22.335 79.6021 22.335C79.7706 22.3317 79.9363 22.2921 80.0879 22.2188C80.2395 22.1455 80.3735 22.0403 80.4805 21.9105L81.0706 22.4377C80.8803 22.6351 80.6523 22.7925 80.4001 22.9007C80.1479 23.0089 79.8766 23.0656 79.6021 23.0676C79.073 23.0713 78.564 22.866 78.186 22.4966C77.808 22.1272 77.5918 21.6236 77.5846 21.0957Z" fill="#2B2B2B"/>
<path d="M84.0763 22.3898H82.395L82.1548 22.9786H81.249L82.7862 19.2196H83.7194L85.2566 22.9786H84.3439L84.0763 22.3898ZM83.7949 21.7051L83.2322 20.3357L82.6764 21.7051H83.7949Z" fill="#2B2B2B"/>
<path d="M87.9398 22.9787L87.0751 21.76H86.4644V22.9787H85.6615V19.2197H87.3565C87.5347 19.2047 87.7142 19.2263 87.8838 19.2831C88.0534 19.3399 88.2096 19.4308 88.3426 19.5501C88.4757 19.6694 88.5829 19.8146 88.6576 19.9768C88.7323 20.1391 88.7729 20.3148 88.777 20.4933C88.7785 20.7544 88.696 21.0091 88.5416 21.2198C88.3872 21.4306 88.169 21.5864 87.9192 21.6641L88.8456 22.9787H87.9398ZM86.4644 21.0205H87.2673C87.6653 21.0205 87.9535 20.8151 87.9535 20.4933C87.9535 20.1714 87.679 19.9592 87.2673 19.9592H86.4644V21.0205Z" fill="#2B2B2B"/>
<path d="M89.4288 19.2197H90.8013C91.07 19.1834 91.3433 19.2049 91.603 19.2828C91.8627 19.3606 92.1027 19.493 92.3068 19.671C92.511 19.849 92.6747 20.0686 92.7868 20.3149C92.8989 20.5612 92.9569 20.8287 92.9569 21.0992C92.9569 21.3697 92.8989 21.6372 92.7868 21.8835C92.6747 22.1298 92.511 22.3494 92.3068 22.5274C92.1027 22.7054 91.8627 22.8378 91.603 22.9156C91.3433 22.9935 91.07 23.015 90.8013 22.9787H89.4288V19.2197ZM90.8836 22.2461C91.042 22.2583 91.2013 22.2377 91.3513 22.1856C91.5014 22.1335 91.639 22.0511 91.7556 21.9434C91.8722 21.8357 91.9653 21.7051 92.0289 21.5598C92.0925 21.4146 92.1254 21.2577 92.1254 21.0992C92.1254 20.9407 92.0925 20.7838 92.0289 20.6386C91.9653 20.4933 91.8722 20.3627 91.7556 20.255C91.639 20.1474 91.5014 20.0649 91.3513 20.0128C91.2013 19.9607 91.042 19.9401 90.8836 19.9523H90.2317V22.2461H90.8836Z" fill="#2B2B2B"/>
<path d="M98.0342 28.9355H50.3072V31.2361H98.0342V28.9355Z" stroke="#2B2B2B" stroke-miterlimit="10"/>
<path d="M98.0342 36.3577H50.3072V38.6583H98.0342V36.3577Z" stroke="#2B2B2B" stroke-miterlimit="10"/>
<path d="M98.0342 43.7799H50.3072V46.0805H98.0342V43.7799Z" stroke="#2B2B2B" stroke-miterlimit="10"/>
<path d="M73.7486 51.2021H50.3072V53.5027H73.7486V51.2021Z" stroke="#2B2B2B" stroke-miterlimit="10"/>
<path d="M39.5883 1.36941V2.81413H42.9028V4.10822H39.5883V6.70325H38.1678V0.109558H43.2322V1.36941H39.5883Z" fill="#2B2B2B"/>
<path d="M48.2279 6.70324L46.7182 4.56012H45.6683V6.70324H44.2546V0.109551H47.226C47.5382 0.0823207 47.8526 0.119245 48.1499 0.218042C48.4472 0.31684 48.721 0.475412 48.9545 0.683961C49.1879 0.892511 49.376 1.14661 49.5072 1.43056C49.6383 1.7145 49.7097 2.02227 49.717 2.33484C49.7191 2.79245 49.5744 3.23874 49.3039 3.60835C49.0335 3.97797 48.6516 4.25151 48.2142 4.38894L49.8405 6.69639L48.2279 6.70324ZM45.6683 3.27972H47.0407C47.7269 3.27972 48.221 2.91683 48.221 2.34853C48.221 1.78023 47.7407 1.41733 47.0407 1.41733H45.6683V3.27972Z" fill="#2B2B2B"/>
<path d="M50.5131 3.42351C50.5131 2.49557 50.8825 1.60562 51.5401 0.949466C52.1977 0.293308 53.0897 -0.0753174 54.0197 -0.0753174C54.9497 -0.0753174 55.8416 0.293308 56.4992 0.949466C57.1568 1.60562 57.5263 2.49557 57.5263 3.42351C57.5263 4.35146 57.1568 5.2414 56.4992 5.89756C55.8416 6.55372 54.9497 6.92234 54.0197 6.92234C53.0897 6.92234 52.1977 6.55372 51.5401 5.89756C50.8825 5.2414 50.5131 4.35146 50.5131 3.42351ZM56.0784 3.42351C56.0635 3.02079 55.9303 2.6313 55.6953 2.30356C55.4603 1.97581 55.1338 1.72429 54.7566 1.5803C54.3794 1.43632 53.968 1.40623 53.5738 1.49379C53.1795 1.58135 52.8198 1.78269 52.5394 2.07274C52.259 2.36278 52.0703 2.72872 51.9968 3.12499C51.9233 3.52126 51.9682 3.93035 52.126 4.30132C52.2838 4.67229 52.5474 4.98875 52.8842 5.21131C53.2209 5.43386 53.6158 5.55267 54.0197 5.55294C54.5731 5.53512 55.0977 5.30271 55.4821 4.90509C55.8665 4.50747 56.0804 3.97597 56.0784 3.42351Z" fill="#2B2B2B"/>
<path d="M58.6242 0.109558H60.0378L63.2219 4.36841V0.109558H64.6424V6.70325H63.2219L60.0378 2.44439V6.70325H58.6242V0.109558Z" fill="#2B2B2B"/>
<path d="M67.7167 1.36941H65.658V0.109558H71.1959V1.36941H69.1372V6.70325H67.7167V1.36941Z" fill="#2B2B2B"/>
<path d="M0.15094 71.0242H75.4367" stroke="#2B2B2B" stroke-miterlimit="10"/>
<path d="M78.6277 59.2953H83.4999V81.8904H78.6277V59.2953Z" stroke="#2B2B2B"/>
<path d="M87.48 59.2953H95.5843C103.195 59.2953 108.623 63.9649 108.623 70.5723C108.623 77.1797 103.222 81.8768 95.5843 81.8768H87.48V59.2953ZM96.2088 77.4741C100.525 77.4741 103.586 74.6121 103.586 70.5723C103.586 66.5326 100.525 63.7253 96.2088 63.7253H92.3247V77.4947L96.2088 77.4741Z" stroke="#2B2B2B"/>
</g>
<defs>
<clipPath id="clip0_1398_1490">
<rect width="109" height="82" fill="white"/>
</clipPath>
</defs>
</svg>
