<svg width="286" height="104" viewBox="0 0 286 104" fill="none" xmlns="http://www.w3.org/2000/svg">
<g clip-path="url(#clip0_2150_3071)">
<path d="M9.89466 46.0452C9.89864 42.3331 11.3646 38.7741 13.9709 36.149C16.5773 33.5238 20.1112 32.0468 23.7976 32.042V23.23C20.8005 23.1952 17.8263 23.7596 15.0474 24.8905C12.2685 26.0214 9.73997 27.6963 7.6084 29.8182C5.47684 31.9401 3.78455 34.4669 2.62958 37.252C1.4746 40.0372 0.879883 43.0254 0.879883 46.0437C0.879883 49.0619 1.4746 52.0502 2.62958 54.8353C3.78455 57.6205 5.47684 60.1472 7.6084 62.2691C9.73997 64.391 12.2685 66.0659 15.0474 67.1968C17.8263 68.3277 20.8005 68.8921 23.7976 68.8574V60.0453C20.1115 60.0413 16.5776 58.565 13.9711 55.9403C11.3647 53.3157 9.89864 49.757 9.89466 46.0452Z" fill="#E6E7E8"/>
<path d="M275.842 46.0028C275.838 49.7154 274.372 53.2749 271.765 55.9001C269.158 58.5253 265.623 60.0019 261.937 60.0059V68.818C264.934 68.8528 267.908 68.2884 270.687 67.1574C273.466 66.0265 275.994 64.3516 278.126 62.2297C280.257 60.1078 281.95 57.5811 283.105 54.796C284.259 52.0108 284.854 49.0226 284.854 46.0043C284.854 42.9861 284.259 39.9978 283.105 37.2127C281.95 34.4275 280.257 31.9008 278.126 29.7789C275.994 27.657 273.466 25.9821 270.687 24.8512C267.908 23.7203 264.934 23.1559 261.937 23.1906V32.0027C265.623 32.0067 269.157 33.4829 271.764 36.1075C274.371 38.732 275.838 42.2907 275.842 46.0028Z" fill="#E6E7E8"/>
<path d="M64.3976 68.8392H55.7939V24.5096H64.2054V30.8622C67.4107 25.3324 72.6168 23.2148 77.7508 23.2148C88.3672 23.2148 93.4952 30.7775 93.4952 40.724V68.8332H84.9005V42.2033C84.9005 36.0321 82.335 31.0528 74.6475 31.0528C67.7832 31.0528 64.3976 36.5827 64.3976 43.2167V68.8392Z" fill="#F15B2F"/>
<path d="M137.544 60.9135C135.441 65.2454 130.866 68.8392 123.908 68.8392C111.096 68.8392 103.039 58.6114 103.039 45.3373C103.039 32.8921 111.45 22.1106 123.908 22.1106C131.596 22.1106 135.898 25.892 137.361 29.5766V0.913849H145.874V59.4372C145.863 62.1786 146.015 64.9183 146.331 67.6413H138.001C137.727 66.6278 137.544 64.3137 137.544 61.6486V60.9135ZM124.732 61.1918C132.602 61.1918 137.454 54.2794 137.454 45.1588C137.454 35.9413 132.785 29.7671 124.837 29.7671C116.966 29.7671 111.841 36.2197 111.841 45.3433C111.841 54.467 116.494 61.1918 124.732 61.1918Z" fill="#F15B2F"/>
<path d="M169.231 42.1125L181.127 40.364C183.783 39.9889 184.516 38.6065 184.516 37.0364C184.516 32.7045 181.677 29.1107 174.996 29.1107C168.864 29.1107 165.662 32.8921 165.019 38.0498L156.794 36.1198C157.8 27.6496 165.205 21.7416 174.819 21.7416C187.997 21.7416 193.125 29.392 193.125 37.9651V60.1754C193.125 64.1412 193.399 66.3496 193.672 67.4567H185.261C184.987 66.3496 184.804 64.6918 184.804 61.464C182.882 64.598 178.496 68.8392 170.619 68.8392C161.649 68.8392 155.884 62.5742 155.884 55.5681C155.869 47.5486 161.544 43.2984 169.231 42.1125ZM184.516 48.4652V46.4384L171.06 48.4652C167.398 49.1096 164.653 51.1394 164.653 55.1023C164.653 58.4299 167.398 61.5518 171.793 61.5518C178.841 61.5578 184.516 58.1485 184.516 48.4713V48.4652Z" fill="#F15B2F"/>
<path d="M220.228 24.0497H229.745V31.8847H220.228V54.9238C220.228 58.9835 221.875 61.0073 226.36 61.0073C227.459 61.0073 229.012 60.9165 229.745 60.6382V68.0134C229.012 68.2887 226.816 68.8392 223.887 68.8392C216.293 68.8392 211.625 64.3258 211.625 56.2185V31.8847H203.213V24.0497H205.593C210.351 24.0497 212.364 21.1941 212.364 17.2312V10.0406H220.237L220.228 24.0497Z" fill="#F15B2F"/>
<path d="M23.7886 23.2299V32.042C27.4409 32.0961 30.9254 33.595 33.4891 36.215C36.0529 38.8349 37.4901 42.3654 37.4901 46.0437C37.4901 49.7219 36.0529 53.2524 33.4891 55.8723C30.9254 58.4923 27.4409 59.9912 23.7886 60.0453V68.8574C29.7519 68.7882 35.4478 66.3542 39.6404 62.0833C43.8331 57.8124 46.1845 52.0491 46.1845 46.0437C46.1845 40.0382 43.8331 34.2749 39.6404 30.004C35.4478 25.7331 29.7519 23.2991 23.7886 23.2299Z" fill="#F15B2F"/>
<path d="M261.937 68.818V60.0059C258.285 59.9519 254.801 58.4529 252.237 55.833C249.673 53.2131 248.236 49.6825 248.236 46.0043C248.236 42.3261 249.673 38.7956 252.237 36.1756C254.801 33.5557 258.285 32.0567 261.937 32.0027V23.1906C255.974 23.2597 250.278 25.6938 246.086 29.9647C241.893 34.2355 239.542 39.9988 239.542 46.0043C239.542 52.0098 241.893 57.7731 246.086 62.044C250.278 66.3148 255.974 68.7489 261.937 68.818Z" fill="#F15B2F"/>
</g>
<path d="M27.0547 101H28.1327L30.8207 92.81L33.4947 101H34.5727L37.8627 91.382H36.6307L33.9707 99.166L31.4227 91.382H30.2047L27.6567 99.166L24.9967 91.382H23.7647L27.0547 101ZM48.3494 92.418V91.382H41.4474V101H48.3494V99.964H42.5534V96.618H47.7754V95.582H42.5534V92.418H48.3494ZM58.3873 101H59.4793V98.116L60.9913 96.52L64.6453 101H66.0593L61.7473 95.778L65.7933 91.382H64.3513L59.4793 96.702V91.382H58.3873V101ZM69.6175 101H70.7095V93.174L76.6735 101H77.7655V91.382H76.6735V99.208L70.7095 91.382H69.6175V101ZM86.691 101.168C89.365 101.168 91.605 98.886 91.605 96.184C91.605 93.482 89.365 91.214 86.691 91.214C84.031 91.214 81.763 93.482 81.763 96.184C81.763 98.886 84.031 101.168 86.691 101.168ZM86.691 100.16C84.619 100.16 82.869 98.34 82.869 96.184C82.869 94.042 84.619 92.222 86.691 92.222C88.763 92.222 90.499 94.042 90.499 96.184C90.499 98.34 88.763 100.16 86.691 100.16ZM97.7405 101H98.8185L101.506 92.81L104.18 101H105.258L108.548 91.382H107.316L104.656 99.166L102.108 91.382H100.89L98.3425 99.166L95.6825 91.382H94.4505L97.7405 101ZM121.178 101H122.326V97.08L126.19 91.382H124.874L121.752 96.044L118.658 91.382H117.3L121.178 97.08V101ZM134.056 101.168C136.73 101.168 138.97 98.886 138.97 96.184C138.97 93.482 136.73 91.214 134.056 91.214C131.396 91.214 129.128 93.482 129.128 96.184C129.128 98.886 131.396 101.168 134.056 101.168ZM134.056 100.16C131.984 100.16 130.234 98.34 130.234 96.184C130.234 94.042 131.984 92.222 134.056 92.222C136.128 92.222 137.864 94.042 137.864 96.184C137.864 98.34 136.128 100.16 134.056 100.16ZM146.875 101.168C149.227 101.168 150.893 99.446 150.893 97.01V91.382H149.801V97.01C149.801 98.858 148.583 100.174 146.875 100.174C145.167 100.174 143.949 98.858 143.949 97.01V91.382H142.857V97.01C142.857 99.446 144.523 101.168 146.875 101.168ZM162.613 94.462C162.613 92.656 161.059 91.382 159.071 91.382H155.165V101H156.257V97.542H158.805L161.241 101H162.487L159.995 97.444C161.521 97.122 162.613 95.974 162.613 94.462ZM156.257 92.418H158.875C160.443 92.418 161.507 93.174 161.507 94.462C161.507 95.75 160.443 96.506 158.875 96.506H156.257V92.418ZM176.801 101.168C178.131 101.168 179.363 100.594 180.259 99.698L179.517 98.942C178.817 99.684 177.851 100.16 176.801 100.16C174.729 100.16 172.979 98.34 172.979 96.184C172.979 94.042 174.729 92.222 176.801 92.222C177.851 92.222 178.817 92.698 179.517 93.44L180.259 92.684C179.363 91.774 178.131 91.214 176.801 91.214C174.141 91.214 171.873 93.482 171.873 96.184C171.873 98.886 174.141 101.168 176.801 101.168ZM187.842 101.168C190.194 101.168 191.86 99.446 191.86 97.01V91.382H190.768V97.01C190.768 98.858 189.55 100.174 187.842 100.174C186.134 100.174 184.916 98.858 184.916 97.01V91.382H183.824V97.01C183.824 99.446 185.49 101.168 187.842 101.168ZM199.464 101.154C201.704 101.154 202.852 99.908 202.852 98.382C202.852 96.688 201.536 96.03 199.702 95.596C198.064 95.204 197.112 94.854 197.112 93.86C197.112 92.978 197.98 92.194 199.17 92.194C200.178 92.194 201.13 92.656 201.928 93.426L202.6 92.572C201.718 91.76 200.654 91.2 199.226 91.2C197.378 91.2 196.006 92.404 196.006 93.944C196.006 95.61 197.224 96.212 199.156 96.66C200.836 97.052 201.746 97.458 201.746 98.48C201.746 99.348 200.99 100.16 199.506 100.16C198.162 100.16 197.168 99.586 196.356 98.774L195.67 99.628C196.636 100.58 197.882 101.154 199.464 101.154ZM209.436 101H210.528V92.418H213.762V91.382H206.202V92.418H209.436V101ZM221.404 101.168C224.078 101.168 226.318 98.886 226.318 96.184C226.318 93.482 224.078 91.214 221.404 91.214C218.744 91.214 216.476 93.482 216.476 96.184C216.476 98.886 218.744 101.168 221.404 101.168ZM221.404 100.16C219.332 100.16 217.582 98.34 217.582 96.184C217.582 94.042 219.332 92.222 221.404 92.222C223.476 92.222 225.212 94.042 225.212 96.184C225.212 98.34 223.476 100.16 221.404 100.16ZM230.317 101H231.409V93.734L234.979 100.44L238.549 93.734V101H239.641V91.382H238.549L234.979 98.088L231.409 91.382H230.317V101ZM250.919 92.418V91.382H244.017V101H250.919V99.964H245.123V96.618H250.345V95.582H245.123V92.418H250.919ZM262.202 94.462C262.202 92.656 260.648 91.382 258.66 91.382H254.754V101H255.846V97.542H258.394L260.83 101H262.076L259.584 97.444C261.11 97.122 262.202 95.974 262.202 94.462ZM255.846 92.418H258.464C260.032 92.418 261.096 93.174 261.096 94.462C261.096 95.75 260.032 96.506 258.464 96.506H255.846V92.418Z" fill="#FF5A28"/>
<defs>
<clipPath id="clip0_2150_3071">
<rect width="286" height="70" fill="white"/>
</clipPath>
</defs>
</svg>
