<svg id="Layer_1" data-name="Layer 1" xmlns="http://www.w3.org/2000/svg" viewBox="0 0 158.23 114.67">
  <defs>
    <style>
      .cls-1 {
        fill: none;
        stroke: #f7f7f7;
        stroke-miterlimit: 10;
      }

      .cls-2 {
        fill: #f7f7f7;
      }
    </style>
  </defs>
  <rect class="cls-1" x="13.01" y="22.47" width="48.55" height="49.55"/>
  <g>
    <path class="cls-1" d="M27.83,46.32c.1.19.2.24.2,0,0-1.48.32-4.89,2.33-6.31,2.51-1.76,2.24-1.15,2.86-3a.14.14,0,0,1,.18-.09s0,0,.05,0a10.73,10.73,0,0,0,8,3.13c5.15-.22,4.26.33,4.87,2.83a15.93,15.93,0,0,0,.55,1.82c.17.45.2.56.42.13A16.33,16.33,0,0,0,49.37,36C49,29.35,41.68,25.8,37.79,25.8a7.6,7.6,0,0,0-5.66,2.07,8.26,8.26,0,0,1-4.46,2.6c-3,.65-3.63,4.43-2.57,8.41A32,32,0,0,0,27.83,46.32Z"/>
    <path class="cls-1" d="M46.67,48.48c1.14-.15,1.72-1.32,2.17-3.17s-1.7-.68-1.7-.68c-.08.95-.19,2.15-.4,3.43-.71,4.33-2.59,9.63-8.83,9.68-8.08.07-10.21-11.67-10.21-11.67s-1.25-2.53-1.74-.82c-.73,2.55,2.46,3.48,2.46,3.48"/>
    <path class="cls-1" d="M32.86,56s-.56,5.91-3.3,7.37a17.25,17.25,0,0,0,8.23,2.28c4,.09,7.07-.57,8.46-2.2-1.57-1.8-2-1-2.88-7.82a9.08,9.08,0,0,1-5.27,2.15C35.38,58.13,32.86,56,32.86,56Z"/>
    <path class="cls-1" d="M15.18,72l1.2-1.91,13.18-6.77a16.22,16.22,0,0,0,8.23,2.28c4.57-.08,5.7-.32,8.46-2.2,2.18,1.16,12.24,7,12.24,7L59.4,72Z"/>
  </g>
  <rect class="cls-1" x="73.87" y="27.21" width="69.55" height="3.36"/>
  <rect class="cls-1" x="74.48" y="40.23" width="69.55" height="3.36"/>
  <rect class="cls-1" x="74.48" y="53.25" width="69.55" height="3.36"/>
  <rect class="cls-1" x="74.48" y="66.28" width="34.16" height="3.36"/>
  <path class="cls-1" d="M.54,9.55h157.2v98.57a6.06,6.06,0,0,1-6.06,6.06H6.6a6.06,6.06,0,0,1-6.06-6.06Z"/>
  <line class="cls-1" x1="0.54" y1="11.64" x2="0.54"/>
  <line class="cls-1" x1="157.81" y1="11.64" x2="157.81"/>
  <line class="cls-1" x1="0.54" y1="88.95" x2="157.74" y2="88.95"/>
  <polyline class="cls-1" points="6.49 93.94 9.53 96.99 6.43 100.09"/>
  <polyline class="cls-1" points="12.9 93.94 15.95 96.99 12.84 100.09"/>
  <polyline class="cls-1" points="19.31 93.94 22.36 96.99 19.26 100.09"/>
  <polyline class="cls-1" points="25.73 93.94 28.77 96.99 25.67 100.09"/>
  <polyline class="cls-1" points="32.14 93.94 35.19 96.99 32.08 100.09"/>
  <polyline class="cls-1" points="149.96 101.99 146.91 105.04 150.02 108.14"/>
  <polyline class="cls-1" points="143.58 101.99 140.53 105.04 143.64 108.14"/>
  <polyline class="cls-1" points="137.2 101.99 134.16 105.04 137.26 108.14"/>
  <polyline class="cls-1" points="130.83 101.99 127.78 105.04 130.88 108.14"/>
  <polyline class="cls-1" points="124.45 101.99 121.4 105.04 124.5 108.14"/>
  <polyline class="cls-1" points="118.07 101.99 115.02 105.04 118.13 108.14"/>
  <polyline class="cls-1" points="111.69 101.99 108.64 105.04 111.75 108.14"/>
  <g>
    <path class="cls-2" d="M39.4,93.22h1.47L43,97.1l2.12-3.88H46.6v6.87H45.12V95.81L43,99.69l-2.13-3.88v4.28H39.4Z"/>
    <path class="cls-2" d="M52.14,100.09l-1.57-2.23H49.48v2.23H48V93.22h3.1a2.38,2.38,0,0,1,2.58,2.16.86.86,0,0,1,0,.16,2.24,2.24,0,0,1-1.56,2.15l1.69,2.4Zm-2.66-3.58h1.46c.73,0,1.23-.38,1.23-1s-.5-1-1.23-1H49.48Z"/>
    <path class="cls-2" d="M54.58,99l3.61-4.42H54.66V93.22h5.56v1.12l-3.61,4.42h3.65v1.33H54.59Z"/>
  </g>
</svg>
