<svg width="109" height="79" viewBox="0 0 109 79" fill="none" xmlns="http://www.w3.org/2000/svg">
<g clip-path="url(#clip0_1398_1581)">
<path d="M42.4069 15.4803H8.96222V49.617H42.4069V15.4803Z" stroke="#2B2B2B" stroke-miterlimit="10"/>
<path d="M19.1713 31.9114C19.2402 32.0423 19.309 32.0768 19.309 31.9114C19.309 30.8918 19.5295 28.5425 20.9141 27.5642C22.6432 26.3517 22.4572 26.772 22.8843 25.4974C22.8892 25.4818 22.8979 25.4676 22.9098 25.4563C22.9216 25.445 22.9362 25.4369 22.952 25.4328C22.9679 25.4286 22.9845 25.4286 23.0004 25.4327C23.0163 25.4368 23.0308 25.4448 23.0427 25.4561C23.7635 26.1755 24.625 26.7383 25.5732 27.1093C26.5215 27.4804 27.5362 27.6517 28.5537 27.6125C32.1014 27.4609 31.4883 27.8398 31.9085 29.5621C32.0087 29.9875 32.1352 30.4063 32.2874 30.816C32.4045 31.126 32.4251 31.2018 32.5767 30.9056C33.623 29.0478 34.1199 26.9309 34.0095 24.8016C33.7822 20.2202 28.7121 17.7745 26.0324 17.7745C25.3196 17.7334 24.6059 17.8387 23.9353 18.0839C23.2647 18.3292 22.6515 18.7092 22.1334 19.2006C21.3273 20.111 20.2504 20.7388 19.0611 20.9918C16.9944 21.4396 16.5605 24.0438 17.2907 26.7857C17.701 28.5661 18.3328 30.2881 19.1713 31.9114V31.9114Z" stroke="#2B2B2B" stroke-miterlimit="10"/>
<path d="M32.1496 33.3993C32.9349 33.2959 33.3345 32.4899 33.6444 31.2155C33.9544 29.9411 32.4734 30.7471 32.4734 30.7471C32.4183 31.4015 32.3425 32.2282 32.1978 33.1099C31.7087 36.0927 30.4136 39.7438 26.1151 39.7782C20.549 39.8264 19.0817 31.7391 19.0817 31.7391C19.0817 31.7391 18.2206 29.9962 17.8831 31.1742C17.3802 32.9308 19.5777 33.5715 19.5777 33.5715" stroke="#2B2B2B" stroke-miterlimit="10"/>
<path d="M22.6362 38.5803C22.6362 38.5803 22.2505 42.6515 20.363 43.6572C22.0908 44.6488 24.0406 45.189 26.0324 45.2279C28.7879 45.2899 30.9027 44.8352 31.8602 43.7123C30.7787 42.4724 30.4825 43.0235 29.8763 38.3254C28.8559 39.195 27.5834 39.7141 26.2459 39.8064C24.3722 40.0476 22.6362 38.5803 22.6362 38.5803Z" stroke="#2B2B2B" stroke-miterlimit="10"/>
<path d="M10.457 49.6027L11.2837 48.2869L20.363 43.6233C22.0786 44.6439 24.0362 45.1862 26.0324 45.1939C29.1805 45.1388 29.959 44.9735 31.8602 43.6784C33.362 44.4775 40.292 48.5005 40.292 48.5005L40.9189 49.6027H10.457Z" stroke="#2B2B2B" stroke-miterlimit="10"/>
<path d="M98.7979 18.7458H50.8869V21.0605H98.7979V18.7458Z" stroke="#2B2B2B" stroke-miterlimit="10"/>
<path d="M99.218 27.7158H51.3071V30.0304H99.218V27.7158Z" stroke="#2B2B2B" stroke-miterlimit="10"/>
<path d="M99.218 36.6857H51.3071V39.0003H99.218V36.6857Z" stroke="#2B2B2B" stroke-miterlimit="10"/>
<path d="M74.8389 45.6625H51.3071V47.9771H74.8389V45.6625Z" stroke="#2B2B2B" stroke-miterlimit="10"/>
<path d="M0.372009 6.57928H108.662V74.4875C108.662 75.5947 108.223 76.6566 107.44 77.4396C106.657 78.2225 105.595 78.6624 104.488 78.6624H4.54657C3.4394 78.6624 2.37759 78.2225 1.59471 77.4396C0.811827 76.6566 0.372009 75.5947 0.372009 74.4875V6.57928Z" stroke="#2B2B2B" stroke-miterlimit="10"/>
<path d="M0.372009 8.01845V0" stroke="#2B2B2B" stroke-miterlimit="10"/>
<path d="M108.711 8.01845V0" stroke="#2B2B2B" stroke-miterlimit="10"/>
<path d="M0.372009 61.2806H108.662" stroke="#2B2B2B" stroke-miterlimit="10"/>
<path d="M4.47078 64.7184L6.56494 66.8195L4.42944 68.955" stroke="#2B2B2B" stroke-miterlimit="10"/>
<path d="M8.88642 64.7184L10.9875 66.8195L8.84509 68.955" stroke="#2B2B2B" stroke-miterlimit="10"/>
<path d="M13.3021 64.7184L15.4031 66.8195L13.2676 68.955" stroke="#2B2B2B" stroke-miterlimit="10"/>
<path d="M17.7246 64.7184L19.8188 66.8195L17.6833 68.955" stroke="#2B2B2B" stroke-miterlimit="10"/>
<path d="M22.1403 64.7184L24.2414 66.8195L22.099 68.955" stroke="#2B2B2B" stroke-miterlimit="10"/>
<path d="M103.303 70.2643L101.202 72.3654L103.344 74.5009" stroke="#2B2B2B" stroke-miterlimit="10"/>
<path d="M98.9081 70.2643L96.807 72.3654L98.9494 74.5009" stroke="#2B2B2B" stroke-miterlimit="10"/>
<path d="M94.513 70.2643L92.4189 72.3654L94.5544 74.5009" stroke="#2B2B2B" stroke-miterlimit="10"/>
<path d="M90.1249 70.2643L88.0239 72.3654L90.1594 74.5009" stroke="#2B2B2B" stroke-miterlimit="10"/>
<path d="M85.73 70.2643L83.6289 72.3654L85.7644 74.5009" stroke="#2B2B2B" stroke-miterlimit="10"/>
<path d="M81.335 70.2643L79.2339 72.3654L81.3763 74.5009" stroke="#2B2B2B" stroke-miterlimit="10"/>
<path d="M76.94 70.2643L74.8389 72.3654L76.9813 74.5009" stroke="#2B2B2B" stroke-miterlimit="10"/>
<path d="M27.1415 64.2224H28.1541L29.6214 66.8952L31.0818 64.2224H32.1014V68.9549H31.0818V66.0065L29.6214 68.6793L28.1541 66.0065V68.9549H27.1415V64.2224Z" fill="#2B2B2B"/>
<path d="M35.9177 68.9549L34.8361 67.4187H34.0853V68.9549H33.0657V64.2224H35.2012C35.4249 64.2025 35.6504 64.2288 35.8635 64.2997C36.0766 64.3705 36.2729 64.4844 36.4402 64.6342C36.6075 64.7841 36.7422 64.9667 36.836 65.1708C36.9298 65.3748 36.9806 65.596 36.9854 65.8205C36.9877 66.1498 36.8847 66.4711 36.6913 66.7376C36.498 67.004 36.2245 67.2017 35.9108 67.3016L37.075 68.9549H35.9177ZM34.0853 66.4888H35.091C35.5939 66.4888 35.9383 66.227 35.9383 65.7999C35.9383 65.3728 35.5939 65.111 35.091 65.111H34.0853V66.4888Z" fill="#2B2B2B"/>
<path d="M37.5985 68.204L40.0853 65.1592H37.6536V64.2224H41.4837V64.9939L38.9969 68.0387H41.5113V68.9549H37.6054L37.5985 68.204Z" fill="#2B2B2B"/>
</g>
<defs>
<clipPath id="clip0_1398_1581">
<rect width="109" height="79" fill="white"/>
</clipPath>
</defs>
</svg>
