<svg width="314" height="256" viewBox="0 0 314 256" fill="none" xmlns="http://www.w3.org/2000/svg">
<g clip-path="url(#clip0_1604_1087)">
<path d="M155.229 256C223.587 256 279.003 247.849 279.003 237.795C279.003 227.741 223.587 219.59 155.229 219.59C86.8699 219.59 31.4541 227.741 31.4541 237.795C31.4541 247.849 86.8699 256 155.229 256Z" fill="#F0EFEF"/>
<path d="M221.344 102.124L227.576 105.73L158.56 224.857L152.563 221.393L221.344 102.124Z" fill="#D3D2D2"/>
<path d="M296.034 26.3587L248.385 0.471185C247.932 0.224194 247.434 0.0699101 246.921 0.017314C246.408 -0.0352821 245.889 0.0148609 245.395 0.164824L192.679 16.072C191.697 16.3686 190.872 17.0421 190.384 17.9455L164.285 66.0914C163.797 66.9932 163.682 68.0516 163.968 69.0371L179.403 121.937C179.544 122.436 179.782 122.901 180.105 123.305C180.427 123.71 180.827 124.046 181.281 124.294L228.947 150.182C229.399 150.427 229.895 150.58 230.406 150.633C230.917 150.686 231.433 150.636 231.925 150.488L284.641 134.61C285.129 134.465 285.583 134.224 285.978 133.903C286.372 133.581 286.7 133.185 286.942 132.737L313.041 84.5909C313.529 83.6886 313.641 82.6297 313.353 81.6451L297.917 28.6917C297.772 28.1981 297.53 27.738 297.207 27.3376C296.884 26.9373 296.485 26.6047 296.034 26.3587Z" fill="#EE6A6A"/>
<path d="M287.325 33.5229L247.161 11.6946C246.71 11.4506 246.215 11.298 245.706 11.2454C245.196 11.1928 244.68 11.2414 244.189 11.3883L199.73 24.7798C198.749 25.0755 197.924 25.7466 197.435 26.6474L175.431 67.2461C175.188 67.6922 175.034 68.1819 174.98 68.6874C174.925 69.1928 174.971 69.7041 175.114 70.1919L188.125 114.797C188.267 115.294 188.507 115.758 188.829 116.163C189.151 116.567 189.55 116.904 190.002 117.154L230.172 138.952C230.623 139.198 231.119 139.351 231.63 139.404C232.141 139.456 232.657 139.407 233.149 139.259L277.597 125.873C278.58 125.574 279.406 124.902 279.898 124L301.889 83.4067C302.38 82.5052 302.494 81.4463 302.207 80.4609L289.202 35.85C289.059 35.357 288.819 34.8974 288.496 34.4979C288.174 34.0984 287.776 33.7669 287.325 33.5229Z" stroke="white" stroke-width="3.36"/>
<path d="M205.491 67.8118C205.717 67.4159 205.865 66.9797 205.926 66.5275C205.998 66.0687 205.939 65.599 205.755 65.1724C205.506 64.5699 205.177 64.0033 204.779 63.4874C204.177 62.7062 203.529 61.9625 202.837 61.2604C201.95 60.325 201.115 59.3416 200.336 58.3146C199.632 57.3942 199.039 56.3935 198.57 55.3335C198.156 54.3647 197.938 53.3235 197.929 52.2699C197.973 51.1763 198.27 50.1079 198.797 49.1489C199.324 48.19 200.066 47.3666 200.965 46.7436C201.881 46.1426 202.921 45.7578 204.008 45.6183C205.21 45.4511 206.432 45.503 207.615 45.7715C208.98 46.0786 210.294 46.5806 211.517 47.2621C213.161 48.1069 214.592 49.3158 215.701 50.797C216.652 52.0692 217.232 53.5803 217.378 55.1626C217.51 56.7233 217.169 58.2875 216.401 59.652L211.399 56.936C211.774 56.2894 211.977 55.5569 211.987 54.8091C211.983 54.0861 211.759 53.3814 211.346 52.7883C210.829 52.0702 210.144 51.4897 209.351 51.0975C208.617 50.6654 207.798 50.3981 206.95 50.3139C206.304 50.2418 205.651 50.3627 205.073 50.6615C204.542 50.9397 204.109 51.3734 203.831 51.9046C203.614 52.2966 203.508 52.7409 203.525 53.189C203.573 53.6974 203.718 54.1917 203.955 54.6442C204.257 55.2307 204.62 55.7837 205.038 56.2938C205.566 56.9548 206.127 57.588 206.721 58.1909C207.735 59.1986 208.662 60.2905 209.492 61.4548C210.177 62.3996 210.724 63.4371 211.117 64.5361C211.455 65.479 211.587 66.4835 211.505 67.4819C211.403 68.5325 211.082 69.55 210.563 70.4689C210.044 71.4649 209.301 72.3262 208.392 72.9846C207.52 73.6086 206.511 74.0128 205.449 74.1629C204.271 74.3195 203.073 74.2536 201.919 73.9685C199.22 73.297 196.74 71.9417 194.716 70.0329C193.742 69.1057 192.927 68.025 192.303 66.8338C191.707 65.6821 191.386 64.4074 191.367 63.1104C191.368 61.7011 191.735 60.3163 192.432 59.0923L197.481 61.8319C197.106 62.4853 196.87 63.2094 196.787 63.9587C196.735 64.5792 196.838 65.2029 197.087 65.7733C197.373 66.3612 197.773 66.886 198.264 67.3169C198.832 67.8176 199.456 68.2506 200.124 68.6072C200.844 69.035 201.646 69.306 202.478 69.4025C203.085 69.4868 203.704 69.3788 204.248 69.0936C204.791 68.8084 205.232 68.3602 205.508 67.8118H205.491Z" fill="white"/>
<path d="M234.65 60.2883L221.397 84.7382L216.383 82.0104L229.636 57.5664L234.65 60.2883ZM242.165 64.3711L240.022 68.3184L220.091 57.4898L222.227 53.5424L242.165 64.3711Z" fill="white"/>
<path d="M258.307 88.2261L257.677 89.4044C256.782 91.1168 255.611 92.6695 254.211 93.9998C253.007 95.1439 251.586 96.0353 250.033 96.6215C248.57 97.1516 247.009 97.3528 245.46 97.2107C242.166 96.8376 239.146 95.1959 237.039 92.633C236.079 91.4102 235.396 89.9929 235.038 88.4794C234.673 86.8537 234.633 85.1717 234.92 83.5305C235.273 81.6303 235.935 79.8011 236.88 78.1162L237.51 76.9378C238.404 75.2248 239.575 73.6719 240.976 72.3424C242.183 71.2023 243.603 70.3114 245.154 69.7207C246.618 69.1897 248.182 68.9886 249.732 69.1315C253.027 69.4989 256.049 71.1392 258.154 73.7034C259.121 74.9273 259.803 76.3526 260.148 77.8746C260.514 79.4987 260.548 81.18 260.249 82.8176C259.909 84.7169 259.253 86.5453 258.307 88.2261ZM252.592 86.6059L253.24 85.4276C253.879 84.2838 254.385 83.07 254.746 81.8102C255.034 80.8201 255.137 79.7858 255.052 78.7583C254.978 77.8907 254.683 77.0567 254.193 76.3369C253.672 75.6123 252.995 75.0145 252.211 74.5882C251.428 74.1618 250.558 73.9178 249.668 73.8742C248.804 73.8589 247.95 74.0615 247.184 74.4634C246.291 74.9597 245.494 75.6122 244.83 76.3899C243.971 77.3795 243.229 78.4648 242.618 79.6244L241.97 80.8027C241.335 81.9477 240.831 83.1613 240.47 84.4201C240.181 85.416 240.074 86.4557 240.152 87.4896C240.229 88.3602 240.52 89.198 240.999 89.9287C241.519 90.6555 242.197 91.2544 242.982 91.6801C243.767 92.1057 244.639 92.3469 245.531 92.3855C246.4 92.3928 247.257 92.1779 248.02 91.761C248.909 91.2511 249.705 90.5937 250.374 89.8168C251.234 88.8353 251.978 87.7579 252.592 86.6059Z" fill="white"/>
<path d="M269.223 99.4376L263.003 96.0618L265.133 92.1321L271.353 95.5139C272.146 95.9839 273.04 96.2585 273.96 96.3151C274.693 96.3365 275.412 96.1171 276.008 95.6906C276.625 95.2463 277.129 94.6631 277.479 93.988C277.863 93.2922 278.095 92.5233 278.162 91.7315C278.22 90.9533 278.044 90.1754 277.656 89.4986C277.163 88.7025 276.455 88.0629 275.614 87.6545L271.135 85.2213L260.025 105.724L254.993 102.99L268.246 78.5403L277.762 83.7072C279.485 84.5815 280.976 85.8538 282.11 87.4189C283.079 88.7453 283.64 90.3261 283.723 91.9672C283.778 93.6268 283.37 95.2689 282.546 96.7099C281.799 98.1717 280.65 99.3883 279.233 100.215C277.827 100.981 276.225 101.313 274.631 101.17C272.724 100.99 270.879 100.399 269.223 99.4376Z" fill="white"/>
<path d="M33.5725 86.924L127.329 55.9698C131.136 54.709 135.156 56.612 135.744 59.9525L156.8 179.18L60.8779 241.63L33.5725 86.924Z" fill="#DED3D0"/>
<path d="M33.574 86.9116L145.17 67.2115C147.168 66.8588 149.224 67.3152 150.886 68.4803C152.548 69.6454 153.68 71.4238 154.032 73.4242L178.527 212.499C178.879 214.5 178.423 216.559 177.259 218.222C176.096 219.886 174.319 221.019 172.321 221.372L60.7254 241.072L33.574 86.9116Z" fill="#333333"/>
<path d="M64.4028 102.531L131.277 90.6946" stroke="white" stroke-width="3.36" stroke-miterlimit="10"/>
<path d="M106.662 180.682C125.486 180.682 140.746 165.405 140.746 146.558C140.746 127.712 125.486 112.435 106.662 112.435C87.8371 112.435 72.5769 127.712 72.5769 146.558C72.5769 165.405 87.8371 180.682 106.662 180.682Z" stroke="white" stroke-width="3" stroke-miterlimit="10"/>
<path d="M119.461 178.196C126.573 167.917 129.342 155.243 127.168 142.93C124.994 130.616 118.051 119.661 107.85 112.446" stroke="white" stroke-width="3" stroke-miterlimit="10"/>
<path d="M93.7854 114.933C86.6721 125.211 83.9012 137.886 86.0757 150.2C88.2501 162.513 95.1939 173.469 105.396 180.682" stroke="white" stroke-width="3" stroke-miterlimit="10"/>
<path d="M100.724 112.953L112.593 180.158" stroke="white" stroke-width="3" stroke-miterlimit="10"/>
<path d="M84.5173 172.481C91.2839 166.01 99.8137 161.69 109.03 160.067C118.247 158.443 127.737 159.59 136.303 163.361" stroke="white" stroke-width="3" stroke-miterlimit="10"/>
<path d="M76.855 130.009C85.4748 133.822 95.0339 134.977 104.312 133.326C113.591 131.675 122.167 127.294 128.947 120.742" stroke="white" stroke-width="3" stroke-miterlimit="10"/>
<path d="M73.0359 152.456L140.164 140.579" stroke="white" stroke-width="3" stroke-miterlimit="10"/>
<path d="M117.354 207.554C116.329 207.736 115.272 207.579 114.343 207.107C113.414 206.635 112.664 205.874 112.205 204.938L104.26 206.34L105.037 210.77C105.146 211.372 105.488 211.905 105.989 212.255C106.489 212.605 107.108 212.743 107.709 212.638L128.153 209.026C128.451 208.975 128.735 208.864 128.99 208.702C129.246 208.539 129.466 208.328 129.639 208.08C129.813 207.832 129.936 207.552 130.001 207.257C130.065 206.961 130.072 206.656 130.018 206.358L129.241 201.927L121.297 203.329C121.186 204.366 120.742 205.339 120.031 206.101C119.319 206.863 118.38 207.373 117.354 207.554Z" fill="white"/>
<path d="M125.345 192.99L104.896 196.595C104.295 196.704 103.762 197.047 103.413 197.548C103.063 198.049 102.926 198.668 103.03 199.27L103.813 203.701L111.757 202.298C111.87 201.262 112.315 200.291 113.026 199.53C113.737 198.769 114.676 198.26 115.701 198.078C116.725 197.897 117.781 198.054 118.71 198.525C119.638 198.996 120.389 199.755 120.849 200.69L128.794 199.288L128.011 194.857C127.959 194.559 127.849 194.274 127.687 194.019C127.525 193.763 127.314 193.542 127.066 193.369C126.818 193.195 126.539 193.072 126.243 193.007C125.948 192.942 125.643 192.936 125.345 192.99Z" fill="white"/>
<path d="M116.519 205.686C118.105 205.686 119.39 204.399 119.39 202.811C119.39 201.223 118.105 199.936 116.519 199.936C114.932 199.936 113.647 201.223 113.647 202.811C113.647 204.399 114.932 205.686 116.519 205.686Z" fill="white"/>
<path d="M255.523 174.025L157.545 161.998C155.668 161.768 153.959 163.105 153.729 164.984L146.062 227.59C145.831 229.47 147.167 231.181 149.044 231.411L247.022 243.438C248.899 243.668 250.608 242.331 250.838 240.452L258.505 177.845C258.735 175.966 257.4 174.255 255.523 174.025Z" fill="#EAEAEA"/>
<path opacity="0.31" d="M251.668 233.571L250.874 240.052C250.744 241.56 248.085 243.587 246.443 243.374L149.62 231.491C148.137 231.309 145.878 229.005 146.09 227.179L146.884 220.698L251.668 233.571Z" fill="#A5A5A5"/>
<path d="M198.705 176.046L199.364 176.122L198.964 179.433L198.299 179.351L198.705 176.046Z" fill="#010101"/>
<path d="M202.713 178.22C202.693 178.447 202.625 178.668 202.513 178.867C202.402 179.066 202.249 179.239 202.065 179.375C201.881 179.51 201.671 179.605 201.448 179.653C201.225 179.7 200.994 179.7 200.771 179.651L199.594 179.51L200 176.205L201.177 176.346C201.406 176.353 201.631 176.409 201.837 176.51C202.043 176.612 202.225 176.756 202.37 176.933C202.516 177.111 202.622 177.317 202.681 177.539C202.74 177.761 202.751 177.993 202.713 178.22ZM200.812 179.103C200.957 179.138 201.107 179.139 201.252 179.108C201.397 179.076 201.533 179.013 201.651 178.922C201.768 178.831 201.864 178.715 201.93 178.582C201.997 178.449 202.033 178.303 202.036 178.155C202.069 178.009 202.07 177.858 202.038 177.712C202.006 177.567 201.942 177.43 201.851 177.311C201.759 177.193 201.643 177.097 201.511 177.029C201.378 176.96 201.232 176.923 201.083 176.918L200.612 176.865L200.347 179.044L200.812 179.103Z" fill="#010101"/>
<path d="M205.261 177.389L204.007 177.236L203.907 178.067L205.02 178.202L204.955 178.726L203.843 178.591L203.731 179.469L204.984 179.622L204.92 180.164L203.007 179.928L203.413 176.617L205.326 176.853L205.261 177.389Z" fill="#010101"/>
<path d="M208.751 177.271L208.345 180.582L207.686 180.5L206.462 178.049L206.185 180.317L205.52 180.235L205.926 176.924L206.591 177.006L207.809 179.463L208.092 177.189L208.751 177.271Z" fill="#010101"/>
<path d="M209.227 177.336L211.652 177.63L211.581 178.167L210.704 178.061L210.363 180.83L209.704 180.747L210.039 177.978L209.163 177.872L209.227 177.336Z" fill="#010101"/>
<path d="M212.129 177.689L212.794 177.772L212.388 181.077L211.729 181L212.129 177.689Z" fill="#010101"/>
<path d="M213.27 177.831L215.695 178.131L215.624 178.667L214.747 178.555L214.406 181.324L213.747 181.248L214.082 178.473L213.206 178.367L213.27 177.831Z" fill="#010101"/>
<path d="M215.901 178.155L216.648 178.249L217.172 179.846L218.061 178.42L218.802 178.508L217.419 180.529L217.278 181.678L216.613 181.596L216.754 180.417L215.901 178.155Z" fill="#010101"/>
<path d="M221.856 178.838C222.198 178.864 222.522 179.001 222.778 179.229C223.034 179.457 223.209 179.763 223.275 180.099L222.516 180.005C222.465 179.845 222.368 179.703 222.237 179.599C222.106 179.494 221.947 179.43 221.78 179.416C221.502 179.403 221.229 179.496 221.017 179.676C220.804 179.856 220.667 180.11 220.633 180.386C220.599 180.663 220.67 180.942 220.832 181.169C220.995 181.395 221.237 181.552 221.509 181.607C221.673 181.636 221.842 181.615 221.994 181.547C222.146 181.478 222.275 181.366 222.362 181.224L223.128 181.319C222.983 181.63 222.739 181.885 222.435 182.043C222.13 182.202 221.782 182.256 221.444 182.197C221.015 182.122 220.63 181.885 220.37 181.534C220.11 181.183 219.995 180.746 220.048 180.313C220.101 179.879 220.318 179.483 220.654 179.205C220.991 178.927 221.421 178.79 221.856 178.821V178.838Z" fill="#010101"/>
<path d="M225.634 182.049L224.322 181.89L224.028 182.479L223.333 182.391L224.922 179.227L225.693 179.321L226.476 182.78L225.775 182.691L225.634 182.049ZM225.21 180.052L224.563 181.378L225.522 181.495L225.21 180.052Z" fill="#010101"/>
<path d="M228.565 179.693C229.359 179.793 229.701 180.282 229.63 180.871C229.608 181.092 229.51 181.299 229.352 181.456C229.194 181.613 228.987 181.71 228.765 181.731L229.389 183.169L228.624 183.074L228.035 181.696L227.724 181.654L227.565 182.945L226.9 182.862L227.306 179.557L228.565 179.693ZM228.471 180.24L227.918 180.17L227.8 181.142L228.353 181.213C228.724 181.254 228.912 181.083 228.942 180.782C228.971 180.482 228.842 180.282 228.471 180.282V180.24Z" fill="#010101"/>
<path d="M233.037 181.943C233.018 182.171 232.951 182.392 232.84 182.592C232.728 182.792 232.575 182.965 232.391 183.101C232.207 183.236 231.997 183.331 231.773 183.378C231.549 183.425 231.318 183.424 231.095 183.375L229.918 183.233L230.319 179.928L231.496 180.07C231.725 180.077 231.95 180.133 232.156 180.234C232.362 180.335 232.544 180.479 232.69 180.657C232.836 180.834 232.943 181.04 233.003 181.262C233.063 181.484 233.074 181.716 233.037 181.943ZM231.137 182.809C231.281 182.843 231.431 182.845 231.576 182.814C231.721 182.782 231.858 182.719 231.975 182.628C232.092 182.537 232.188 182.421 232.255 182.288C232.321 182.155 232.358 182.009 232.361 181.861C232.394 181.715 232.394 181.564 232.362 181.419C232.33 181.273 232.266 181.137 232.175 181.019C232.084 180.901 231.968 180.805 231.835 180.738C231.702 180.67 231.556 180.633 231.407 180.629L230.937 180.57L230.683 182.756L231.137 182.809Z" fill="#010101"/>
<path d="M190.785 174.23L158.321 170.245L154.281 203.232L186.745 207.217L190.785 174.23Z" fill="white"/>
<path d="M169.194 192.848L168.017 197.126C167.951 197.394 167.821 197.641 167.637 197.847C167.453 198.052 167.222 198.209 166.963 198.304L160.961 200.443L181.204 203.094L177.32 200.225C176.975 199.966 176.69 199.635 176.487 199.254C176.284 198.873 176.166 198.452 176.143 198.021L175.873 193.85L169.194 192.848Z" fill="#E3DDD6"/>
<path d="M168.894 193.974C168.894 193.974 169.411 195.947 172.148 196.236C174.884 196.525 175.938 194.846 175.938 194.846L168.894 193.974Z" fill="#B0AAA6"/>
<path d="M179.486 187.228C179.486 187.228 180.698 187.322 180.634 188.312C180.569 189.302 179.021 190.315 179.021 190.315L179.486 187.228Z" fill="#E3DDD6"/>
<path d="M167.299 185.82C167.299 185.82 166.122 185.513 165.863 186.468C165.604 187.422 166.922 188.748 166.922 188.748L167.299 185.82Z" fill="#E3DDD6"/>
<path d="M167.128 186.279L166.91 188.011C166.91 188.011 166.805 191.364 168.758 193.797C170.712 196.23 173.749 195.67 174.684 195.346C175.62 195.022 177.038 194.687 178.392 192.253C179.745 189.82 179.61 185.183 179.61 185.183C179.61 185.183 179.851 181.183 178.039 180.47C176.226 179.757 172.154 178.703 170.2 179.946C168.246 181.189 167.128 186.279 167.128 186.279Z" fill="#E1DCD4"/>
<path d="M173.23 187.193L172.136 190.751L172.777 191.228L173.23 187.193Z" fill="#B0AAA6"/>
<path d="M171.889 181.401C171.889 181.401 172.43 183.964 176.232 184.582C177.079 184.759 177.732 184.877 177.732 184.877C177.732 184.877 179.433 185.254 179.174 186.556C179.019 187.577 178.974 188.612 179.039 189.643C180.127 188.33 181.316 187.617 182.334 184.341C182.796 182.902 182.837 181.36 182.451 179.898C182.065 178.436 181.269 177.116 180.157 176.093C178.121 174.184 176.396 173.736 174.861 174.119C173.856 174.292 172.885 174.622 171.983 175.097C171.416 175.38 170.786 175.512 170.153 175.48C169.224 175.432 168.3 175.653 167.493 176.117C166.686 176.581 166.03 177.268 165.604 178.096C164.315 180.547 166.669 185.755 166.963 187.469C167.669 185.808 167.11 184.871 168.917 183.381C170.3 182.314 171.465 182.185 171.889 181.401Z" fill="#333333"/>
<path d="M155.282 203.359L156.736 201.857L166.363 198.163C166.363 198.163 168.093 200.077 171.842 200.431C175.59 200.784 177.209 199.647 177.209 199.647L184.782 205.091L186.012 207.13L155.282 203.359Z" fill="#FF5A28"/>
<path d="M170.106 187.646C170.411 187.646 170.659 187.398 170.659 187.092C170.659 186.786 170.411 186.539 170.106 186.539C169.8 186.539 169.553 186.786 169.553 187.092C169.553 187.398 169.8 187.646 170.106 187.646Z" fill="#333333"/>
<path d="M175.72 188.336C176.025 188.336 176.273 188.088 176.273 187.782C176.273 187.476 176.025 187.228 175.72 187.228C175.414 187.228 175.167 187.476 175.167 187.782C175.167 188.088 175.414 188.336 175.72 188.336Z" fill="#333333"/>
<path d="M171.683 192.89C172.5 192.956 173.323 192.9 174.125 192.725C173.975 192.918 173.778 193.07 173.554 193.168C173.33 193.266 173.085 193.306 172.842 193.284C172.632 193.3 172.421 193.273 172.222 193.205C172.023 193.137 171.839 193.03 171.683 192.89Z" fill="#F2F2F2"/>
<path d="M245.946 215.848L227.418 213.573C225.831 213.379 224.387 214.509 224.192 216.098L222.119 233.027C221.924 234.616 223.053 236.062 224.64 236.257L243.168 238.531C244.755 238.726 246.2 237.596 246.394 236.007L248.467 219.078C248.662 217.489 247.533 216.043 245.946 215.848Z" fill="white"/>
<path d="M227.606 217.593L230.177 217.905L228.412 232.175L225.84 231.856L227.606 217.593Z" fill="#FF5A28"/>
<path d="M233.349 218.294L238.375 218.913C243.083 219.502 246.025 222.848 245.531 227.019C245.037 231.191 241.335 233.759 236.621 233.182L231.602 232.563L233.349 218.294ZM237.157 230.867C240.164 231.238 242.524 229.506 242.871 226.701C243.218 223.897 241.341 221.664 238.334 221.293L235.633 220.963L234.456 230.537L237.157 230.867Z" fill="#FF5A28"/>
<path d="M241.115 198.793L196.601 193.329L196.308 195.715L240.823 201.179L241.115 198.793Z" fill="#B7B8BA"/>
<path d="M241.859 192.679L197.344 187.215L197.052 189.601L241.567 195.065L241.859 192.679Z" fill="#B7B8BA"/>
<path d="M240.335 205.115L195.82 199.65L195.528 202.036L240.042 207.5L240.335 205.115Z" fill="#B7B8BA"/>
<path d="M215.307 208.457L195.05 205.971L194.758 208.357L215.014 210.843L215.307 208.457Z" fill="#B7B8BA"/>
<path d="M160.16 224.722C159.468 224.635 158.822 224.327 158.319 223.843C157.816 223.359 157.484 222.724 157.371 222.035L152.01 221.375L151.645 224.362C151.595 224.769 151.708 225.178 151.96 225.501C152.211 225.823 152.581 226.033 152.987 226.083L166.786 227.779C167.192 227.829 167.601 227.716 167.923 227.464C168.246 227.212 168.455 226.842 168.505 226.436L168.87 223.443L163.509 222.789C163.235 223.431 162.76 223.966 162.156 224.315C161.552 224.663 160.852 224.806 160.16 224.722Z" fill="#FF5A28"/>
<path d="M168.11 216.957L154.316 215.26C153.911 215.21 153.502 215.323 153.179 215.575C152.857 215.827 152.648 216.197 152.598 216.603L152.227 219.596L157.588 220.25C157.863 219.608 158.338 219.072 158.942 218.724C159.547 218.375 160.248 218.233 160.94 218.318C161.633 218.403 162.279 218.711 162.781 219.196C163.284 219.68 163.615 220.315 163.726 221.004L169.087 221.664L169.458 218.677C169.483 218.475 169.467 218.271 169.413 218.075C169.358 217.88 169.266 217.697 169.141 217.537C169.016 217.377 168.86 217.243 168.683 217.144C168.506 217.044 168.312 216.981 168.11 216.957Z" fill="#FF5A28"/>
<path d="M160.549 223.449C161.611 223.449 162.473 222.587 162.473 221.523C162.473 220.459 161.611 219.596 160.549 219.596C159.486 219.596 158.624 220.459 158.624 221.523C158.624 222.587 159.486 223.449 160.549 223.449Z" fill="#FF5A28"/>
</g>
<defs>
<clipPath id="clip0_1604_1087">
<rect width="314" height="256" fill="white"/>
</clipPath>
</defs>
</svg>
