<svg width="92" height="92" viewBox="0 0 92 92" fill="none" xmlns="http://www.w3.org/2000/svg">
<g clip-path="url(#clip0_1651_2935)">
<path d="M37.2649 56.8396L35.2808 69.5778C35.1675 70.3565 34.8643 71.0972 34.3968 71.7378C33.9292 72.3784 33.3108 72.9002 32.5937 73.2592L15.6432 81.5338L76.3568 82.0055L63.6223 75.2993C61.4982 73.8702 60.0387 71.6803 59.5614 69.2063L57.2489 57.2897L37.2649 56.8396Z" fill="#E3DDD6"/>
<path d="M36.7412 60.1907C36.7412 60.1907 38.9993 65.6941 47.1693 65.5526C55.3394 65.411 57.8573 60.2104 57.8573 60.2104L36.7412 60.1907Z" fill="#B0AAA6"/>
<path d="M65.6366 37.0355C65.6366 37.0355 69.2462 36.8763 69.4094 39.7439C69.5725 42.6115 65.3807 46.0806 65.3807 46.0806L65.6366 37.0355Z" fill="#E3DDD6"/>
<path d="M27.2417 39.1425C27.2417 39.1425 23.6764 39.7144 24.1256 42.5526C24.5748 45.3907 29.7657 47.3424 29.7657 47.3424L27.2417 39.1425Z" fill="#E3DDD6"/>
<path d="M28.6919 38.6766V43.7436C28.6919 43.7436 29.5842 53.4157 36.2335 59.7289C42.8828 66.042 51.6491 63.3689 54.2899 62.1051C56.9306 60.8413 60.9935 59.377 64.1117 51.8846C67.2298 44.3922 65.1611 31.1135 65.1611 31.1135C65.1611 31.1135 64.4199 19.5172 58.8019 18.0411C53.184 16.565 40.8745 15.0929 35.4661 19.3069C30.0576 23.5209 28.6919 38.6766 28.6919 38.6766Z" fill="#E1DCD4"/>
<path d="M47.125 39.1425L45.1913 49.7717L47.264 50.9196L47.125 39.1425Z" fill="#B0AAA6"/>
<path d="M0 91.9843L3.73455 87.165L29.4655 73.843C29.4655 73.843 36.8036 81.1644 47.9972 80.8597C59.1908 80.5551 64.7019 74.295 64.7019 74.295L87.6329 86.5753L92 92.0059L0 91.9843Z" fill="#FF5A28"/>
<path d="M37.8673 41.5561C38.7762 41.5561 39.513 40.8371 39.513 39.9503C39.513 39.0634 38.7762 38.3445 37.8673 38.3445C36.9584 38.3445 36.2216 39.0634 36.2216 39.9503C36.2216 40.8371 36.9584 41.5561 37.8673 41.5561Z" fill="#333333"/>
<path d="M54.6888 41.5561C55.5977 41.5561 56.3345 40.8371 56.3345 39.9503C56.3345 39.0634 55.5977 38.3445 54.6888 38.3445C53.7799 38.3445 53.0431 39.0634 53.0431 39.9503C53.0431 40.8371 53.7799 41.5561 54.6888 41.5561Z" fill="#333333"/>
<path d="M43.459 56.0908C43.459 56.0908 48.241 55.8451 50.6199 54.7503C50.6199 54.7503 49.6671 56.6195 47.0384 56.8121C44.4097 57.0047 43.459 56.0908 43.459 56.0908Z" fill="#F2F2F2"/>
<path d="M21.7869 27.9235C20.9227 21.2507 21.6157 19.529 23.9664 16.1896C26.3171 12.8503 28.3173 12.2783 30.6459 11.9442C32.9744 11.6101 35.029 9.14144 35.029 9.14144C35.029 9.14144 37.4945 6.87918 39.1241 6.17947C50.5856 0.790134 54.6505 5.17118 60.5202 8.08205C66.3899 10.9929 71.9112 20.2444 70.904 28.3029C69.8969 36.3613 66.813 40.5635 65.0464 42.303C62.7017 40.7777 62.3815 36.5579 62.3815 36.5579L59.9925 31.3258L54.7291 31.766C43.5174 33.1419 39.1241 26.0445 39.1241 26.0445C39.1241 26.0445 38.8018 30.7086 33.6311 31.8486C32.5051 32.279 30.2208 32.5168 29.7616 35.8287C29.4813 37.7227 29.4266 39.6419 29.5984 41.5482L28.9357 45.3455C28.9357 45.3455 22.9794 37.1338 21.7869 27.9235Z" fill="#333333"/>
<path opacity="0.1" d="M60.5202 8.08203C66.3879 10.9929 71.9111 20.2444 70.904 28.3029C70.3984 32.3458 69.3711 35.4159 68.2511 37.6919C68.6004 37.9154 68.8884 38.2188 69.09 38.5758C69.2915 38.9328 69.4005 39.3325 69.4073 39.74C69.5524 42.2774 66.2872 45.2846 65.5358 45.943C65.28 48.0775 64.8348 50.1373 64.1097 51.8827C62.186 56.4996 59.9058 58.8267 57.819 60.23L59.5593 69.1946C60.0366 71.6686 61.4962 73.8585 63.6202 75.2876C63.9987 74.973 64.356 74.6349 64.6898 74.2753L87.6208 86.5556L91.9879 91.9862H50.7427L47.9226 74.8453L49.7355 62.2014C49.7355 62.2014 56.3666 44.6478 55.9658 35.0405C55.5649 25.4333 60.5202 8.08203 60.5202 8.08203Z" fill="#333333"/>
<path d="M91.6979 0.294821V91.7013H0.302148V0.294821H91.6979ZM92 0H0V91.9961H92V0Z" fill="#333333"/>
<path opacity="0.2" d="M60.5202 8.08203C66.3879 10.9929 71.9112 20.2444 70.904 28.3029C70.3984 32.3458 69.3711 35.4159 68.2511 37.6919C68.6005 37.9154 68.8884 38.2188 69.09 38.5758C69.2915 38.9328 69.4005 39.3325 69.4074 39.74C69.5524 42.2774 66.2872 45.2846 65.5358 45.943C65.28 48.0775 64.8348 50.1373 64.1097 51.8827C62.186 56.4996 59.9058 58.8267 57.819 60.23L59.5593 69.1946C60.0367 71.6686 61.4962 73.8585 63.6202 75.2876C63.9987 74.973 64.356 74.6349 64.6898 74.2753L87.6208 86.5556L91.9879 91.9862H53.5688L49.943 74.9475L51.5544 62.3547C51.5544 62.3547 58.2541 44.862 57.8532 35.2528C57.4524 25.6436 60.5202 8.08203 60.5202 8.08203Z" fill="#333333"/>
<path opacity="0.3" d="M60.5686 8.08203C66.4383 10.9929 71.9636 20.2444 70.9544 28.3029C70.4488 32.3458 69.4235 35.4159 68.3015 37.6919C68.6511 37.9153 68.9394 38.2186 69.1413 38.5756C69.3431 38.9326 69.4525 39.3323 69.4598 39.74C69.6028 42.2774 66.3396 45.2846 65.5862 45.943C65.3304 48.0775 64.8873 50.1373 64.1601 51.8827C62.2384 56.4996 59.9562 58.8267 57.8714 60.23L59.6118 69.1946C60.0882 71.6684 61.547 73.8584 63.6706 75.2876H63.6807C64.0592 74.973 64.4165 74.6349 64.7503 74.2753L87.6813 86.5556L92.0544 92H56.2922L51.8385 74.7982L53.5124 62.3803C53.5124 62.3803 60.1778 45.0271 59.7749 35.4179C59.3721 25.8087 60.5686 8.08203 60.5686 8.08203Z" fill="#333333"/>
<path opacity="0.3" d="M60.5686 8.08203C66.4383 10.9929 71.9636 20.2444 70.9544 28.3029C70.4488 32.3458 69.4235 35.4159 68.3016 37.6919C68.6511 37.9153 68.9394 38.2186 69.1413 38.5756C69.3432 38.9326 69.4525 39.3323 69.4598 39.74C69.6028 42.2774 66.3396 45.2846 65.5863 45.943C65.3304 48.0775 64.8873 50.1373 64.1601 51.8827C62.2385 56.4996 59.9562 58.8267 57.8714 60.23L59.6118 69.1946C60.0882 71.6684 61.5471 73.8584 63.6706 75.2876H63.6807C64.0592 74.973 64.4165 74.6349 64.7503 74.2753L87.6813 86.5556L92.0544 92H59.1062L53.8146 74.6016L55.3213 62.2191C55.3213 62.2191 61.9867 45.4202 61.5838 35.8129C61.1809 26.2057 60.5686 8.08203 60.5686 8.08203Z" fill="#333333"/>
<path opacity="0.3" d="M60.5685 8.07809C66.4382 10.989 71.9635 20.2444 70.9543 28.3028C70.4487 32.3458 69.4234 35.4159 68.3014 37.6919C68.6514 37.9149 68.94 38.2182 69.1419 38.5752C69.3438 38.9323 69.4529 39.3322 69.4597 39.7399C69.6027 42.2774 66.3395 45.2846 65.5862 45.943C65.3303 48.0775 64.8872 50.1373 64.16 51.8827C62.2383 56.4996 59.9561 58.8267 57.8713 60.23L59.6117 69.1946C60.0881 71.6684 61.5469 73.8584 63.6705 75.2875H63.6806C64.0589 74.9721 64.4162 74.6333 64.7502 74.2734L87.6812 86.5556L92.0543 91.9961H61.9866L55.9235 74.3068L56.9306 62.3449C56.9306 62.3449 61.9886 45.4123 61.5857 35.811C61.1828 26.2096 60.5685 8.07809 60.5685 8.07809Z" fill="#333333"/>
</g>
<defs>
<clipPath id="clip0_1651_2935">
<rect width="92" height="92" fill="white"/>
</clipPath>
</defs>
</svg>
