<svg width="220" height="227" viewBox="0 0 220 227" fill="none" xmlns="http://www.w3.org/2000/svg">
<g clip-path="url(#clip0_1651_3088)">
<path d="M95.5511 139.286L91.0447 169.026C90.7899 170.847 90.1019 172.581 89.0387 174.08C87.9754 175.58 86.5681 176.801 84.9353 177.641L46.3971 196.971L184.434 198.072L156.008 182.007C153.476 180.549 151.291 178.556 149.606 176.166C147.92 173.775 146.775 171.046 146.248 168.167L140.991 140.323L95.5511 139.286Z" fill="#E3DDD6"/>
<path d="M94.3649 147.112C94.3649 147.112 99.4987 159.964 118.074 159.639C136.649 159.313 142.374 147.162 142.374 147.162L94.3649 147.112Z" fill="#B0AAA6"/>
<path d="M160.061 93.0345C160.061 93.0345 168.268 92.6673 168.639 99.3644C169.009 106.062 159.479 114.159 159.479 114.159L160.061 93.0345Z" fill="#E3DDD6"/>
<path d="M77.0582 93.6404C77.0582 93.6404 68.92 92.5342 67.9491 99.1487C66.9782 105.763 76.9116 113.622 76.9116 113.622L77.0582 93.6404Z" fill="#E3DDD6"/>
<path d="M76.0643 96.8536V108.687C76.0643 108.687 78.0886 131.28 93.2108 146.024C108.333 160.768 128.259 154.52 134.259 151.574C140.258 148.627 149.505 145.198 156.589 127.704C163.674 110.211 158.98 79.1904 158.98 79.1904C158.98 79.1904 157.295 52.1081 144.522 48.6609C131.749 45.2136 103.762 41.7756 91.4613 51.617C79.1602 61.4584 76.0643 96.8536 76.0643 96.8536Z" fill="#E1DCD4"/>
<path d="M117.973 97.9552L113.577 122.779L118.285 125.46L117.973 97.9552Z" fill="#B0AAA6"/>
<path d="M10.8311 221.382L19.3218 210.131L77.8184 179.018C77.8184 179.018 94.5069 196.122 119.952 195.406C145.397 194.689 157.922 180.06 157.922 180.06L210.071 208.722L220 221.405L10.8311 221.382Z" fill="#FF5A28"/>
<path d="M96.925 103.597C98.9914 103.597 100.667 101.918 100.667 99.8464C100.667 97.7752 98.9914 96.0962 96.925 96.0962C94.8585 96.0962 93.1833 97.7752 93.1833 99.8464C93.1833 101.918 94.8585 103.597 96.925 103.597Z" fill="#333333"/>
<path d="M135.165 103.597C137.232 103.597 138.907 101.918 138.907 99.8464C138.907 97.7752 137.232 96.0962 135.165 96.0962C133.099 96.0962 131.424 97.7752 131.424 99.8464C131.424 101.918 133.099 103.597 135.165 103.597Z" fill="#333333"/>
<path d="M109.638 137.537C109.638 137.537 120.51 136.968 125.914 134.406C125.914 134.406 123.753 138.771 117.776 139.226C111.8 139.68 109.638 137.537 109.638 137.537Z" fill="#F2F2F2"/>
<path d="M61.4918 69.5877C59.5317 54.0039 61.1025 49.9829 66.4516 42.1841C71.8007 34.3853 76.3392 33.0496 81.6333 32.2738C86.9275 31.4981 91.5942 25.7052 91.5942 25.7052C91.5942 25.7052 97.2043 20.4356 100.909 18.8199C126.968 6.2381 136.21 16.4651 149.555 23.2632C162.9 30.0613 175.458 51.6583 173.168 70.4965C170.878 89.3348 163.867 99.1211 159.832 103.183C154.496 99.6077 153.768 89.7709 153.768 89.7709L148.355 77.5747L136.388 78.5983C110.898 81.8114 100.909 65.2408 100.909 65.2408C100.909 65.2408 100.177 76.1287 88.425 78.7957C85.8604 79.8009 80.667 80.3517 79.6228 88.0908C78.9856 92.5142 78.8627 96.9966 79.2565 101.448L77.7452 110.312C77.7452 110.312 64.203 91.0974 61.4918 69.5877Z" fill="#333333"/>
<path d="M118.44 189.493C99.288 189.493 81.3447 179.505 67.9262 161.369C54.7275 143.531 47.4595 119.874 47.4595 94.7467C47.4595 69.6198 54.7275 45.9618 67.9262 28.1243C81.3493 9.98831 99.288 0 118.44 0C137.593 0 155.536 9.98831 168.959 28.1243C182.158 45.9618 189.426 69.6198 189.426 94.7467C189.426 119.874 182.158 143.531 168.959 161.369C155.536 179.505 137.593 189.493 118.44 189.493ZM118.44 6.74762C83.0117 6.74762 54.1916 46.2235 54.1916 94.7467C54.1916 143.27 83.0117 182.746 118.44 182.746C153.869 182.746 182.694 143.27 182.694 94.7467C182.694 46.2235 153.878 6.74762 118.44 6.74762Z" fill="#FF5A28"/>
<path d="M67.4042 126.777H27.515C24.9528 126.777 22.8757 128.859 22.8757 131.427V210.053C22.8757 212.621 24.9528 214.703 27.515 214.703H67.4042C69.9664 214.703 72.0435 212.621 72.0435 210.053V131.427C72.0435 128.859 69.9664 126.777 67.4042 126.777Z" fill="#6E6E6E"/>
<path d="M66.2043 125.763H26.315C23.7528 125.763 21.6758 127.845 21.6758 130.413V209.038C21.6758 211.607 23.7528 213.688 26.315 213.688H66.2043C68.7665 213.688 70.8435 211.607 70.8435 209.038V130.413C70.8435 127.845 68.7665 125.763 66.2043 125.763Z" fill="#AEABAB"/>
<path d="M39.8206 132.997H33.2075C30.5998 132.997 28.4858 135.116 28.4858 137.729C28.4858 140.343 30.5998 142.462 33.2075 142.462H39.8206C42.4283 142.462 44.5423 140.343 44.5423 137.729C44.5423 135.116 42.4283 132.997 39.8206 132.997Z" fill="#CCCCCC"/>
<path d="M49.4151 194.524C41.9135 196.709 35.9462 199.436 36.0057 199.61C36.0332 199.697 37.4483 199.303 39.7427 198.66C43.1317 197.71 45.9345 196.851 47.9862 196.204C52.0163 195.506 55.0664 194.91 57.1456 194.487C58.7302 194.162 60.4339 193.804 61.1712 194.671C61.9085 195.539 61.3223 197.063 61.13 197.59C59.4904 202.181 51.105 204.099 48.8014 204.586L38.0437 210.232L29.2323 215.648C29.2323 215.648 23.5443 228.79 6.86959 226.793C-1.08078 225.839 0.0549887 219.61 0.0549887 219.61C4.90948 209.97 11.8752 200.565 17.2472 193.964C22.4148 187.624 29.2702 182.883 37.0178 180.29C38.7559 179.666 40.5377 179.172 42.3486 178.812C45.8429 178.275 60.2094 177.063 60.9605 179.826C61.3102 181.124 61.1425 182.507 60.4929 183.684C59.8434 184.86 58.7629 185.737 57.4799 186.129C57.7043 186.083 60.1453 185.615 61.2857 187.047C61.7292 187.631 61.9251 188.366 61.8307 189.094C61.4322 191.761 55.616 192.72 49.4151 194.524Z" fill="#E1DCD4"/>
<path d="M61.1299 181.493C61.1299 181.493 59.5865 184.426 57.4112 185.027C55.7075 185.486 49.2776 186.138 43.672 187.455C41.9913 187.845 33.6929 190.944 32.2228 191.844L45.1879 187.988L57.3242 186.179C58.3747 185.908 59.311 185.306 59.9959 184.463C60.6807 183.62 61.0781 182.579 61.1299 181.493Z" fill="#AEABAB"/>
<path d="M39.7702 141.64C41.9252 141.64 43.6721 139.889 43.6721 137.729C43.6721 135.57 41.9252 133.819 39.7702 133.819C37.6152 133.819 35.8683 135.57 35.8683 137.729C35.8683 139.889 37.6152 141.64 39.7702 141.64Z" fill="#545454"/>
</g>
<defs>
<clipPath id="clip0_1651_3088">
<rect width="220" height="227" fill="white"/>
</clipPath>
</defs>
</svg>
