<svg width="92" height="92" viewBox="0 0 92 92" fill="none" xmlns="http://www.w3.org/2000/svg">
<g clip-path="url(#clip0_1651_2921)">
<g filter="url(#filter0_f_1651_2921)">
<path d="M37.3637 56.8377L35.3816 69.5779C35.2683 70.3566 34.9652 71.0973 34.4976 71.7379C34.03 72.3785 33.4116 72.9002 32.6945 73.2592L15.744 81.528L76.4576 81.9997L63.9547 75.1205C62.8409 74.4969 61.8799 73.6439 61.1385 72.6208C60.3972 71.5977 59.8934 70.4291 59.6622 69.1966L57.3498 57.2799L37.3637 56.8377Z" fill="#E3DDD6"/>
<path d="M36.8419 60.1888C36.8419 60.1888 39.1 65.6921 47.2701 65.5506C55.4401 65.4091 57.958 60.2084 57.958 60.2084L36.8419 60.1888Z" fill="#B0AAA6"/>
<path d="M65.7374 37.0335C65.7374 37.0335 69.347 36.8743 69.5102 39.7419C69.6734 42.6095 65.4816 46.0786 65.4816 46.0786L65.7374 37.0335Z" fill="#E3DDD6"/>
<path d="M29.2297 37.289C29.2297 37.289 25.6503 36.8134 25.2232 39.6476C24.7962 42.4818 29.1653 45.8428 29.1653 45.8428L29.2297 37.289Z" fill="#E3DDD6"/>
<path d="M28.7927 38.6747V43.7417C28.7927 43.7417 29.6831 53.4138 36.3343 59.7269C42.9856 66.04 51.7499 63.3669 54.3867 62.109C57.0234 60.8511 61.0923 59.381 64.2085 51.8886C67.3246 44.3962 65.264 31.1135 65.264 31.1135C65.264 31.1135 64.5227 19.5172 58.9048 18.0411C53.2868 16.565 40.9773 15.0929 35.5689 19.3069C30.1604 23.5209 28.7927 38.6747 28.7927 38.6747Z" fill="#E1DCD4"/>
<path d="M47.2257 39.1385L45.292 49.7698L47.3627 50.9176L47.2257 39.1385Z" fill="#B0AAA6"/>
<path d="M0.100708 91.9843L3.8272 87.1709L29.5581 73.841C29.5581 73.841 36.8963 81.1624 48.0899 80.8578C59.2834 80.5531 64.8027 74.295 64.8027 74.295L87.7337 86.5773L92.1007 92.0079L0.100708 91.9843Z" fill="#FF5A28"/>
<path d="M37.968 41.5541C38.8769 41.5541 39.6137 40.8352 39.6137 39.9483C39.6137 39.0615 38.8769 38.3425 37.968 38.3425C37.0591 38.3425 36.3223 39.0615 36.3223 39.9483C36.3223 40.8352 37.0591 41.5541 37.968 41.5541Z" fill="#333333"/>
<path d="M54.7895 41.5541C55.6984 41.5541 56.4352 40.8352 56.4352 39.9483C56.4352 39.0615 55.6984 38.3425 54.7895 38.3425C53.8806 38.3425 53.1438 39.0615 53.1438 39.9483C53.1438 40.8352 53.8806 41.5541 54.7895 41.5541Z" fill="#333333"/>
<path d="M43.5596 56.0888C43.5596 56.0888 48.3416 55.8431 50.7185 54.7484C50.7185 54.7484 49.7677 56.6175 47.139 56.8101C44.5103 57.0028 43.5596 56.0888 43.5596 56.0888Z" fill="#F2F2F2"/>
<path d="M22.3831 26.9919C21.521 20.3092 22.2119 18.5993 24.5646 15.2599C26.9174 11.9206 28.9136 11.3486 31.2421 11.0066C33.5707 10.6647 35.6253 8.20388 35.6253 8.20388C35.6253 8.20388 38.0908 5.93965 39.7204 5.24191C51.1819 -0.147427 55.2467 4.23362 61.1165 7.14449C66.9862 10.0554 72.5155 19.3088 71.5083 27.3771C70.5012 35.4454 67.4173 39.6377 65.6527 41.3772C63.304 39.848 62.9837 35.636 62.9837 35.636L60.5948 30.4039L55.3314 30.8442C44.1197 32.22 39.7264 25.1227 39.7264 25.1227C39.7264 25.1227 39.4041 29.7848 34.2354 30.9267C33.1074 31.3572 30.8231 31.593 30.3639 34.9068C30.0836 36.8008 30.0295 38.7202 30.2027 40.6264L29.532 44.4197C29.532 44.4197 23.5676 36.2041 22.3831 26.9919Z" fill="#333333"/>
</g>
<path d="M91.6979 0.296787V91.7032H0.302148V0.296787H91.6979ZM92 0.00196548H0V91.998H92V0V0.00196548Z" fill="#333333"/>
</g>
<defs>
<filter id="filter0_f_1651_2921" x="-1.02906" y="1.56133" width="94.2595" height="91.5763" filterUnits="userSpaceOnUse" color-interpolation-filters="sRGB">
<feFlood flood-opacity="0" result="BackgroundImageFix"/>
<feBlend mode="normal" in="SourceGraphic" in2="BackgroundImageFix" result="shape"/>
<feGaussianBlur stdDeviation="0.564885" result="effect1_foregroundBlur_1651_2921"/>
</filter>
<clipPath id="clip0_1651_2921">
<rect width="92" height="92" fill="white"/>
</clipPath>
</defs>
</svg>
