<svg width="92" height="92" viewBox="0 0 92 92" fill="none" xmlns="http://www.w3.org/2000/svg">
<g clip-path="url(#clip0_1651_2953)">
<path d="M37.2649 56.8396L35.2808 69.5778C35.1675 70.3565 34.8643 71.0973 34.3967 71.7379C33.9292 72.3785 33.3108 72.9002 32.5937 73.2592L15.6432 81.5338L76.3568 82.0056L63.8539 75.1264C62.7401 74.5028 61.779 73.6497 61.0377 72.6266C60.2963 71.6035 59.7925 70.435 59.5614 69.2024L57.2489 57.2858L37.2649 56.8396Z" fill="#E3DDD6"/>
<path d="M36.7411 60.1907C36.7411 60.1907 38.9991 65.6941 47.1692 65.5526C55.3393 65.411 57.8572 60.2104 57.8572 60.2104L36.7411 60.1907Z" fill="#B0AAA6"/>
<path d="M65.6366 37.0355C65.6366 37.0355 69.2462 36.8763 69.4094 39.7439C69.5725 42.6115 65.3807 46.0806 65.3807 46.0806L65.6366 37.0355Z" fill="#E3DDD6"/>
<path d="M27.2416 39.1425C27.2416 39.1425 23.6763 39.7144 24.1254 42.5526C24.5746 45.3907 29.7655 47.3424 29.7655 47.3424L27.2416 39.1425Z" fill="#E3DDD6"/>
<path d="M28.6919 38.6766V43.7436C28.6919 43.7436 29.5842 53.4157 36.2335 59.7289C42.8828 66.042 51.6491 63.3689 54.2899 62.1051C56.9306 60.8413 60.9935 59.377 64.1117 51.8846C67.2298 44.3922 65.1611 31.1135 65.1611 31.1135C65.1611 31.1135 64.4199 19.5172 58.8019 18.0411C53.184 16.565 40.8745 15.0929 35.4661 19.3069C30.0576 23.5209 28.6919 38.6766 28.6919 38.6766Z" fill="#E1DCD4"/>
<path d="M47.125 39.1425L45.1913 49.7717L47.264 50.9196L47.125 39.1425Z" fill="#B0AAA6"/>
<path d="M0 91.9843L3.73455 87.1649L29.4655 73.8429C29.4655 73.8429 36.8036 81.1643 47.9972 80.8597C59.1908 80.555 64.7019 74.295 64.7019 74.295L87.6329 86.5753L92 92.0059L0 91.9843Z" fill="#FF5A28"/>
<path d="M37.8671 41.5561C38.776 41.5561 39.5128 40.8371 39.5128 39.9503C39.5128 39.0634 38.776 38.3445 37.8671 38.3445C36.9582 38.3445 36.2214 39.0634 36.2214 39.9503C36.2214 40.8371 36.9582 41.5561 37.8671 41.5561Z" fill="#333333"/>
<path d="M54.6888 41.5561C55.5977 41.5561 56.3345 40.8371 56.3345 39.9503C56.3345 39.0634 55.5977 38.3445 54.6888 38.3445C53.7799 38.3445 53.0431 39.0634 53.0431 39.9503C53.0431 40.8371 53.7799 41.5561 54.6888 41.5561Z" fill="#333333"/>
<path d="M41.6017 54.9999C41.6017 54.9999 51.7035 53.1858 55.7966 51.2989C55.7966 51.2989 53.2706 58.8522 48.7465 59.1864C44.2223 59.5205 41.6017 54.9999 41.6017 54.9999Z" fill="#F2F2F2"/>
<path d="M21.7869 27.9235C20.9227 21.2507 21.6157 19.529 23.9664 16.1896C26.3171 12.8503 28.3173 12.2783 30.6459 11.9442C32.9744 11.6101 35.029 9.14144 35.029 9.14144C35.029 9.14144 37.4945 6.87918 39.1241 6.17947C50.5856 0.790134 54.6505 5.17118 60.5202 8.08205C66.39 10.9929 71.9112 20.2444 70.904 28.3029C69.8969 36.3613 66.813 40.5635 65.0464 42.303C62.7017 40.7777 62.3815 36.5579 62.3815 36.5579L59.9925 31.3258L54.7291 31.766C43.5174 33.1419 39.1241 26.0445 39.1241 26.0445C39.1241 26.0445 38.8018 30.7086 33.6311 31.8486C32.5051 32.279 30.2208 32.5168 29.7616 35.8287C29.4813 37.7227 29.4266 39.6419 29.5984 41.5482L28.9357 45.3455C28.9357 45.3455 22.9794 37.1338 21.7869 27.9235Z" fill="#333333"/>
<path d="M91.6977 0.296787V91.6914H0.30404V0.296787H91.6977ZM91.9999 0H-0.00012207V91.9961H91.9999V0Z" fill="#333333"/>
<path d="M39.9666 35.339L34.0986 37.2181L34.5182 38.4656L40.3862 36.5864L39.9666 35.339Z" fill="#333333"/>
<path d="M59.4504 37.5542L53.7255 35.2938L53.2208 36.5109L58.9457 38.7712L59.4504 37.5542Z" fill="#333333"/>
</g>
<defs>
<clipPath id="clip0_1651_2953">
<rect width="92" height="92" fill="white"/>
</clipPath>
</defs>
</svg>
