<svg width="72" height="72" viewBox="0 0 72 72" fill="none" xmlns="http://www.w3.org/2000/svg">
<path fill-rule="evenodd" clip-rule="evenodd" d="M36 7.00001C19.9837 7.00001 7 19.9837 7 36C7 52.0163 19.9837 65 36 65C52.0163 65 65 52.0163 65 36C65 19.9838 52.0163 7.00001 36 7.00001ZM36 6.24666e-06C16.1178 4.5085e-06 4.88538e-06 16.1178 3.14722e-06 36C1.40906e-06 55.8823 16.1177 72 36 72C55.8823 72 72 55.8823 72 36C72 16.1178 55.8823 7.98482e-06 36 6.24666e-06Z" fill="#FF5A28"/>
<path d="M25 36.5625L33.0972 44L47 27" stroke="#FF5A28" stroke-width="6" stroke-linecap="round" stroke-linejoin="round"/>
</svg>
